STARTFONT 2.1
COMMENT
COMMENT Converted from OpenType font "Roboto-ThinItalic.ttf" by "otf2bdf 3.0".
COMMENT
FONT -FreeType-Roboto Thin-Medium-I-Normal--44-320-100-100-P-216-ISO10646-1
SIZE 32 100 100
FONTBOUNDINGBOX 82 57 -32 -12
STARTPROPERTIES 19
FOUNDRY "FreeType"
FAMILY_NAME "Roboto Thin"
WEIGHT_NAME "Medium"
SLANT "I"
SETWIDTH_NAME "Normal"
ADD_STYLE_NAME ""
PIXEL_SIZE 44
POINT_SIZE 320
RESOLUTION_X 100
RESOLUTION_Y 100
SPACING "P"
AVERAGE_WIDTH 216
CHARSET_REGISTRY "ISO10646"
CHARSET_ENCODING "1"
FONT_ASCENT 40
FONT_DESCENT 10
COPYRIGHT "Copyright 2011 The Roboto Project Authors (https://github.com/googlefonts/roboto-classic)"
_OTF_FONTFILE "Roboto-ThinItalic.ttf"
_OTF_PSNAME "Roboto-ThinItalic"
ENDPROPERTIES
CHARS 922
STARTCHAR 0000
ENCODING 0
SWIDTH 0 0
DWIDTH 0 0
BBX 0 0 0 0
BITMAP
ENDCHAR
STARTCHAR 0002
ENCODING 2
SWIDTH 0 0
DWIDTH 0 0
BBX 0 0 0 0
BITMAP
ENDCHAR
STARTCHAR 000D
ENCODING 13
SWIDTH 225 0
DWIDTH 10 0
BBX 0 0 0 0
BITMAP
ENDCHAR
STARTCHAR 0020
ENCODING 32
SWIDTH 225 0
DWIDTH 10 0
BBX 0 0 0 0
BITMAP
ENDCHAR
STARTCHAR 0021
ENCODING 33
SWIDTH 180 0
DWIDTH 8 0
BBX 7 32 1 0
BITMAP
02
02
06
04
04
04
04
0C
0C
08
08
08
08
18
10
10
10
10
10
30
20
20
20
00
00
00
00
00
00
00
C0
C0
ENDCHAR
STARTCHAR 0022
ENCODING 34
SWIDTH 225 0
DWIDTH 10 0
BBX 7 9 5 24
BITMAP
42
46
44
44
44
C4
84
88
88
ENDCHAR
STARTCHAR 0023
ENCODING 35
SWIDTH 517 0
DWIDTH 23 0
BBX 26 32 0 0
BITMAP
00020100
00020300
00040200
00040200
00040600
00080400
00080400
00180C00
00100800
0FFFFFC0
0FFFFFC0
00201000
00201000
00602000
00402000
00402000
00C04000
00804000
0080C000
01808000
01008000
01018000
FFFFFC00
02010000
02030000
04020000
04020000
04060000
08040000
08040000
180C0000
10080000
ENDCHAR
STARTCHAR 0024
ENCODING 36
SWIDTH 517 0
DWIDTH 23 0
BBX 21 41 2 -5
BITMAP
000400
000400
000400
000400
003F00
01C1C0
030060
060030
0C0010
080010
080010
180018
100018
100000
100000
180000
0C0000
060000
030000
00E000
003800
000E00
000300
000180
0000C0
000040
000040
800040
800040
800040
8000C0
C00080
400180
600300
300E00
0FF800
008000
008000
018000
018000
010000
ENDCHAR
STARTCHAR 0025
ENCODING 37
SWIDTH 720 0
DWIDTH 32 0
BBX 25 32 4 0
BITMAP
07C00000
1C600000
30200000
20100000
40100400
40100C00
40101800
C0101000
80302000
80206000
8020C000
40418000
60C10000
3F020000
0C060000
000C0000
00080000
00100000
00307E00
0060C300
00C18100
00830080
01020080
03020080
06060080
04040180
08040100
10040100
30040300
00060200
00030C00
0001F800
ENDCHAR
STARTCHAR 0026
ENCODING 38
SWIDTH 585 0
DWIDTH 26 0
BBX 23 32 1 0
BITMAP
001F00
0071C0
00C040
018060
010020
010020
030060
020040
0200C0
030180
010300
010600
019800
00B000
004000
01E000
032000
061000
081802
100802
300406
600604
400304
400108
400098
C000D0
C00070
400060
4000F0
200110
180608
0FF80C
ENDCHAR
STARTCHAR 0027
ENCODING 39
SWIDTH 157 0
DWIDTH 7 0
BBX 2 9 5 24
BITMAP
40
40
40
40
C0
80
80
80
80
ENDCHAR
STARTCHAR 0028
ENCODING 40
SWIDTH 270 0
DWIDTH 12 0
BBX 13 45 2 -10
BITMAP
0008
0018
0020
0040
0080
0180
0100
0200
0600
0400
0400
0800
0800
1800
1000
1000
3000
2000
2000
2000
6000
4000
4000
4000
4000
4000
4000
C000
C000
C000
C000
4000
4000
4000
4000
4000
4000
6000
2000
2000
1000
1000
0800
0C00
0600
ENDCHAR
STARTCHAR 0029
ENCODING 41
SWIDTH 292 0
DWIDTH 13 0
BBX 13 45 -3 -10
BITMAP
0100
0080
0040
0060
0020
0030
0010
0010
0010
0008
0008
0008
0008
0008
0008
0008
0008
0008
0008
0008
0008
0008
0018
0010
0010
0010
0010
0030
0020
0020
0060
0040
0040
00C0
0080
0180
0100
0300
0200
0400
0C00
1800
3000
6000
8000
ENDCHAR
STARTCHAR 002A
ENCODING 42
SWIDTH 405 0
DWIDTH 18 0
BBX 16 18 3 14
BITMAP
0040
0040
00C0
0080
0080
0080
8081
F08E
1DF8
03C0
0380
0680
0440
0860
1020
2030
6010
4010
ENDCHAR
STARTCHAR 002B
ENCODING 43
SWIDTH 540 0
DWIDTH 24 0
BBX 21 23 2 3
BITMAP
001800
001000
001000
001000
001000
001000
003000
002000
002000
002000
002000
FFFFF8
006000
004000
004000
004000
004000
00C000
00C000
008000
008000
008000
008000
ENDCHAR
STARTCHAR 002C
ENCODING 44
SWIDTH 180 0
DWIDTH 8 0
BBX 4 8 -1 -6
BITMAP
10
10
10
30
20
60
40
C0
ENDCHAR
STARTCHAR 002D
ENCODING 45
SWIDTH 270 0
DWIDTH 12 0
BBX 9 1 2 14
BITMAP
FF80
ENDCHAR
STARTCHAR 002E
ENCODING 46
SWIDTH 202 0
DWIDTH 9 0
BBX 2 2 1 0
BITMAP
C0
C0
ENDCHAR
STARTCHAR 002F
ENCODING 47
SWIDTH 360 0
DWIDTH 16 0
BBX 20 35 -2 -3
BITMAP
000010
000030
000020
000040
000040
000080
000080
000100
000300
000200
000600
000400
000C00
000800
001000
001000
002000
002000
004000
00C000
008000
018000
010000
030000
020000
040000
040000
080000
080000
100000
300000
200000
600000
400000
C00000
ENDCHAR
STARTCHAR 0030
ENCODING 48
SWIDTH 517 0
DWIDTH 23 0
BBX 20 32 2 0
BITMAP
003F00
00E1C0
010040
020020
040030
0C0010
080010
180010
100010
100010
200010
200010
200010
200010
600010
400030
400020
400020
400020
400020
C00060
800040
800040
800040
C00080
C00080
400180
400300
600200
200400
101800
0FF000
ENDCHAR
STARTCHAR 0031
ENCODING 49
SWIDTH 517 0
DWIDTH 23 0
BBX 11 32 6 0
BITMAP
0020
00E0
0720
3860
E040
0040
0040
0040
0040
00C0
0080
0080
0080
0080
0080
0100
0100
0100
0100
0100
0300
0200
0200
0200
0200
0200
0600
0400
0400
0400
0400
0400
ENDCHAR
STARTCHAR 0032
ENCODING 50
SWIDTH 517 0
DWIDTH 23 0
BBX 21 32 1 0
BITMAP
003F00
00E0C0
018020
020030
040010
0C0018
080018
180018
100018
000010
000010
000030
000020
000040
0000C0
000180
000100
000200
000400
000800
001000
002000
004000
008000
010000
020000
040000
080000
100000
200000
400000
FFFFE0
ENDCHAR
STARTCHAR 0033
ENCODING 51
SWIDTH 517 0
DWIDTH 23 0
BBX 21 32 1 0
BITMAP
003F80
00E0E0
018030
030010
060008
0C0008
080008
080008
180008
000008
000018
000010
000020
000040
000180
00FE00
00FF00
000180
000040
000020
000020
000030
000030
C00030
C00020
C00020
400060
400040
600080
300180
180600
07FC00
ENDCHAR
STARTCHAR 0034
ENCODING 52
SWIDTH 517 0
DWIDTH 23 0
BBX 21 32 1 0
BITMAP
000030
000030
000070
0000A0
0001A0
000320
000620
000420
000860
001840
003040
006040
00C040
0080C0
0100C0
030080
060080
0C0080
080080
100180
200180
600100
FFFFF8
000100
000100
000300
000200
000200
000200
000200
000200
000600
ENDCHAR
STARTCHAR 0035
ENCODING 53
SWIDTH 517 0
DWIDTH 23 0
BBX 21 32 3 0
BITMAP
03FFF8
03FFF8
020000
060000
040000
040000
040000
0C0000
080000
080000
080000
100000
10F800
170E00
180300
100180
0000C0
000040
000040
000040
000040
000040
000040
000040
8000C0
800080
800180
400100
400300
200600
300C00
0FF000
ENDCHAR
STARTCHAR 0036
ENCODING 54
SWIDTH 517 0
DWIDTH 23 0
BBX 19 32 2 0
BITMAP
0003E0
001E00
003000
00C000
018000
030000
060000
040000
080000
180000
100000
107C00
23EF00
260180
2800C0
500040
600060
400020
400020
400020
C00020
800020
800020
800060
800040
C000C0
400080
400180
600300
300600
180C00
07F800
ENDCHAR
STARTCHAR 0037
ENCODING 55
SWIDTH 517 0
DWIDTH 23 0
BBX 20 32 4 0
BITMAP
FFFFF0
FFFFF0
000020
000060
000040
000080
000080
000100
000300
000200
000400
000400
000800
001800
001000
003000
002000
004000
004000
008000
018000
010000
020000
020000
040000
0C0000
080000
100000
100000
200000
600000
400000
ENDCHAR
STARTCHAR 0038
ENCODING 56
SWIDTH 517 0
DWIDTH 23 0
BBX 22 32 1 0
BITMAP
001F80
00E0E0
018030
030018
060008
04000C
0C0004
080004
08000C
080008
080008
080010
0C0030
040060
030180
00FF00
03EF00
0E00C0
180060
300020
600030
400010
400010
800010
800030
800020
800020
C00040
4000C0
200180
180600
0FFC00
ENDCHAR
STARTCHAR 0039
ENCODING 57
SWIDTH 517 0
DWIDTH 23 0
BBX 19 32 3 0
BITMAP
00FC00
038300
060180
0C00C0
180040
300060
200020
600020
400020
400020
C00020
C00020
800020
800020
800060
C00040
4000C0
400140
200240
300CC0
1C3880
07C080
000180
000100
000300
000200
000400
000800
001000
006000
01C000
7F0000
ENDCHAR
STARTCHAR 003A
ENCODING 58
SWIDTH 157 0
DWIDTH 7 0
BBX 6 23 0 0
BITMAP
0C
0C
00
00
00
00
00
00
00
00
00
00
00
00
00
00
00
00
00
00
00
60
E0
ENDCHAR
STARTCHAR 003B
ENCODING 59
SWIDTH 157 0
DWIDTH 7 0
BBX 7 28 -1 -6
BITMAP
06
06
00
00
00
00
00
00
00
00
00
00
00
00
00
00
00
00
00
00
10
10
30
20
20
60
40
80
ENDCHAR
STARTCHAR 003C
ENCODING 60
SWIDTH 495 0
DWIDTH 22 0
BBX 19 17 2 6
BITMAP
000020
0001C0
000700
001800
00E000
038000
0C0000
700000
C00000
600000
180000
060000
018000
006000
001800
000600
000300
ENDCHAR
STARTCHAR 003D
ENCODING 61
SWIDTH 540 0
DWIDTH 24 0
BBX 20 10 2 9
BITMAP
3FFFF0
000000
000000
000000
000000
000000
000000
000000
7FFFC0
FFFFC0
ENDCHAR
STARTCHAR 003E
ENCODING 62
SWIDTH 495 0
DWIDTH 22 0
BBX 19 17 1 6
BITMAP
180000
0E0000
038000
00E000
003800
000E00
000380
0000E0
000020
0001C0
000700
001800
00E000
038000
0E0000
700000
C00000
ENDCHAR
STARTCHAR 003F
ENCODING 63
SWIDTH 405 0
DWIDTH 18 0
BBX 15 32 4 0
BITMAP
03F0
0C18
100C
2004
6002
4002
8002
8002
0006
0004
0004
000C
0008
0010
0020
0040
0180
0300
0200
0400
0C00
0800
0800
0000
0000
0000
0000
0000
0000
0000
3000
3000
ENDCHAR
STARTCHAR 0040
ENCODING 64
SWIDTH 900 0
DWIDTH 40 0
BBX 36 41 2 -10
BITMAP
0000060000
0001FFF000
0007001C00
001C000600
0030000100
0060000080
00C00000C0
0180000040
0300000060
0600000020
0C007F0020
0801818020
180300C020
1006008030
3004008030
2008008020
6018018020
4010010020
4010010020
C020010020
8020030060
8020020040
8060020040
80400200C0
8040040080
80400C0080
80400C0100
8040140300
8040240600
8020C20C00
801F83F800
C000000000
4000000000
6000000000
2000000000
3000000000
1800000000
0C00000000
0700180000
01F3F00000
003F000000
ENDCHAR
STARTCHAR 0041
ENCODING 65
SWIDTH 562 0
DWIDTH 25 0
BBX 24 32 -1 0
BITMAP
0000C0
0000C0
0001C0
000140
000260
000220
000420
000420
000820
001820
001030
003010
002010
006010
004010
00C018
008008
010008
010008
020008
02000C
07FFFC
07FFFC
080004
180004
100006
300002
200002
600002
400002
C00003
800003
ENDCHAR
STARTCHAR 0042
ENCODING 66
SWIDTH 585 0
DWIDTH 26 0
BBX 22 32 2 0
BITMAP
07FC00
07FFE0
040030
040008
04000C
040004
0C0004
080004
080004
080004
08000C
180008
180010
100030
1000C0
1FFF00
1003C0
300060
200030
200010
200008
200008
200008
600008
400018
400010
400010
400020
400040
C00180
800700
FFF800
ENDCHAR
STARTCHAR 0043
ENCODING 67
SWIDTH 607 0
DWIDTH 27 0
BBX 24 32 3 0
BITMAP
001FC0
007070
018018
030004
060006
0C0002
080002
100003
100003
200003
200000
600000
400000
400000
400000
400000
C00000
800000
800000
800000
800000
800000
800008
800008
800018
C00010
400030
400020
200040
300180
180700
07FC00
ENDCHAR
STARTCHAR 0044
ENCODING 68
SWIDTH 630 0
DWIDTH 28 0
BBX 24 32 2 0
BITMAP
07FE00
07FFE0
040030
040008
040004
040006
0C0002
080003
080001
080001
080001
180001
180001
100001
100001
100001
100001
300003
200002
200002
200002
200006
200004
60000C
400008
400010
400030
400060
4000C0
C00300
801E00
FFF000
ENDCHAR
STARTCHAR 0045
ENCODING 69
SWIDTH 540 0
DWIDTH 24 0
BBX 24 32 2 0
BITMAP
07FFFF
07FFFF
040000
040000
040000
040000
0C0000
080000
080000
080000
080000
180000
180000
100000
100000
1FFFE0
100000
300000
200000
200000
200000
200000
200000
600000
400000
400000
400000
400000
400000
C00000
800000
FFFFE0
ENDCHAR
STARTCHAR 0046
ENCODING 70
SWIDTH 540 0
DWIDTH 24 0
BBX 24 32 2 0
BITMAP
07FFFF
07FFFF
040000
040000
040000
040000
0C0000
080000
080000
080000
080000
180000
180000
100000
100000
1FFFF0
100000
300000
200000
200000
200000
200000
200000
600000
400000
400000
400000
400000
400000
C00000
800000
800000
ENDCHAR
STARTCHAR 0047
ENCODING 71
SWIDTH 652 0
DWIDTH 29 0
BBX 25 32 3 0
BITMAP
000FE000
00703800
00C00C00
01000600
02000300
04000100
0C000100
08000100
10000180
10000000
20000000
20000000
20000000
60000000
40000000
40000000
40000000
40000000
400FFE00
C0000200
C0000600
C0000400
C0000400
40000400
40000400
40000C00
60000C00
20000800
30000800
18003000
0C00E000
03FF0000
ENDCHAR
STARTCHAR 0048
ENCODING 72
SWIDTH 675 0
DWIDTH 30 0
BBX 27 32 2 0
BITMAP
06000020
04000020
04000020
04000020
04000060
04000040
0C000040
08000040
08000040
08000040
080000C0
18000080
18000080
10000080
10000080
1FFFFF80
10000180
30000100
20000100
20000100
20000100
20000300
20000200
60000200
40000200
40000200
40000200
40000600
40000400
C0000400
80000400
80000400
ENDCHAR
STARTCHAR 0049
ENCODING 73
SWIDTH 247 0
DWIDTH 11 0
BBX 6 32 3 0
BITMAP
04
04
04
04
04
0C
08
08
08
08
18
18
10
10
10
10
30
20
20
20
20
20
60
40
40
40
40
40
C0
80
80
80
ENDCHAR
STARTCHAR 004A
ENCODING 74
SWIDTH 517 0
DWIDTH 23 0
BBX 22 32 1 0
BITMAP
000004
00000C
000008
000008
000008
000008
000008
000018
000010
000010
000010
000010
000010
000030
000020
000020
000020
000020
000060
000060
000040
000040
000040
800040
800080
800080
800180
C00100
400200
600600
301800
1FF000
ENDCHAR
STARTCHAR 004B
ENCODING 75
SWIDTH 607 0
DWIDTH 27 0
BBX 26 32 2 0
BITMAP
060000C0
04000180
04000300
04000600
04000800
04003000
0C006000
0800C000
08018000
08030000
08060000
18080000
18300000
10600000
10C00000
11C00000
13200000
34300000
28100000
30080000
200C0000
20060000
20020000
60030000
40018000
40008000
4000C000
40006000
40002000
C0003000
80001800
80000800
ENDCHAR
STARTCHAR 004C
ENCODING 76
SWIDTH 495 0
DWIDTH 22 0
BBX 17 32 2 0
BITMAP
060000
040000
040000
040000
040000
040000
0C0000
080000
080000
080000
080000
180000
180000
100000
100000
100000
100000
300000
200000
200000
200000
200000
200000
600000
400000
400000
400000
400000
400000
C00000
800000
FFFF80
ENDCHAR
STARTCHAR 004D
ENCODING 77
SWIDTH 810 0
DWIDTH 36 0
BBX 34 32 2 0
BITMAP
06000000C0
06000000C0
07000001C0
0500000380
0500000280
0500000680
0D80000480
0880000880
0880001980
0880001100
08C0003100
1840002100
1840004100
104000C100
1060008300
1020018200
1020010200
3020020200
2030060200
2010040200
20100C0600
2010080400
2018100400
6008300400
4008200400
4008600C00
400C400800
4004800800
4005800800
C005000800
8007000800
8002001800
ENDCHAR
STARTCHAR 004E
ENCODING 78
SWIDTH 675 0
DWIDTH 30 0
BBX 28 32 2 0
BITMAP
06000030
06000020
07000020
05000020
05800020
0C800060
0CC00040
08400040
08600040
08200040
08300040
181000C0
18180080
10080080
100C0080
10040080
10060080
30020180
20030100
20010100
20018100
20008100
2000C300
60004300
40006200
40002200
40002200
40001200
40001600
C0000E00
80000C00
80000400
ENDCHAR
STARTCHAR 004F
ENCODING 79
SWIDTH 630 0
DWIDTH 28 0
BBX 24 32 3 0
BITMAP
001FC0
007070
018018
03000C
060006
0C0002
180002
100001
300001
200001
200001
400001
400001
400001
400001
C00003
800002
800002
800002
800002
800006
800004
800004
800008
800008
800010
C00030
400020
600040
300180
180700
07FC00
ENDCHAR
STARTCHAR 0050
ENCODING 80
SWIDTH 562 0
DWIDTH 25 0
BBX 23 32 2 0
BITMAP
07FF00
07FFF0
040018
04000C
040006
040002
0C0002
080002
080002
080002
080002
180002
180004
100004
100008
100030
100060
3FFF80
3FF800
200000
200000
200000
200000
600000
400000
400000
400000
400000
400000
C00000
800000
800000
ENDCHAR
STARTCHAR 0051
ENCODING 81
SWIDTH 630 0
DWIDTH 28 0
BBX 24 37 3 -6
BITMAP
001FC0
007070
018018
03000C
060006
0C0002
180002
100001
300001
200001
200001
400001
400001
400001
400001
C00003
800002
800002
800002
800002
800006
800004
800004
800008
800008
800010
C00030
400020
600040
300180
180700
07FC00
000200
000100
000180
0000C0
000060
ENDCHAR
STARTCHAR 0052
ENCODING 82
SWIDTH 630 0
DWIDTH 28 0
BBX 24 32 2 0
BITMAP
07FF00
07FFF0
040018
040004
040002
0C0002
080003
080001
080001
080003
080002
180002
100006
100004
100008
100010
100060
3FFF80
200200
200300
200100
200180
600080
600080
400040
400040
400060
400020
C00030
800010
800018
800008
ENDCHAR
STARTCHAR 0053
ENCODING 83
SWIDTH 562 0
DWIDTH 25 0
BBX 24 32 1 0
BITMAP
001FE0
007038
01800C
030006
060002
040001
080001
080001
080001
080000
080000
0C0000
060000
030000
00E000
003C00
000700
0000C0
000030
000018
000008
00000C
000004
800004
800004
80000C
C00008
400018
600030
300060
1C0180
07FE00
ENDCHAR
STARTCHAR 0054
ENCODING 84
SWIDTH 562 0
DWIDTH 25 0
BBX 24 32 4 0
BITMAP
FFFFFF
FFFFFF
001000
001000
001000
001000
003000
002000
002000
002000
002000
002000
006000
004000
004000
004000
004000
004000
00C000
008000
008000
008000
008000
008000
018000
010000
010000
010000
010000
030000
030000
020000
ENDCHAR
STARTCHAR 0055
ENCODING 85
SWIDTH 630 0
DWIDTH 28 0
BBX 25 32 3 0
BITMAP
08000080
08000080
08000080
08000180
18000100
10000100
10000100
10000100
10000300
10000300
30000200
20000200
20000200
20000200
20000600
60000400
40000400
40000400
40000400
40000400
40000C00
C0000800
80000800
80000800
80001800
C0001000
40003000
40006000
6000C000
30018000
18070000
07FC0000
ENDCHAR
STARTCHAR 0056
ENCODING 86
SWIDTH 562 0
DWIDTH 25 0
BBX 24 32 4 0
BITMAP
800001
800002
800002
800004
C00004
400008
400018
400010
600030
200020
200060
200040
2000C0
300080
100180
100100
100300
100200
180600
080400
080C00
080800
081800
0C1000
042000
042000
044000
044000
068000
028000
030000
030000
ENDCHAR
STARTCHAR 0057
ENCODING 87
SWIDTH 877 0
DWIDTH 39 0
BBX 37 32 4 0
BITMAP
8000200018
C000600010
C000600030
4000E00020
4000B00020
4001900060
4001100040
40011000C0
4002100080
4002100080
4004100100
6004180100
600C080300
2008080200
2018080200
2010080400
2030080400
2020080C00
20200C0800
2040041800
3040041000
30C0041000
1080042000
1180042000
1100046000
1300064000
1200064000
1200028000
1400028000
1C00038000
1C00030000
1800030000
ENDCHAR
STARTCHAR 0058
ENCODING 88
SWIDTH 562 0
DWIDTH 25 0
BBX 27 32 0 0
BITMAP
0C000020
04000040
02000080
02000180
01000300
01000600
00800C00
00C00800
00401000
00603000
00206000
0030C000
00118000
00190000
000A0000
000C0000
000C0000
001A0000
00320000
00210000
00410000
00808000
0180C000
03004000
06006000
04002000
08003000
10001000
20001800
60000800
C0000C00
80000400
ENDCHAR
STARTCHAR 0059
ENCODING 89
SWIDTH 562 0
DWIDTH 25 0
BBX 24 32 4 0
BITMAP
800001
C00002
400006
60000C
200008
200010
300030
100060
180040
080080
080180
040300
040200
060400
020C00
021800
011000
012000
00C000
00C000
008000
008000
008000
018000
010000
010000
010000
010000
010000
030000
020000
020000
ENDCHAR
STARTCHAR 005A
ENCODING 90
SWIDTH 562 0
DWIDTH 25 0
BBX 26 32 0 0
BITMAP
03FFFFC0
03FFFFC0
00000080
00000100
00000300
00000600
00000C00
00000800
00001000
00002000
00006000
0000C000
00018000
00010000
00020000
00040000
000C0000
00180000
00300000
00600000
00400000
00800000
01000000
03000000
06000000
0C000000
08000000
10000000
20000000
60000000
C0000000
FFFFFC00
ENDCHAR
STARTCHAR 005B
ENCODING 91
SWIDTH 202 0
DWIDTH 9 0
BBX 12 43 1 -7
BITMAP
03F0
0200
0200
0200
0200
0200
0600
0400
0400
0400
0400
0400
0C00
0800
0800
0800
0800
0800
1800
1800
1000
1000
1000
1000
1000
3000
2000
2000
2000
2000
2000
6000
6000
4000
4000
4000
4000
4000
C000
8000
8000
8000
FC00
ENDCHAR
STARTCHAR 005C
ENCODING 92
SWIDTH 360 0
DWIDTH 16 0
BBX 8 35 4 -3
BITMAP
C0
40
40
40
40
60
20
20
20
20
30
10
10
10
10
18
08
08
08
08
0C
04
04
04
04
06
02
02
02
02
03
01
01
01
01
ENDCHAR
STARTCHAR 005D
ENCODING 93
SWIDTH 202 0
DWIDTH 9 0
BBX 12 43 -3 -7
BITMAP
03F0
0010
0010
0010
0030
0030
0020
0020
0020
0020
0020
0060
0040
0040
0040
0040
0040
00C0
00C0
0080
0080
0080
0080
0080
0180
0100
0100
0100
0100
0100
0300
0200
0200
0200
0200
0200
0600
0600
0400
0400
0400
0400
FC00
ENDCHAR
STARTCHAR 005E
ENCODING 94
SWIDTH 382 0
DWIDTH 17 0
BBX 13 16 3 16
BITMAP
00C0
00C0
0140
0140
0240
0660
0420
0C20
0820
1030
1010
2010
6010
4018
C018
8008
ENDCHAR
STARTCHAR 005F
ENCODING 95
SWIDTH 382 0
DWIDTH 17 0
BBX 17 1 -2 -1
BITMAP
FFFF80
ENDCHAR
STARTCHAR 0060
ENCODING 96
SWIDTH 247 0
DWIDTH 11 0
BBX 3 5 7 28
BITMAP
80
C0
40
60
20
ENDCHAR
STARTCHAR 0061
ENCODING 97
SWIDTH 495 0
DWIDTH 22 0
BBX 19 24 1 0
BITMAP
007E00
03C380
0600C0
0C0040
180060
100020
300020
000060
000040
000040
000040
01FFC0
0F0040
3800C0
600080
400080
800080
800080
800180
800380
800700
C00D00
603100
3FC100
ENDCHAR
STARTCHAR 0062
ENCODING 98
SWIDTH 517 0
DWIDTH 23 0
BBX 20 33 1 0
BITMAP
020000
020000
020000
060000
040000
040000
040000
040000
040000
0C1F00
08E1C0
098040
0A0020
0C0020
080010
180010
100010
100010
100010
100010
300010
200010
200030
200020
200020
200060
600040
4000C0
600080
600180
500300
4C0600
C7F800
ENDCHAR
STARTCHAR 0063
ENCODING 99
SWIDTH 472 0
DWIDTH 21 0
BBX 18 24 2 0
BITMAP
00FC00
038600
040180
080080
1000C0
300040
200040
400040
400000
C00000
800000
800000
800000
800000
800000
800000
800000
800180
800100
800100
400200
600400
301800
1FF000
ENDCHAR
STARTCHAR 0064
ENCODING 100
SWIDTH 517 0
DWIDTH 23 0
BBX 21 33 2 0
BITMAP
000008
000008
000008
000008
000008
000018
000010
000010
000010
00F810
038630
0601B0
0C00A0
180060
100060
200060
200060
600040
400040
400040
C00040
C00040
8000C0
800080
800080
800080
800080
800180
400180
400300
600500
301900
1FE100
ENDCHAR
STARTCHAR 0065
ENCODING 101
SWIDTH 472 0
DWIDTH 21 0
BBX 19 24 1 0
BITMAP
007E00
01C700
030080
040040
080060
100020
100020
200020
200020
400020
7FFFE0
400000
400000
C00000
C00000
C00000
400000
400000
400000
600000
200080
100300
1C0600
07F800
ENDCHAR
STARTCHAR 0066
ENCODING 102
SWIDTH 292 0
DWIDTH 13 0
BBX 14 34 3 0
BITMAP
003C
00E4
0180
0300
0200
0400
0400
0400
0C00
0C00
0800
FFE0
0800
0800
1800
1000
1000
1000
1000
1000
3000
2000
2000
2000
2000
2000
6000
4000
4000
4000
4000
4000
C000
8000
ENDCHAR
STARTCHAR 0067
ENCODING 103
SWIDTH 517 0
DWIDTH 23 0
BBX 21 33 1 -9
BITMAP
007C00
01C318
0300D0
060050
0C0030
080030
100030
100030
300020
200020
200020
600020
400020
400060
400040
400040
400040
400040
4000C0
2000C0
200180
300280
180C80
0FF080
000180
000100
000100
000300
000200
800400
C00C00
603000
1FE000
ENDCHAR
STARTCHAR 0068
ENCODING 104
SWIDTH 517 0
DWIDTH 23 0
BBX 20 33 1 0
BITMAP
020000
020000
020000
060000
040000
040000
040000
040000
040000
0C1F00
0870C0
098060
0B0020
0A0020
0C0030
180030
180030
100030
100020
100020
100020
300020
200060
200060
200040
200040
600040
400040
4000C0
400080
400080
400080
C00080
ENDCHAR
STARTCHAR 0069
ENCODING 105
SWIDTH 180 0
DWIDTH 8 0
BBX 7 32 2 0
BITMAP
06
0E
00
00
00
00
00
00
00
18
18
10
10
10
10
30
30
20
20
20
20
60
40
40
40
40
40
C0
80
80
80
80
ENDCHAR
STARTCHAR 006A
ENCODING 106
SWIDTH 202 0
DWIDTH 9 0
BBX 16 41 -7 -9
BITMAP
0003
0007
0000
0000
0000
0000
0000
0000
0000
0004
000C
0008
0008
0008
0008
0018
0018
0010
0010
0010
0010
0030
0020
0020
0020
0020
0020
0060
0040
0040
0040
0040
0040
00C0
0080
0080
0080
0100
0300
0600
FC00
ENDCHAR
STARTCHAR 006B
ENCODING 107
SWIDTH 450 0
DWIDTH 20 0
BBX 20 33 1 0
BITMAP
020000
020000
020000
060000
040000
040000
040000
040000
040000
0C0000
080070
0800C0
080180
080300
080C00
181800
103000
106000
108000
130000
178000
3C8000
30C000
206000
202000
203000
601800
400800
400C00
400600
400200
400300
C00180
ENDCHAR
STARTCHAR 006C
ENCODING 108
SWIDTH 180 0
DWIDTH 8 0
BBX 6 33 2 0
BITMAP
04
04
04
04
04
0C
08
08
08
08
18
18
10
10
10
10
30
30
20
20
20
20
60
40
40
40
40
40
C0
80
80
80
80
ENDCHAR
STARTCHAR 006D
ENCODING 109
SWIDTH 855 0
DWIDTH 38 0
BBX 35 24 1 0
BITMAP
001F003E00
0861C0E180
09806300C0
0B00260040
1E002C0020
1C00280020
1800300020
1800300020
1000200020
1000200060
3000200040
3000200040
2000200040
2000600040
2000400040
20004000C0
6000400080
4000400080
4000C00080
4000800080
4000800080
4000800180
C000800100
8000800100
ENDCHAR
STARTCHAR 006E
ENCODING 110
SWIDTH 517 0
DWIDTH 23 0
BBX 20 24 1 0
BITMAP
001F00
0870C0
098060
0B0020
0A0020
0C0030
180030
180030
100030
100020
100020
100020
300020
200060
200060
200040
200040
600040
400040
4000C0
400080
400080
400080
C00080
ENDCHAR
STARTCHAR 006F
ENCODING 111
SWIDTH 517 0
DWIDTH 23 0
BBX 21 24 1 0
BITMAP
003E00
01C380
030040
040020
080030
180010
100010
200018
200008
600008
400008
400008
400018
C00010
C00010
C00010
400030
400020
400040
6000C0
200180
100300
1C0600
07F800
ENDCHAR
STARTCHAR 0070
ENCODING 112
SWIDTH 517 0
DWIDTH 23 0
BBX 21 33 0 -9
BITMAP
000F80
0470E0
04C020
050010
060010
0C0008
0C0008
080008
080008
080008
080008
180008
100008
100018
100010
100010
100030
300020
200060
300040
3000C0
280180
260300
63FC00
400000
400000
400000
400000
400000
C00000
800000
800000
800000
ENDCHAR
STARTCHAR 0071
ENCODING 113
SWIDTH 517 0
DWIDTH 23 0
BBX 20 33 2 -9
BITMAP
00F800
038630
0601A0
0C00A0
180060
100060
200020
200060
600040
400040
400040
C00040
C00040
8000C0
800080
800080
800080
800080
800180
400180
400300
600500
301900
1FE100
000100
000300
000200
000200
000200
000200
000600
000600
000400
ENDCHAR
STARTCHAR 0072
ENCODING 114
SWIDTH 315 0
DWIDTH 14 0
BBX 15 24 1 0
BITMAP
003E
08E0
0980
0A00
0E00
0C00
1800
1800
1000
1000
1000
1000
3000
2000
2000
2000
2000
6000
4000
4000
4000
4000
4000
C000
ENDCHAR
STARTCHAR 0073
ENCODING 115
SWIDTH 472 0
DWIDTH 21 0
BBX 18 24 1 0
BITMAP
00FC00
03C700
060180
0800C0
100040
100040
100040
100000
100000
080000
060000
03C000
003800
000E00
000300
000100
000180
000080
800180
800100
C00300
600600
300C00
1FF000
ENDCHAR
STARTCHAR 0074
ENCODING 116
SWIDTH 292 0
DWIDTH 13 0
BBX 11 30 2 0
BITMAP
0200
0200
0600
0600
0400
0400
0400
FFE0
0C00
0C00
0800
0800
0800
0800
1800
1000
1000
1000
1000
1000
3000
2000
2000
2000
2000
2000
2000
2000
2000
1F00
ENDCHAR
STARTCHAR 0075
ENCODING 117
SWIDTH 517 0
DWIDTH 23 0
BBX 19 23 3 0
BITMAP
200060
200060
200040
200040
600040
400040
4000C0
400080
400080
400080
C00080
800080
800180
800100
800100
800100
800100
800300
800700
800600
C01A00
603200
3FC200
ENDCHAR
STARTCHAR 0076
ENCODING 118
SWIDTH 450 0
DWIDTH 20 0
BBX 18 24 3 0
BITMAP
800000
800040
800080
800080
C00100
400300
400200
400600
600400
200C00
200800
201800
201000
302000
102000
104000
104000
188000
098000
090000
0B0000
0A0000
0E0000
040000
ENDCHAR
STARTCHAR 0077
ENCODING 119
SWIDTH 720 0
DWIDTH 32 0
BBX 28 24 4 0
BITMAP
00020000
80060010
800E0030
800A0020
801A0060
80120040
801200C0
C0220080
C0230180
40410100
40410100
40810300
40810200
41010600
41010400
42018C00
62008800
64009800
24009000
2C009000
2800A000
3800A000
3000E000
30004000
ENDCHAR
STARTCHAR 0078
ENCODING 120
SWIDTH 450 0
DWIDTH 20 0
BBX 20 24 0 0
BITMAP
180000
080030
0C0060
040040
060080
020100
030300
010600
008C00
009800
005000
006000
006000
00F000
019000
031800
060800
040C00
080400
100200
300200
600100
C00180
800080
ENDCHAR
STARTCHAR 0079
ENCODING 121
SWIDTH 450 0
DWIDTH 20 0
BBX 23 33 -2 -9
BITMAP
040000
040002
040006
060004
02000C
020008
020010
020010
030020
010060
010040
0100C0
018080
008180
008100
008300
008200
00C600
004400
004800
005800
007000
003000
002000
006000
004000
00C000
008000
018000
030000
020000
040000
F80000
ENDCHAR
STARTCHAR 007A
ENCODING 122
SWIDTH 450 0
DWIDTH 20 0
BBX 20 23 0 0
BITMAP
0FFFF0
000020
000040
000080
000180
000300
000600
000C00
000800
001000
002000
004000
00C000
018000
030000
060000
040000
080000
100000
200000
600000
C00000
FFFF80
ENDCHAR
STARTCHAR 007B
ENCODING 123
SWIDTH 292 0
DWIDTH 13 0
BBX 16 44 1 -10
BITMAP
0001
0007
000C
0010
0020
0060
0040
00C0
0080
0080
0080
0180
0100
0100
0100
0100
0100
0300
0200
0600
0C00
3800
C000
3000
0800
0C00
0400
0400
0400
0400
0C00
0800
0800
0800
0800
0800
0800
0800
0800
0800
0C00
0600
0300
0180
ENDCHAR
STARTCHAR 007C
ENCODING 124
SWIDTH 180 0
DWIDTH 8 0
BBX 7 38 1 -6
BITMAP
02
02
06
04
04
04
04
04
0C
08
08
08
08
08
18
18
10
10
10
10
10
30
20
20
20
20
20
60
60
40
40
40
40
40
C0
80
80
80
ENDCHAR
STARTCHAR 007D
ENCODING 125
SWIDTH 292 0
DWIDTH 13 0
BBX 15 43 -3 -9
BITMAP
0180
00C0
0060
0020
0030
0010
0010
0010
0010
0010
0010
0030
0020
0020
0020
0020
0020
0020
0020
0010
000C
0002
001C
0020
0060
0040
0080
0080
0080
0080
0180
0180
0100
0100
0100
0300
0200
0200
0400
0C00
1800
3000
C000
ENDCHAR
STARTCHAR 007E
ENCODING 126
SWIDTH 652 0
DWIDTH 29 0
BBX 24 7 3 10
BITMAP
070000
1DC003
202002
601006
400804
C00608
8003F0
ENDCHAR
STARTCHAR 00A0
ENCODING 160
SWIDTH 225 0
DWIDTH 10 0
BBX 0 0 0 0
BITMAP
ENDCHAR
STARTCHAR 00A1
ENCODING 161
SWIDTH 180 0
DWIDTH 8 0
BBX 7 32 0 -8
BITMAP
06
06
00
00
00
00
00
00
00
08
08
08
18
10
10
10
10
10
30
20
20
20
20
20
60
40
40
40
40
40
C0
80
ENDCHAR
STARTCHAR 00A2
ENCODING 162
SWIDTH 517 0
DWIDTH 23 0
BBX 19 34 2 -5
BITMAP
000800
000800
000800
000800
000800
007E00
01C300
060080
0C0040
080060
100020
300020
200020
200000
400000
400000
400000
400000
C00000
800000
800000
800000
C00080
400080
400180
600300
200600
180C00
0FF000
010000
010000
010000
010000
010000
ENDCHAR
STARTCHAR 00A3
ENCODING 163
SWIDTH 540 0
DWIDTH 24 0
BBX 24 32 0 0
BITMAP
0003F0
000E1C
001806
003002
002002
004003
004001
00C001
008000
008000
008000
008000
018000
010000
010000
010000
3FFF00
3FFF00
010000
030000
020000
020000
020000
020000
020000
060000
040000
040000
040000
080000
180000
FFFFF0
ENDCHAR
STARTCHAR 00A4
ENCODING 164
SWIDTH 697 0
DWIDTH 31 0
BBX 31 27 0 -1
BITMAP
0401F802
020F9E0C
03180318
01E000F0
00C00060
01800020
03000020
02000030
04000010
0C000010
08000010
08000010
18000010
10000010
10000010
10000010
10000030
10000020
10000060
18000040
080000C0
0C000180
04000300
0E000700
13000D80
61C030C0
C07FC060
ENDCHAR
STARTCHAR 00A5
ENCODING 165
SWIDTH 472 0
DWIDTH 21 0
BBX 23 32 1 0
BITMAP
100002
180006
08000C
080008
0C0010
040030
040020
060040
0200C0
020080
010100
010200
010600
008400
008800
00D800
005000
7FFFE0
7FFFE0
004000
004000
004000
004000
00C000
FFFFC0
008000
008000
008000
008000
018000
010000
010000
ENDCHAR
STARTCHAR 00A6
ENCODING 166
SWIDTH 180 0
DWIDTH 8 0
BBX 8 38 0 -6
BITMAP
01
01
03
02
02
02
02
02
06
04
04
04
04
04
0C
08
08
00
00
00
00
00
10
10
10
30
20
20
20
20
20
60
40
40
40
40
40
C0
ENDCHAR
STARTCHAR 00A7
ENCODING 167
SWIDTH 562 0
DWIDTH 25 0
BBX 24 43 0 -11
BITMAP
000FF0
00381C
00C006
018002
010003
020001
020001
060001
060001
060000
020000
030000
018000
00E000
00F800
030780
0C00E0
180018
10000C
300004
200004
200006
300004
100004
18000C
0E0008
038030
00F1C0
000E00
000380
0000C0
000060
000020
800020
800020
800020
800020
800060
400040
600180
300300
1F7C00
03E000
ENDCHAR
STARTCHAR 00A8
ENCODING 168
SWIDTH 427 0
DWIDTH 19 0
BBX 12 2 6 30
BITMAP
6030
E030
ENDCHAR
STARTCHAR 00A9
ENCODING 169
SWIDTH 787 0
DWIDTH 35 0
BBX 30 32 3 0
BITMAP
0007F800
001C0E00
00600180
01C000C0
03000060
06000030
0C000010
0807E018
100C3008
3018080C
20200804
60600C04
40400C04
40400C04
C0C00004
80800004
80800004
8080000C
80800008
80801808
80801018
80803010
C0402030
40604020
403F8060
600000C0
20000180
10000300
18000600
0C001C00
03007000
00FFC000
ENDCHAR
STARTCHAR 00AA
ENCODING 170
SWIDTH 405 0
DWIDTH 18 0
BBX 12 17 5 15
BITMAP
07C0
1C60
3010
6010
4010
0010
0010
03F0
1FF0
6030
C020
8020
8020
8060
80A0
E320
3E20
ENDCHAR
STARTCHAR 00AB
ENCODING 171
SWIDTH 427 0
DWIDTH 19 0
BBX 15 17 3 3
BITMAP
0186
030C
0618
0C30
1860
1040
2080
4100
8200
C300
4100
6180
30C0
1040
1860
0820
0C30
ENDCHAR
STARTCHAR 00AC
ENCODING 172
SWIDTH 517 0
DWIDTH 23 0
BBX 17 7 3 9
BITMAP
FFFF80
000180
000100
000100
000100
000100
000100
ENDCHAR
STARTCHAR 00AD
ENCODING 173
SWIDTH 270 0
DWIDTH 12 0
BBX 9 1 2 14
BITMAP
FF80
ENDCHAR
STARTCHAR 00AE
ENCODING 174
SWIDTH 787 0
DWIDTH 35 0
BBX 30 32 3 0
BITMAP
0007F800
001C0E00
00600180
018000C0
03000060
06000030
0C000010
181FE018
10101808
30100808
2010040C
40100404
40300C04
C0300804
80201804
80203004
803FC00C
8020600C
80203008
80601008
80401018
80401010
80403030
C0403020
40403040
600000C0
20000180
30000300
18000600
0C001C00
03007000
01FFC000
ENDCHAR
STARTCHAR 00AF
ENCODING 175
SWIDTH 382 0
DWIDTH 17 0
BBX 12 1 5 30
BITMAP
FFF0
ENDCHAR
STARTCHAR 00B0
ENCODING 176
SWIDTH 360 0
DWIDTH 16 0
BBX 10 10 6 22
BITMAP
1E00
3180
4080
C0C0
80C0
80C0
8080
8180
C300
7E00
ENDCHAR
STARTCHAR 00B1
ENCODING 177
SWIDTH 495 0
DWIDTH 22 0
BBX 20 27 1 0
BITMAP
000800
000800
000800
001800
001000
001000
001000
001000
001000
001000
7FFFF0
002000
002000
002000
002000
002000
006000
004000
004000
004000
004000
000000
000000
000000
000000
000000
FFFF80
ENDCHAR
STARTCHAR 00B2
ENCODING 178
SWIDTH 337 0
DWIDTH 15 0
BBX 12 18 3 14
BITMAP
0380
0C60
1010
2010
6010
0010
0030
0020
0040
0080
0100
0600
0C00
1800
3000
4000
8000
FFE0
ENDCHAR
STARTCHAR 00B3
ENCODING 179
SWIDTH 337 0
DWIDTH 15 0
BBX 13 18 3 14
BITMAP
03C0
0C60
1010
2010
2018
0010
0010
0060
0F80
01C0
0020
0020
0030
8020
8020
C040
6180
1E00
ENDCHAR
STARTCHAR 00B4
ENCODING 180
SWIDTH 225 0
DWIDTH 10 0
BBX 6 5 5 28
BITMAP
0C
18
30
20
C0
ENDCHAR
STARTCHAR 00B5
ENCODING 181
SWIDTH 517 0
DWIDTH 23 0
BBX 22 32 0 -9
BITMAP
040004
04000C
040008
040008
040008
080008
080018
080018
080010
080010
180010
100010
100030
100020
100020
100020
300060
300060
3000E0
3001C0
280340
2C0640
63F840
400000
400000
400000
400000
400000
C00000
800000
800000
800000
ENDCHAR
STARTCHAR 00B6
ENCODING 182
SWIDTH 427 0
DWIDTH 19 0
BBX 16 32 3 0
BITMAP
000F
01FF
03FF
0FFF
1FFF
1FFF
3FFE
7FFE
7FFE
7FFE
7FFE
FFFE
FFFC
FFFC
7FFC
7FFC
7FFC
3FFC
1FF8
0FF8
01F8
0008
0018
0010
0010
0010
0010
0010
0030
0020
0020
0020
ENDCHAR
STARTCHAR 00B7
ENCODING 183
SWIDTH 202 0
DWIDTH 9 0
BBX 3 3 4 14
BITMAP
40
E0
C0
ENDCHAR
STARTCHAR 00B8
ENCODING 184
SWIDTH 225 0
DWIDTH 10 0
BBX 7 9 -2 -9
BITMAP
10
30
3C
06
02
06
04
0C
F0
ENDCHAR
STARTCHAR 00B9
ENCODING 185
SWIDTH 337 0
DWIDTH 15 0
BBX 7 17 5 15
BITMAP
0E
72
82
06
04
04
04
04
04
0C
08
08
08
08
08
18
10
ENDCHAR
STARTCHAR 00BA
ENCODING 186
SWIDTH 427 0
DWIDTH 19 0
BBX 13 17 5 15
BITMAP
07C0
1C30
3010
2008
4008
4008
C008
8008
8008
8018
8010
8010
8030
8020
C040
6180
3F00
ENDCHAR
STARTCHAR 00BB
ENCODING 187
SWIDTH 427 0
DWIDTH 19 0
BBX 14 16 2 4
BITMAP
3040
1860
0820
0C30
0410
0618
020C
0304
030C
0618
0C30
1820
1040
2080
4100
8200
ENDCHAR
STARTCHAR 00BC
ENCODING 188
SWIDTH 697 0
DWIDTH 31 0
BBX 21 32 6 0
BITMAP
020000
1C0000
E40000
040000
040030
040060
0C0040
080080
080100
080300
080600
080400
180800
101800
103000
106010
104030
108050
018090
030110
020330
040620
0C0C20
181820
301020
202020
404060
C0FFF8
800040
000040
000040
000040
ENDCHAR
STARTCHAR 00BD
ENCODING 189
SWIDTH 697 0
DWIDTH 31 0
BBX 23 31 5 1
BITMAP
0E0000
F20000
860000
040030
040060
040040
040080
040180
0C0300
080600
080400
080800
081800
083000
1821FC
104306
10C602
018402
030C02
020002
040004
0C000C
180018
100030
200060
400080
C00100
800200
000C00
001800
001FFC
ENDCHAR
STARTCHAR 00BE
ENCODING 190
SWIDTH 742 0
DWIDTH 33 0
BBX 26 32 4 0
BITMAP
03C00000
0C600000
10100000
20100000
60100180
00100100
00300200
00600600
0F800C00
03C00800
00601000
00203000
00206000
8020C000
80208000
80410080
61830180
1E060280
00040480
00080980
00101100
00303100
00606100
0040C100
00818100
01810300
03020200
0207FFC0
04000200
00000200
00000200
00000600
ENDCHAR
STARTCHAR 00BF
ENCODING 191
SWIDTH 427 0
DWIDTH 19 0
BBX 15 32 0 -8
BITMAP
0018
0018
0000
0000
0000
0000
0000
0000
0000
0020
0020
0040
0040
0080
0100
0200
0C00
1800
1000
2000
6000
4000
C000
8000
8002
8006
8004
800C
8008
4010
2060
1FC0
ENDCHAR
STARTCHAR 00C0
ENCODING 192
SWIDTH 562 0
DWIDTH 25 0
BBX 24 40 -1 0
BITMAP
000300
000100
000080
000080
000040
000040
000000
000000
0000C0
0000C0
0001C0
000140
000260
000220
000420
000420
000820
001820
001030
003010
002010
006010
004010
00C018
008008
010008
010008
020008
02000C
07FFFC
07FFFC
080004
180004
100006
300002
200002
600002
400002
C00003
800003
ENDCHAR
STARTCHAR 00C1
ENCODING 193
SWIDTH 562 0
DWIDTH 25 0
BBX 24 40 -1 0
BITMAP
000006
00000C
000018
000030
000020
000040
000000
000000
0000C0
0000C0
0001C0
000140
000260
000220
000420
000420
000820
001820
001030
003010
002010
006010
004010
00C018
008008
010008
010008
020008
02000C
07FFFC
07FFFC
080004
180004
100006
300002
200002
600002
400002
C00003
800003
ENDCHAR
STARTCHAR 00C2
ENCODING 194
SWIDTH 562 0
DWIDTH 25 0
BBX 24 40 -1 0
BITMAP
000020
000070
000198
00030C
000604
000C06
000000
000000
0000C0
0000C0
0001C0
000140
000260
000220
000420
000420
000820
001820
001030
003010
002010
006010
004010
00C018
008008
010008
010008
020008
02000C
07FFFC
07FFFC
080004
180004
100006
300002
200002
600002
400002
C00003
800003
ENDCHAR
STARTCHAR 00C3
ENCODING 195
SWIDTH 562 0
DWIDTH 25 0
BBX 25 39 -1 0
BITMAP
00078080
000C4180
00083300
00101E00
00000000
00000000
00000000
0000C000
0000C000
0001C000
00014000
00026000
00022000
00042000
00042000
00082000
00182000
00103000
00301000
00201000
00601000
00401000
00C01800
00800800
01000800
01000800
02000800
02000C00
07FFFC00
07FFFC00
08000400
18000400
10000600
30000200
20000200
60000200
40000200
C0000300
80000300
ENDCHAR
STARTCHAR 00C4
ENCODING 196
SWIDTH 562 0
DWIDTH 25 0
BBX 24 39 -1 0
BITMAP
000403
000E03
000000
000000
000000
000000
000000
0000C0
0000C0
0001C0
000140
000260
000220
000420
000420
000820
001820
001030
003010
002010
006010
004010
00C018
008008
010008
010008
020008
02000C
07FFFC
07FFFC
080004
180004
100006
300002
200002
600002
400002
C00003
800003
ENDCHAR
STARTCHAR 00C5
ENCODING 197
SWIDTH 562 0
DWIDTH 25 0
BBX 24 41 -1 0
BITMAP
000030
0000F8
00010C
000104
00030C
000308
0001B0
0000E0
000000
0000C0
0000C0
0001C0
000140
000260
000220
000420
000420
000820
001820
001030
003010
002010
006010
004010
00C018
008008
010008
010008
020008
02000C
07FFFC
07FFFC
080004
180004
100006
300002
200002
600002
400002
C00003
800003
ENDCHAR
STARTCHAR 00C6
ENCODING 198
SWIDTH 855 0
DWIDTH 38 0
BBX 40 32 -1 0
BITMAP
000000FFFF
000001FFFF
0000038000
0000068000
0000048000
0000088000
0000198000
0000318000
0000210000
0000410000
0000C10000
0001810000
0001010000
0002010000
0006030000
000C03FFF0
0008020000
0010020000
0020020000
0060020000
00C0020000
0080020000
01FFFE0000
0300040000
0600040000
0400040000
0800040000
1800040000
3000040000
20000C0000
40000C0000
C0000FFFF0
ENDCHAR
STARTCHAR 00C7
ENCODING 199
SWIDTH 607 0
DWIDTH 27 0
BBX 24 42 3 -10
BITMAP
001FC0
007070
018018
030004
060006
0C0002
080002
100003
100003
200003
200000
600000
400000
400000
400000
400000
C00000
800000
800000
800000
800000
800000
800008
800008
800018
C00010
400030
400020
200040
300180
180700
07FC00
008000
008000
00E000
003000
001000
001000
001000
002000
03C000
060000
ENDCHAR
STARTCHAR 00C8
ENCODING 200
SWIDTH 540 0
DWIDTH 24 0
BBX 24 40 2 0
BITMAP
000800
000C00
000400
000600
000200
000300
000000
000000
07FFFF
07FFFF
040000
040000
040000
040000
0C0000
080000
080000
080000
080000
180000
180000
100000
100000
1FFFE0
100000
300000
200000
200000
200000
200000
200000
600000
400000
400000
400000
400000
400000
C00000
800000
FFFFE0
ENDCHAR
STARTCHAR 00C9
ENCODING 201
SWIDTH 540 0
DWIDTH 24 0
BBX 24 40 2 0
BITMAP
000030
000060
0000C0
000080
000100
000200
000000
000000
07FFFF
07FFFF
040000
040000
040000
040000
0C0000
080000
080000
080000
080000
180000
180000
100000
100000
1FFFE0
100000
300000
200000
200000
200000
200000
200000
600000
400000
400000
400000
400000
400000
C00000
800000
FFFFE0
ENDCHAR
STARTCHAR 00CA
ENCODING 202
SWIDTH 540 0
DWIDTH 24 0
BBX 24 40 2 0
BITMAP
000100
000280
0004C0
001860
003020
006010
000000
000000
07FFFF
07FFFF
040000
040000
040000
040000
0C0000
080000
080000
080000
080000
180000
180000
100000
100000
1FFFE0
100000
300000
200000
200000
200000
200000
200000
600000
400000
400000
400000
400000
400000
C00000
800000
FFFFE0
ENDCHAR
STARTCHAR 00CB
ENCODING 203
SWIDTH 540 0
DWIDTH 24 0
BBX 24 39 2 0
BITMAP
003018
007018
000000
000000
000000
000000
000000
07FFFF
07FFFF
040000
040000
040000
040000
0C0000
080000
080000
080000
080000
180000
180000
100000
100000
1FFFE0
100000
300000
200000
200000
200000
200000
200000
600000
400000
400000
400000
400000
400000
C00000
800000
FFFFE0
ENDCHAR
STARTCHAR 00CC
ENCODING 204
SWIDTH 247 0
DWIDTH 11 0
BBX 7 40 3 0
BITMAP
18
08
0C
04
06
02
00
00
04
04
04
04
04
0C
08
08
08
08
18
18
10
10
10
10
30
20
20
20
20
20
60
40
40
40
40
40
C0
80
80
80
ENDCHAR
STARTCHAR 00CD
ENCODING 205
SWIDTH 247 0
DWIDTH 11 0
BBX 11 40 3 0
BITMAP
0020
0040
0080
0180
0300
0200
0000
0000
0400
0400
0400
0400
0400
0C00
0800
0800
0800
0800
1800
1800
1000
1000
1000
1000
3000
2000
2000
2000
2000
2000
6000
4000
4000
4000
4000
4000
C000
8000
8000
8000
ENDCHAR
STARTCHAR 00CE
ENCODING 206
SWIDTH 247 0
DWIDTH 11 0
BBX 12 40 3 0
BITMAP
0300
0780
0C80
1840
3060
6030
0000
0000
0400
0400
0400
0400
0400
0C00
0800
0800
0800
0800
1800
1800
1000
1000
1000
1000
3000
2000
2000
2000
2000
2000
6000
4000
4000
4000
4000
4000
C000
8000
8000
8000
ENDCHAR
STARTCHAR 00CF
ENCODING 207
SWIDTH 247 0
DWIDTH 11 0
BBX 13 39 3 0
BITMAP
6018
6038
0000
0000
0000
0000
0000
0400
0400
0400
0400
0400
0C00
0800
0800
0800
0800
1800
1800
1000
1000
1000
1000
3000
2000
2000
2000
2000
2000
6000
4000
4000
4000
4000
4000
C000
8000
8000
8000
ENDCHAR
STARTCHAR 00D0
ENCODING 208
SWIDTH 630 0
DWIDTH 28 0
BBX 25 32 2 0
BITMAP
03FE0000
03FFE000
02001800
02000C00
06000600
04000200
04000100
04000100
04000180
0C000080
08000080
08000080
08000080
08000080
08000080
FFF80180
FFF80100
10000100
10000100
10000100
10000300
30000200
20000600
20000400
20000C00
20000800
20001000
60002000
4000C000
40018000
400E0000
7FF80000
ENDCHAR
STARTCHAR 00D1
ENCODING 209
SWIDTH 675 0
DWIDTH 30 0
BBX 28 39 2 0
BITMAP
00078100
0008C100
00102600
00101C00
00000000
00000000
00000000
06000030
06000020
07000020
05000020
05800020
0C800060
0CC00040
08400040
08600040
08200040
08300040
181000C0
18180080
10080080
100C0080
10040080
10060080
30020180
20030100
20010100
20018100
20008100
2000C300
60004300
40006200
40002200
40002200
40001200
40001600
C0000E00
80000C00
80000400
ENDCHAR
STARTCHAR 00D2
ENCODING 210
SWIDTH 630 0
DWIDTH 28 0
BBX 24 41 3 0
BITMAP
000800
000800
000400
000600
000200
000300
000000
000000
000000
001FC0
007070
018018
03000C
060006
0C0002
180002
100001
300001
200001
200001
400001
400001
400001
400001
C00003
800002
800002
800002
800002
800006
800004
800004
800008
800008
800010
C00030
400020
600040
300180
180700
07FC00
ENDCHAR
STARTCHAR 00D3
ENCODING 211
SWIDTH 630 0
DWIDTH 28 0
BBX 24 41 3 0
BITMAP
000010
000020
000060
0000C0
000180
000100
000000
000000
000000
001FC0
007070
018018
03000C
060006
0C0002
180002
100001
300001
200001
200001
400001
400001
400001
400001
C00003
800002
800002
800002
800002
800006
800004
800004
800008
800008
800010
C00030
400020
600040
300180
180700
07FC00
ENDCHAR
STARTCHAR 00D4
ENCODING 212
SWIDTH 630 0
DWIDTH 28 0
BBX 24 40 3 0
BITMAP
000180
0006C0
000C60
001820
003030
000000
000000
000000
001FC0
007070
018018
03000C
060006
0C0002
180002
100001
300001
200001
200001
400001
400001
400001
400001
C00003
800002
800002
800002
800002
800006
800004
800004
800008
800008
800010
C00030
400020
600040
300180
180700
07FC00
ENDCHAR
STARTCHAR 00D5
ENCODING 213
SWIDTH 630 0
DWIDTH 28 0
BBX 24 40 3 0
BITMAP
000006
003E04
00618C
0040F8
000000
000000
000000
000000
001FC0
007070
018018
03000C
060006
0C0002
180002
100001
300001
200001
200001
400001
400001
400001
400001
C00003
800002
800002
800002
800002
800006
800004
800004
800008
800008
800010
C00030
400020
600040
300180
180700
07FC00
ENDCHAR
STARTCHAR 00D6
ENCODING 214
SWIDTH 630 0
DWIDTH 28 0
BBX 24 39 3 0
BITMAP
003018
003018
000000
000000
000000
000000
000000
001FC0
007070
018018
03000C
060006
0C0002
180002
100001
300001
200001
200001
400001
400001
400001
400001
C00003
800002
800002
800002
800002
800006
800004
800004
800008
800008
800010
C00030
400020
600040
300180
180700
07FC00
ENDCHAR
STARTCHAR 00D7
ENCODING 215
SWIDTH 495 0
DWIDTH 22 0
BBX 20 18 0 0
BITMAP
080010
080020
0400C0
060180
030300
018600
008C00
005800
006000
007000
019800
030800
060400
0C0600
180300
300100
400080
800080
ENDCHAR
STARTCHAR 00D8
ENCODING 216
SWIDTH 630 0
DWIDTH 28 0
BBX 28 34 1 -2
BITMAP
0007F030
001C1C60
00600640
00C00380
01800180
03000380
06000280
04000440
0C000840
08001840
08003040
10002040
10004040
1000C040
10018040
300300C0
20020080
20040080
200C0080
20180080
20300180
20200100
20400100
20C00200
21800200
21000400
32000C00
14000800
1C001000
1C006000
1601C000
21FF0000
60000000
C0000000
ENDCHAR
STARTCHAR 00D9
ENCODING 217
SWIDTH 630 0
DWIDTH 28 0
BBX 25 40 3 0
BITMAP
000C0000
00040000
00060000
00020000
00010000
00010000
00000000
00000000
08000080
08000080
08000080
08000180
18000100
10000100
10000100
10000100
10000300
10000300
30000200
20000200
20000200
20000200
20000600
60000400
40000400
40000400
40000400
40000400
40000C00
C0000800
80000800
80000800
80001800
C0001000
40003000
40006000
6000C000
30018000
18070000
07FC0000
ENDCHAR
STARTCHAR 00DA
ENCODING 218
SWIDTH 630 0
DWIDTH 28 0
BBX 25 40 3 0
BITMAP
00001000
00002000
00006000
0000C000
00018000
00010000
00000000
00000000
08000080
08000080
08000080
08000180
18000100
10000100
10000100
10000100
10000300
10000300
30000200
20000200
20000200
20000200
20000600
60000400
40000400
40000400
40000400
40000400
40000C00
C0000800
80000800
80000800
80001800
C0001000
40003000
40006000
6000C000
30018000
18070000
07FC0000
ENDCHAR
STARTCHAR 00DB
ENCODING 219
SWIDTH 630 0
DWIDTH 28 0
BBX 25 40 3 0
BITMAP
00018000
0003C000
00066000
000C2000
00183000
00301800
00000000
00000000
08000080
08000080
08000080
08000180
18000100
10000100
10000100
10000100
10000300
10000300
30000200
20000200
20000200
20000200
20000600
60000400
40000400
40000400
40000400
40000400
40000C00
C0000800
80000800
80000800
80001800
C0001000
40003000
40006000
6000C000
30018000
18070000
07FC0000
ENDCHAR
STARTCHAR 00DC
ENCODING 220
SWIDTH 630 0
DWIDTH 28 0
BBX 25 39 3 0
BITMAP
00300C00
00301C00
00000000
00000000
00000000
00000000
00000000
08000080
08000080
08000080
08000180
18000100
10000100
10000100
10000100
10000300
10000300
30000200
20000200
20000200
20000200
20000600
60000400
40000400
40000400
40000400
40000400
40000C00
C0000800
80000800
80000800
80001800
C0001000
40003000
40006000
6000C000
30018000
18070000
07FC0000
ENDCHAR
STARTCHAR 00DD
ENCODING 221
SWIDTH 562 0
DWIDTH 25 0
BBX 24 40 4 0
BITMAP
0000C0
000180
000300
000600
000400
000800
000000
000000
800001
C00002
400006
60000C
200008
200010
300030
100060
180040
080080
080180
040300
040200
060400
020C00
021800
011000
012000
00C000
00C000
008000
008000
008000
018000
010000
010000
010000
010000
010000
030000
020000
020000
ENDCHAR
STARTCHAR 00DE
ENCODING 222
SWIDTH 562 0
DWIDTH 25 0
BBX 21 32 2 0
BITMAP
060000
040000
040000
040000
040000
040000
0C0000
0FFF00
0803C0
080060
080010
180018
180008
100008
100008
100008
100008
300008
200010
200010
200020
200040
200180
601F00
7FF000
400000
400000
400000
400000
C00000
800000
800000
ENDCHAR
STARTCHAR 00DF
ENCODING 223
SWIDTH 540 0
DWIDTH 24 0
BBX 20 33 1 0
BITMAP
007F00
00C180
0180C0
030040
020040
040040
040040
040040
0C0080
080080
080100
080300
080200
080600
180400
100400
100400
100600
100200
100100
300080
200040
200020
200010
200010
600010
600010
400010
400030
400020
4000C0
C60180
81FE00
ENDCHAR
STARTCHAR 00E0
ENCODING 224
SWIDTH 495 0
DWIDTH 22 0
BBX 19 33 1 0
BITMAP
001000
001000
000800
000C00
000400
000000
000000
000000
000000
007E00
03C380
0600C0
0C0040
180060
100020
300020
000060
000040
000040
000040
01FFC0
0F0040
3800C0
600080
400080
800080
800080
800180
800380
800700
C00D00
603100
3FC100
ENDCHAR
STARTCHAR 00E1
ENCODING 225
SWIDTH 495 0
DWIDTH 22 0
BBX 19 33 1 0
BITMAP
000060
0000C0
000180
000300
000200
000400
000000
000000
000000
007E00
03C380
0600C0
0C0040
180060
100020
300020
000060
000040
000040
000040
01FFC0
0F0040
3800C0
600080
400080
800080
800080
800180
800380
800700
C00D00
603100
3FC100
ENDCHAR
STARTCHAR 00E2
ENCODING 226
SWIDTH 495 0
DWIDTH 22 0
BBX 19 33 1 0
BITMAP
000200
000500
001980
0030C0
006040
00C020
000000
000000
000000
007E00
03C380
0600C0
0C0040
180060
100020
300020
000060
000040
000040
000040
01FFC0
0F0040
3800C0
600080
400080
800080
800080
800180
800380
800700
C00D00
603100
3FC100
ENDCHAR
STARTCHAR 00E3
ENCODING 227
SWIDTH 495 0
DWIDTH 22 0
BBX 21 32 1 0
BITMAP
007808
00C618
008370
0180E0
000000
000000
000000
000000
007E00
03C380
0600C0
0C0040
180060
100020
300020
000060
000040
000040
000040
01FFC0
0F0040
3800C0
600080
400080
800080
800080
800180
800380
800700
C00D00
603100
3FC100
ENDCHAR
STARTCHAR 00E4
ENCODING 228
SWIDTH 495 0
DWIDTH 22 0
BBX 20 32 1 0
BITMAP
006030
00E030
000000
000000
000000
000000
000000
000000
007E00
03C380
0600C0
0C0040
180060
100020
300020
000060
000040
000040
000040
01FFC0
0F0040
3800C0
600080
400080
800080
800080
800180
800380
800700
C00D00
603100
3FC100
ENDCHAR
STARTCHAR 00E5
ENCODING 229
SWIDTH 495 0
DWIDTH 22 0
BBX 19 34 1 0
BITMAP
000700
000D80
0010C0
001040
0030C0
001080
001B00
000E00
000000
000000
007E00
03C380
0600C0
0C0040
180060
100020
300020
000060
000040
000040
000040
01FFC0
0F0040
3800C0
600080
400080
800080
800080
800180
800380
800700
C00D00
603100
3FC100
ENDCHAR
STARTCHAR 00E6
ENCODING 230
SWIDTH 810 0
DWIDTH 36 0
BBX 34 24 1 0
BITMAP
007C00FC00
03C7038700
0601860180
0C008C0080
1800D800C0
1000700040
3000600040
0000600040
0000400040
0000C00040
007FFFFFC0
07FF800000
1800800000
3000800000
6001800000
C001800000
8001800000
8001800000
8001800000
8003800000
8002400000
C00C600600
6038301C00
3FE01FF000
ENDCHAR
STARTCHAR 00E7
ENCODING 231
SWIDTH 472 0
DWIDTH 21 0
BBX 18 34 2 -10
BITMAP
00FC00
038600
040180
080080
1000C0
300040
200040
400040
400000
C00000
800000
800000
800000
800000
800000
800000
800000
800180
800100
800100
400200
600400
301800
1FF000
010000
030000
038000
004000
006000
006000
004000
00C000
078000
0C0000
ENDCHAR
STARTCHAR 00E8
ENCODING 232
SWIDTH 472 0
DWIDTH 21 0
BBX 19 33 1 0
BITMAP
002000
001000
001800
000800
000C00
000400
000000
000000
000000
007E00
01C700
030080
040040
080060
100020
100020
200020
200020
400020
7FFFE0
400000
400000
C00000
C00000
C00000
400000
400000
400000
600000
200080
100300
1C0600
07F800
ENDCHAR
STARTCHAR 00E9
ENCODING 233
SWIDTH 472 0
DWIDTH 21 0
BBX 19 33 1 0
BITMAP
000040
000080
000100
000200
000600
000000
000000
000000
000000
007E00
01C700
030080
040040
080060
100020
100020
200020
200020
400020
7FFFE0
400000
400000
C00000
C00000
C00000
400000
400000
400000
600000
200080
100300
1C0600
07F800
ENDCHAR
STARTCHAR 00EA
ENCODING 234
SWIDTH 472 0
DWIDTH 21 0
BBX 19 33 1 0
BITMAP
000600
000F00
001900
003080
0060C0
008060
000000
000000
000000
007E00
01C700
030080
040040
080060
100020
100020
200020
200020
400020
7FFFE0
400000
400000
C00000
C00000
C00000
400000
400000
400000
600000
200080
100300
1C0600
07F800
ENDCHAR
STARTCHAR 00EB
ENCODING 235
SWIDTH 472 0
DWIDTH 21 0
BBX 20 32 1 0
BITMAP
00C020
00C070
000000
000000
000000
000000
000000
000000
007E00
01C700
030080
040040
080060
100020
100020
200020
200020
400020
7FFFE0
400000
400000
C00000
C00000
C00000
400000
400000
400000
600000
200080
100300
1C0600
07F800
ENDCHAR
STARTCHAR 00EC
ENCODING 236
SWIDTH 180 0
DWIDTH 8 0
BBX 5 33 2 0
BITMAP
60
20
10
10
08
08
00
00
00
00
18
10
10
10
10
10
30
20
20
20
20
20
60
40
40
40
40
C0
C0
80
80
80
80
ENDCHAR
STARTCHAR 00ED
ENCODING 237
SWIDTH 180 0
DWIDTH 8 0
BBX 10 33 2 0
BITMAP
0040
0080
0100
0200
0600
0C00
0000
0000
0000
0000
1800
1000
1000
1000
1000
1000
3000
2000
2000
2000
2000
2000
6000
4000
4000
4000
4000
C000
C000
8000
8000
8000
8000
ENDCHAR
STARTCHAR 00EE
ENCODING 238
SWIDTH 180 0
DWIDTH 8 0
BBX 10 32 2 0
BITMAP
0E00
1B00
3100
6080
C0C0
0000
0000
0000
0000
1800
1000
1000
1000
1000
1000
3000
2000
2000
2000
2000
2000
6000
4000
4000
4000
4000
C000
C000
8000
8000
8000
8000
ENDCHAR
STARTCHAR 00EF
ENCODING 239
SWIDTH 180 0
DWIDTH 8 0
BBX 11 31 2 1
BITMAP
C060
8060
0000
0000
0000
0000
0000
0000
1800
1000
1000
1000
1000
1000
3000
2000
2000
2000
2000
2000
6000
4000
4000
4000
4000
C000
C000
8000
8000
8000
8000
ENDCHAR
STARTCHAR 00F0
ENCODING 240
SWIDTH 540 0
DWIDTH 24 0
BBX 21 34 3 0
BITMAP
00C000
007000
001808
000C38
0006E0
000380
000F80
003880
002040
000040
000060
000020
000020
007820
03FF20
0601A0
0800E0
100060
300020
600020
400020
400020
C00060
800040
800040
800040
8000C0
800080
C00180
400100
600200
200400
181800
0FF000
ENDCHAR
STARTCHAR 00F1
ENCODING 241
SWIDTH 517 0
DWIDTH 23 0
BBX 21 32 1 0
BITMAP
007808
00C618
008330
0180E0
000000
000000
000000
000000
001F00
0870C0
098060
0B0020
0A0020
0C0030
180030
180030
100030
100020
100020
100020
300020
200060
200060
200040
200040
600040
400040
4000C0
400080
400080
400080
C00080
ENDCHAR
STARTCHAR 00F2
ENCODING 242
SWIDTH 517 0
DWIDTH 23 0
BBX 21 33 1 0
BITMAP
002000
001000
001000
000800
000C00
000400
000000
000000
000000
003E00
01C380
030040
040020
080030
180010
100010
200018
200008
600008
400008
400008
400018
C00010
C00010
C00010
400030
400020
400040
6000C0
200180
100300
1C0600
07F800
ENDCHAR
STARTCHAR 00F3
ENCODING 243
SWIDTH 517 0
DWIDTH 23 0
BBX 21 33 1 0
BITMAP
000040
000080
000100
000200
000600
000000
000000
000000
000000
003E00
01C380
030040
040020
080030
180010
100010
200018
200008
600008
400008
400008
400018
C00010
C00010
C00010
400030
400020
400040
6000C0
200180
100300
1C0600
07F800
ENDCHAR
STARTCHAR 00F4
ENCODING 244
SWIDTH 517 0
DWIDTH 23 0
BBX 21 33 1 0
BITMAP
000600
000F00
001900
003080
0060C0
008060
000000
000000
000000
003E00
01C380
030040
040020
080030
180010
100010
200018
200008
600008
400008
400008
400018
C00010
C00010
C00010
400030
400020
400040
6000C0
200180
100300
1C0600
07F800
ENDCHAR
STARTCHAR 00F5
ENCODING 245
SWIDTH 517 0
DWIDTH 23 0
BBX 21 32 1 0
BITMAP
007818
00CC10
018370
0101C0
000000
000000
000000
000000
003E00
01C380
030040
040020
080030
180010
100010
200018
200008
600008
400008
400008
400018
C00010
C00010
C00010
400030
400020
400040
6000C0
200180
100300
1C0600
07F800
ENDCHAR
STARTCHAR 00F6
ENCODING 246
SWIDTH 517 0
DWIDTH 23 0
BBX 21 32 1 0
BITMAP
00C020
00C070
000000
000000
000000
000000
000000
000000
003E00
01C380
030040
040020
080030
180010
100010
200018
200008
600008
400008
400008
400018
C00010
C00010
C00010
400030
400020
400040
6000C0
200180
100300
1C0600
07F800
ENDCHAR
STARTCHAR 00F7
ENCODING 247
SWIDTH 540 0
DWIDTH 24 0
BBX 21 19 2 5
BITMAP
000800
001800
001800
000000
000000
000000
000000
000000
000000
FFFFF8
000000
000000
000000
000000
000000
000000
000000
004000
00C000
ENDCHAR
STARTCHAR 00F8
ENCODING 248
SWIDTH 517 0
DWIDTH 23 0
BBX 21 29 1 -3
BITMAP
000010
000030
003E20
01E1C0
0300C0
0600A0
0C0130
180310
100210
200618
200408
400808
401808
401008
402018
C06010
C04010
C08030
C18020
410020
420040
4600C0
240180
3C0300
180E00
17F800
300000
200000
400000
ENDCHAR
STARTCHAR 00F9
ENCODING 249
SWIDTH 517 0
DWIDTH 23 0
BBX 19 33 3 0
BITMAP
004000
006000
002000
003000
001000
000000
000000
000000
000000
000000
200060
200060
200040
200040
600040
400040
4000C0
400080
400080
400080
C00080
800080
800180
800100
800100
800100
800100
800300
800700
800600
C01A00
603200
3FC200
ENDCHAR
STARTCHAR 00FA
ENCODING 250
SWIDTH 517 0
DWIDTH 23 0
BBX 19 33 3 0
BITMAP
000180
000300
000600
000C00
000800
001000
000000
000000
000000
000000
200060
200060
200040
200040
600040
400040
4000C0
400080
400080
400080
C00080
800080
800180
800100
800100
800100
800100
800300
800700
800600
C01A00
603200
3FC200
ENDCHAR
STARTCHAR 00FB
ENCODING 251
SWIDTH 517 0
DWIDTH 23 0
BBX 19 33 3 0
BITMAP
000800
001400
006600
00C300
018100
030080
000000
000000
000000
000000
200060
200060
200040
200040
600040
400040
4000C0
400080
400080
400080
C00080
800080
800180
800100
800100
800100
800100
800300
800700
800600
C01A00
603200
3FC200
ENDCHAR
STARTCHAR 00FC
ENCODING 252
SWIDTH 517 0
DWIDTH 23 0
BBX 19 32 3 0
BITMAP
0180C0
0380C0
000000
000000
000000
000000
000000
000000
000000
200060
200060
200040
200040
600040
400040
4000C0
400080
400080
400080
C00080
800080
800180
800100
800100
800100
800100
800300
800700
800600
C01A00
603200
3FC200
ENDCHAR
STARTCHAR 00FD
ENCODING 253
SWIDTH 450 0
DWIDTH 20 0
BBX 23 42 -2 -9
BITMAP
000010
000020
000040
0000C0
000180
000000
000000
000000
000000
040000
040002
040006
060004
02000C
020008
020010
020010
030020
010060
010040
0100C0
018080
008180
008100
008300
008200
00C600
004400
004800
005800
007000
003000
002000
006000
004000
00C000
008000
018000
030000
020000
040000
F80000
ENDCHAR
STARTCHAR 00FE
ENCODING 254
SWIDTH 517 0
DWIDTH 23 0
BBX 21 42 0 -9
BITMAP
010000
010000
010000
030000
020000
020000
020000
020000
020000
060F80
0470E0
04C020
050010
060010
040008
0C0008
080008
080008
080008
080008
180008
100008
100018
100010
100010
100030
300020
200060
300040
3000C0
280180
260300
63FC00
400000
400000
400000
400000
400000
C00000
800000
800000
800000
ENDCHAR
STARTCHAR 00FF
ENCODING 255
SWIDTH 450 0
DWIDTH 20 0
BBX 23 41 -2 -9
BITMAP
00300C
00300C
000000
000000
000000
000000
000000
000000
040000
040002
040006
060004
02000C
020008
020010
020010
030020
010060
010040
0100C0
018080
008180
008100
008300
008200
00C600
004400
004800
005800
007000
003000
002000
006000
004000
00C000
008000
018000
030000
020000
040000
F80000
ENDCHAR
STARTCHAR 0100
ENCODING 256
SWIDTH 562 0
DWIDTH 25 0
BBX 24 38 -1 0
BITMAP
000FFF
000000
000000
000000
000000
000000
0000C0
0000C0
0001C0
000140
000260
000220
000420
000420
000820
001820
001030
003010
002010
006010
004010
00C018
008008
010008
010008
020008
02000C
07FFFC
07FFFC
080004
180004
100006
300002
200002
600002
400002
C00003
800003
ENDCHAR
STARTCHAR 0101
ENCODING 257
SWIDTH 495 0
DWIDTH 22 0
BBX 20 31 1 0
BITMAP
00FFF0
000000
000000
000000
000000
000000
000000
007E00
03C380
0600C0
0C0040
180060
100020
300020
000060
000040
000040
000040
01FFC0
0F0040
3800C0
600080
400080
800080
800080
800180
800380
800700
C00D00
603100
3FC100
ENDCHAR
STARTCHAR 0102
ENCODING 258
SWIDTH 562 0
DWIDTH 25 0
BBX 24 39 -1 0
BITMAP
000C01
000C03
000406
00070C
0001F8
000000
000000
0000C0
0000C0
0001C0
000140
000260
000220
000420
000420
000820
001820
001030
003010
002010
006010
004010
00C018
008008
010008
010008
020008
02000C
07FFFC
07FFFC
080004
180004
100006
300002
200002
600002
400002
C00003
800003
ENDCHAR
STARTCHAR 0103
ENCODING 259
SWIDTH 495 0
DWIDTH 22 0
BBX 20 32 1 0
BITMAP
00C010
004030
004060
0030C0
001F80
000000
000000
000000
007E00
03C380
0600C0
0C0040
180060
100020
300020
000060
000040
000040
000040
01FFC0
0F0040
3800C0
600080
400080
800080
800080
800180
800380
800700
C00D00
603100
3FC100
ENDCHAR
STARTCHAR 0104
ENCODING 260
SWIDTH 562 0
DWIDTH 25 0
BBX 24 41 -1 -9
BITMAP
0000C0
0000C0
0001C0
000140
000260
000220
000420
000420
000820
001820
001030
003010
002010
006010
004010
00C018
008008
010008
010008
020008
02000C
07FFFC
07FFFC
080004
180004
100006
300002
200002
600002
400002
C00003
800003
000002
00000C
000018
000030
000020
000020
000020
00003E
000008
ENDCHAR
STARTCHAR 0105
ENCODING 261
SWIDTH 495 0
DWIDTH 22 0
BBX 19 33 1 -9
BITMAP
007E00
03C380
0600C0
0C0040
180060
100020
300020
000060
000040
000040
000040
01FFC0
0F0040
3800C0
600080
400080
800080
800080
800180
800380
800700
C00D00
603100
3FC100
000300
000400
000800
001000
001000
003000
003000
001F00
000400
ENDCHAR
STARTCHAR 0106
ENCODING 262
SWIDTH 607 0
DWIDTH 27 0
BBX 24 41 3 0
BITMAP
000010
000030
000060
0000C0
000180
000100
000000
000000
000000
001FC0
007070
018018
030004
060006
0C0002
080002
100003
100003
200003
200000
600000
400000
400000
400000
400000
C00000
800000
800000
800000
800000
800000
800008
800008
800018
C00010
400030
400020
200040
300180
180700
07FC00
ENDCHAR
STARTCHAR 0107
ENCODING 263
SWIDTH 472 0
DWIDTH 21 0
BBX 18 33 2 0
BITMAP
000180
000300
000600
000400
000800
001000
000000
000000
000000
00FC00
038600
040180
080080
1000C0
300040
200040
400040
400000
C00000
800000
800000
800000
800000
800000
800000
800000
800180
800100
800100
400200
600400
301800
1FF000
ENDCHAR
STARTCHAR 0108
ENCODING 264
SWIDTH 607 0
DWIDTH 27 0
BBX 24 40 3 0
BITMAP
000180
0006C0
000C60
001820
003030
000000
000000
000000
001FC0
007070
018018
030004
060006
0C0002
080002
100003
100003
200003
200000
600000
400000
400000
400000
400000
C00000
800000
800000
800000
800000
800000
800008
800008
800018
C00010
400030
400020
200040
300180
180700
07FC00
ENDCHAR
STARTCHAR 0109
ENCODING 265
SWIDTH 472 0
DWIDTH 21 0
BBX 18 33 2 0
BITMAP
000800
001400
002600
00C300
018100
030080
000000
000000
000000
00FC00
038600
040180
080080
1000C0
300040
200040
400040
400000
C00000
800000
800000
800000
800000
800000
800000
800000
800180
800100
800100
400200
600400
301800
1FF000
ENDCHAR
STARTCHAR 010A
ENCODING 266
SWIDTH 607 0
DWIDTH 27 0
BBX 24 39 3 0
BITMAP
000180
000380
000000
000000
000000
000000
000000
001FC0
007070
018018
030004
060006
0C0002
080002
100003
100003
200003
200000
600000
400000
400000
400000
400000
C00000
800000
800000
800000
800000
800000
800008
800008
800018
C00010
400030
400020
200040
300180
180700
07FC00
ENDCHAR
STARTCHAR 010B
ENCODING 267
SWIDTH 472 0
DWIDTH 21 0
BBX 18 31 2 0
BITMAP
001800
001800
000000
000000
000000
000000
000000
00FC00
038600
040180
080080
1000C0
300040
200040
400040
400000
C00000
800000
800000
800000
800000
800000
800000
800000
800180
800100
800100
400200
600400
301800
1FF000
ENDCHAR
STARTCHAR 010C
ENCODING 268
SWIDTH 607 0
DWIDTH 27 0
BBX 24 40 3 0
BITMAP
001018
000830
000C60
0004C0
000380
000300
000000
000000
001FC0
007070
018018
030004
060006
0C0002
080002
100003
100003
200003
200000
600000
400000
400000
400000
400000
C00000
800000
800000
800000
800000
800000
800008
800008
800018
C00010
400030
400020
200040
300180
180700
07FC00
ENDCHAR
STARTCHAR 010D
ENCODING 269
SWIDTH 472 0
DWIDTH 21 0
BBX 18 33 2 0
BITMAP
0180C0
008180
004300
006600
002C00
001800
000000
000000
000000
00FC00
038600
040180
080080
1000C0
300040
200040
400040
400000
C00000
800000
800000
800000
800000
800000
800000
800000
800180
800100
800100
400200
600400
301800
1FF000
ENDCHAR
STARTCHAR 010E
ENCODING 270
SWIDTH 630 0
DWIDTH 28 0
BBX 24 40 2 0
BITMAP
002010
003020
001040
000880
000D00
000600
000000
000000
07FE00
07FFE0
040030
040008
040004
040006
0C0002
080003
080001
080001
080001
180001
180001
100001
100001
100001
100001
300003
200002
200002
200002
200006
200004
60000C
400008
400010
400030
400060
4000C0
C00300
801E00
FFF000
ENDCHAR
STARTCHAR 010F
ENCODING 271
SWIDTH 585 0
DWIDTH 26 0
BBX 27 33 2 0
BITMAP
00000860
00000840
00000840
00000840
00000880
00001980
00001000
00001000
00001000
00F81000
03863000
0601B000
0C00A000
18006000
10006000
20006000
20006000
60004000
40004000
40004000
C0004000
C0004000
8000C000
80008000
80008000
80008000
80008000
80018000
40018000
40030000
60050000
30190000
1FE10000
ENDCHAR
STARTCHAR 0110
ENCODING 272
SWIDTH 630 0
DWIDTH 28 0
BBX 25 32 2 0
BITMAP
03FE0000
03FFE000
02001800
02000C00
06000600
04000200
04000100
04000100
04000180
0C000080
08000080
08000080
08000080
08000080
08000080
FFF80180
FFF80100
10000100
10000100
10000100
10000300
30000200
20000600
20000400
20000C00
20000800
20001000
60002000
4000C000
40018000
400E0000
7FF80000
ENDCHAR
STARTCHAR 0111
ENCODING 273
SWIDTH 517 0
DWIDTH 23 0
BBX 24 33 2 0
BITMAP
000008
000008
000008
000008
000FFF
000018
000010
000010
000010
00F810
038630
0601B0
0C00A0
180060
100060
200060
200060
600040
400040
400040
C00040
C00040
8000C0
800080
800080
800080
800080
800180
400180
400300
600500
301900
1FE100
ENDCHAR
STARTCHAR 0112
ENCODING 274
SWIDTH 540 0
DWIDTH 24 0
BBX 24 38 2 0
BITMAP
007FF8
000000
000000
000000
000000
000000
07FFFF
07FFFF
040000
040000
040000
040000
0C0000
080000
080000
080000
080000
180000
180000
100000
100000
1FFFE0
100000
300000
200000
200000
200000
200000
200000
600000
400000
400000
400000
400000
400000
C00000
800000
FFFFE0
ENDCHAR
STARTCHAR 0113
ENCODING 275
SWIDTH 472 0
DWIDTH 21 0
BBX 20 31 1 0
BITMAP
00FFF0
000000
000000
000000
000000
000000
000000
007E00
01C700
030080
040040
080060
100020
100020
200020
200020
400020
7FFFE0
400000
400000
C00000
C00000
C00000
400000
400000
400000
600000
200080
100300
1C0600
07F800
ENDCHAR
STARTCHAR 0114
ENCODING 276
SWIDTH 540 0
DWIDTH 24 0
BBX 24 39 2 0
BITMAP
002008
002018
002010
001860
000FC0
000000
000000
07FFFF
07FFFF
040000
040000
040000
040000
0C0000
080000
080000
080000
080000
180000
180000
100000
100000
1FFFE0
100000
300000
200000
200000
200000
200000
200000
600000
400000
400000
400000
400000
400000
C00000
800000
FFFFE0
ENDCHAR
STARTCHAR 0115
ENCODING 277
SWIDTH 472 0
DWIDTH 21 0
BBX 20 32 1 0
BITMAP
008030
008020
00C060
0061C0
003F00
000000
000000
000000
007E00
01C700
030080
040040
080060
100020
100020
200020
200020
400020
7FFFE0
400000
400000
C00000
C00000
C00000
400000
400000
400000
600000
200080
100300
1C0600
07F800
ENDCHAR
STARTCHAR 0116
ENCODING 278
SWIDTH 540 0
DWIDTH 24 0
BBX 24 38 2 0
BITMAP
000300
000300
000000
000000
000000
000000
07FFFF
07FFFF
040000
040000
040000
040000
0C0000
080000
080000
080000
080000
180000
180000
100000
100000
1FFFE0
100000
300000
200000
200000
200000
200000
200000
600000
400000
400000
400000
400000
400000
C00000
800000
FFFFE0
ENDCHAR
STARTCHAR 0117
ENCODING 279
SWIDTH 472 0
DWIDTH 21 0
BBX 19 31 1 0
BITMAP
000600
000C00
000000
000000
000000
000000
000000
007E00
01C700
030080
040040
080060
100020
100020
200020
200020
400020
7FFFE0
400000
400000
C00000
C00000
C00000
400000
400000
400000
600000
200080
100300
1C0600
07F800
ENDCHAR
STARTCHAR 0118
ENCODING 280
SWIDTH 540 0
DWIDTH 24 0
BBX 24 41 2 -9
BITMAP
07FFFF
07FFFF
040000
040000
040000
040000
0C0000
080000
080000
080000
080000
180000
180000
100000
100000
1FFFE0
100000
300000
200000
200000
200000
200000
200000
600000
400000
400000
400000
400000
400000
C00000
800000
FFFFE0
000180
000200
000400
000800
000800
001800
001800
000F80
000200
ENDCHAR
STARTCHAR 0119
ENCODING 281
SWIDTH 472 0
DWIDTH 21 0
BBX 19 31 1 -7
BITMAP
007E00
01C700
030080
040040
080060
100020
100020
200020
200020
400020
7FFFE0
400000
400000
C00000
C00000
C00000
400000
400000
400000
600000
200080
100300
1C0600
07FC00
001000
002000
004000
004000
004000
004000
007C00
ENDCHAR
STARTCHAR 011A
ENCODING 282
SWIDTH 540 0
DWIDTH 24 0
BBX 24 40 2 0
BITMAP
003018
001030
000860
000CC0
000580
000300
000000
000000
07FFFF
07FFFF
040000
040000
040000
040000
0C0000
080000
080000
080000
080000
180000
180000
100000
100000
1FFFE0
100000
300000
200000
200000
200000
200000
200000
600000
400000
400000
400000
400000
400000
C00000
800000
FFFFE0
ENDCHAR
STARTCHAR 011B
ENCODING 283
SWIDTH 472 0
DWIDTH 21 0
BBX 19 33 1 0
BITMAP
004020
006040
003080
001100
000A00
000C00
000000
000000
000000
007E00
01C700
030080
040040
080060
100020
100020
200020
200020
400020
7FFFE0
400000
400000
C00000
C00000
C00000
400000
400000
400000
600000
200080
100300
1C0600
07F800
ENDCHAR
STARTCHAR 011C
ENCODING 284
SWIDTH 652 0
DWIDTH 29 0
BBX 25 40 3 0
BITMAP
0001C000
00034000
00062000
000C3000
00101800
00000000
00000000
00000000
000FE000
00703800
00C00C00
01000600
02000300
04000100
0C000100
08000100
10000180
10000000
20000000
20000000
20000000
60000000
40000000
40000000
40000000
40000000
400FFE00
C0000200
C0000600
C0000400
C0000400
40000400
40000400
40000C00
60000C00
20000800
30000800
18003000
0C00E000
03FF0000
ENDCHAR
STARTCHAR 011D
ENCODING 285
SWIDTH 517 0
DWIDTH 23 0
BBX 21 42 1 -9
BITMAP
000600
000F00
001980
003080
006040
00C060
000000
000000
000000
007C00
01C318
0300D0
060050
0C0030
080030
100030
100030
300020
200020
200020
600020
400020
400060
400040
400040
400040
400040
4000C0
2000C0
200180
300280
180C80
0FF080
000180
000100
000100
000300
000200
800400
C00C00
603000
1FE000
ENDCHAR
STARTCHAR 011E
ENCODING 286
SWIDTH 652 0
DWIDTH 29 0
BBX 25 40 3 0
BITMAP
00300400
00300400
00100800
00181800
000FF000
00018000
00000000
00000000
000FE000
00703800
00C00C00
01000600
02000300
04000100
0C000100
08000100
10000180
10000000
20000000
20000000
20000000
60000000
40000000
40000000
40000000
40000000
400FFE00
C0000200
C0000600
C0000400
C0000400
40000400
40000400
40000C00
60000C00
20000800
30000800
18003000
0C00E000
03FF0000
ENDCHAR
STARTCHAR 011F
ENCODING 287
SWIDTH 517 0
DWIDTH 23 0
BBX 21 41 1 -9
BITMAP
008010
00C020
004060
0060C0
001F00
000000
000000
000000
007C00
01C318
0300D0
060050
0C0030
080030
100030
100030
300020
200020
200020
600020
400020
400060
400040
400040
400040
400040
4000C0
2000C0
200180
300280
180C80
0FF080
000180
000100
000100
000300
000200
800400
C00C00
603000
1FE000
ENDCHAR
STARTCHAR 0120
ENCODING 288
SWIDTH 652 0
DWIDTH 29 0
BBX 25 39 3 0
BITMAP
00018000
00018000
00000000
00000000
00000000
00000000
00000000
000FE000
00703800
00C00C00
01000600
02000300
04000100
0C000100
08000100
10000180
10000000
20000000
20000000
20000000
60000000
40000000
40000000
40000000
40000000
400FFE00
C0000200
C0000600
C0000400
C0000400
40000400
40000400
40000C00
60000C00
20000800
30000800
18003000
0C00E000
03FF0000
ENDCHAR
STARTCHAR 0121
ENCODING 289
SWIDTH 517 0
DWIDTH 23 0
BBX 21 40 1 -9
BITMAP
000600
000600
000000
000000
000000
000000
000000
007C00
01C318
0300D0
060050
0C0030
080030
100030
100030
300020
200020
200020
600020
400020
400060
400040
400040
400040
400040
4000C0
2000C0
200180
300280
180C80
0FF080
000180
000100
000100
000300
000200
800400
C00C00
603000
1FE000
ENDCHAR
STARTCHAR 0122
ENCODING 290
SWIDTH 652 0
DWIDTH 29 0
BBX 25 41 3 -9
BITMAP
000FE000
00703800
00C00C00
01000600
02000300
04000100
0C000100
08000100
10000180
10000000
20000000
20000000
20000000
60000000
40000000
40000000
40000000
40000000
400FFE00
C0000200
C0000600
C0000400
C0000400
40000400
40000400
40000C00
60000C00
20000800
30000800
18003000
0C00E000
03FF0000
00000000
00000000
00400000
00400000
00400000
00C00000
00800000
01800000
01000000
ENDCHAR
STARTCHAR 0123
ENCODING 291
SWIDTH 517 0
DWIDTH 23 0
BBX 21 43 1 -9
BITMAP
000100
000200
000200
000600
000400
000400
000000
000000
000000
000000
007C00
01C318
0300D0
060050
0C0030
080030
100030
100030
300020
200020
200020
600020
400020
400060
400040
400040
400040
400040
4000C0
2000C0
200180
300280
180C80
0FF080
000180
000100
000100
000300
000200
800400
C00C00
603000
1FE000
ENDCHAR
STARTCHAR 0124
ENCODING 292
SWIDTH 675 0
DWIDTH 30 0
BBX 27 40 2 0
BITMAP
00004000
0000E000
00013000
00021800
000C0800
00080400
00000000
00000000
06000020
04000020
04000020
04000020
04000060
04000040
0C000040
08000040
08000040
08000040
080000C0
18000080
18000080
10000080
10000080
1FFFFF80
10000180
30000100
20000100
20000100
20000100
20000300
20000200
60000200
40000200
40000200
40000200
40000600
40000400
C0000400
80000400
80000400
ENDCHAR
STARTCHAR 0125
ENCODING 293
SWIDTH 517 0
DWIDTH 23 0
BBX 20 40 1 0
BITMAP
000400
000E00
001300
006180
00C080
0180C0
000000
020000
020000
020000
060000
040000
040000
040000
040000
040000
0C1F00
0870C0
098060
0B0020
0A0020
0C0030
180030
180030
100030
100020
100020
100020
300020
200060
200060
200040
200040
600040
400040
4000C0
400080
400080
400080
C00080
ENDCHAR
STARTCHAR 0126
ENCODING 294
SWIDTH 652 0
DWIDTH 29 0
BBX 29 32 1 0
BITMAP
06000020
06000020
04000020
04000020
04000020
04000060
0C000040
08000040
08000040
7FFFFFF8
08000040
080000C0
18000080
10000080
10000080
1FFFFF80
10000180
10000100
30000100
20000100
20000100
20000100
20000300
20000200
60000200
40000200
40000200
40000200
40000600
40000400
C0000400
80000400
ENDCHAR
STARTCHAR 0127
ENCODING 295
SWIDTH 540 0
DWIDTH 24 0
BBX 19 33 2 0
BITMAP
020000
060000
040000
040000
3FFC00
040000
040000
0C0000
080000
081F00
08E1C0
098040
0B0020
1E0020
140020
180020
100020
100020
100020
300020
200060
200060
200040
200040
600040
400040
4000C0
400080
400080
400080
C00080
800080
800180
ENDCHAR
STARTCHAR 0128
ENCODING 296
SWIDTH 247 0
DWIDTH 11 0
BBX 14 39 3 0
BITMAP
3C04
6208
C1B8
80E0
0000
0000
0000
0400
0400
0400
0400
0400
0C00
0800
0800
0800
0800
1800
1800
1000
1000
1000
1000
3000
2000
2000
2000
2000
2000
6000
4000
4000
4000
4000
4000
C000
8000
8000
8000
ENDCHAR
STARTCHAR 0129
ENCODING 297
SWIDTH 180 0
DWIDTH 8 0
BBX 13 32 1 0
BITMAP
1008
7C08
C218
81F0
0000
0000
0000
0000
0000
0C00
0800
0800
0800
0800
0800
1800
1000
1000
1000
1000
1000
3000
2000
2000
2000
2000
6000
6000
4000
4000
4000
4000
ENDCHAR
STARTCHAR 012A
ENCODING 298
SWIDTH 247 0
DWIDTH 11 0
BBX 13 38 3 0
BITMAP
7FF8
0000
0000
0000
0000
0000
0400
0400
0400
0400
0400
0C00
0800
0800
0800
0800
1800
1800
1000
1000
1000
1000
3000
2000
2000
2000
2000
2000
6000
4000
4000
4000
4000
4000
C000
8000
8000
8000
ENDCHAR
STARTCHAR 012B
ENCODING 299
SWIDTH 180 0
DWIDTH 8 0
BBX 12 31 1 0
BITMAP
FFF0
0000
0000
0000
0000
0000
0000
0000
0C00
0800
0800
0800
0800
0800
1800
1000
1000
1000
1000
1000
3000
2000
2000
2000
2000
6000
6000
4000
4000
4000
4000
ENDCHAR
STARTCHAR 012C
ENCODING 300
SWIDTH 247 0
DWIDTH 11 0
BBX 13 39 3 0
BITMAP
4008
4010
2030
3060
0F80
0000
0000
0400
0400
0400
0400
0400
0C00
0800
0800
0800
0800
1800
1800
1000
1000
1000
1000
3000
2000
2000
2000
2000
2000
6000
4000
4000
4000
4000
4000
C000
8000
8000
8000
ENDCHAR
STARTCHAR 012D
ENCODING 301
SWIDTH 180 0
DWIDTH 8 0
BBX 11 32 2 0
BITMAP
8020
8020
8060
C0C0
7F80
0000
0000
0000
0000
1800
1000
1000
1000
1000
1000
3000
2000
2000
2000
2000
2000
6000
4000
4000
4000
4000
C000
C000
8000
8000
8000
8000
ENDCHAR
STARTCHAR 012E
ENCODING 302
SWIDTH 247 0
DWIDTH 11 0
BBX 11 41 -2 -9
BITMAP
0020
0020
0020
0020
0020
0060
0040
0040
0040
0040
00C0
00C0
0080
0080
0080
0080
0180
0100
0100
0100
0100
0100
0300
0200
0200
0200
0200
0200
0600
0400
0400
0400
0800
3000
6000
4000
8000
8000
8000
F800
3000
ENDCHAR
STARTCHAR 012F
ENCODING 303
SWIDTH 180 0
DWIDTH 8 0
BBX 12 41 -3 -9
BITMAP
0030
0070
0000
0000
0000
0000
0000
0000
0000
00C0
00C0
0080
0080
0080
0080
0180
0180
0100
0100
0100
0100
0300
0200
0200
0200
0200
0200
0600
0400
0400
0400
0400
0800
3000
6000
C000
8000
8000
8000
F800
2000
ENDCHAR
STARTCHAR 0130
ENCODING 304
SWIDTH 247 0
DWIDTH 11 0
BBX 8 38 3 0
BITMAP
03
03
00
00
00
00
04
04
04
04
04
0C
08
08
08
08
18
18
10
10
10
10
30
20
20
20
20
20
60
40
40
40
40
40
C0
80
80
80
ENDCHAR
STARTCHAR 0131
ENCODING 305
SWIDTH 180 0
DWIDTH 8 0
BBX 5 23 2 0
BITMAP
18
10
10
10
10
10
30
20
20
20
20
20
60
40
40
40
40
C0
C0
80
80
80
80
ENDCHAR
STARTCHAR 0132
ENCODING 306
SWIDTH 765 0
DWIDTH 34 0
BBX 31 32 3 0
BITMAP
04000002
04000002
04000006
04000006
04000004
0C000004
08000004
08000004
0800000C
08000008
18000008
18000008
10000008
10000008
10000018
10000010
30000010
20000010
20000010
20000010
20000030
20000020
60000020
40600020
40400060
40400040
40400040
40600080
C0200180
80300300
80180E00
8007F800
ENDCHAR
STARTCHAR 0133
ENCODING 307
SWIDTH 405 0
DWIDTH 18 0
BBX 16 41 2 -9
BITMAP
0603
0E07
0000
0000
0000
0000
0000
0000
0000
180C
1808
1008
1008
1008
1008
3018
3010
2010
2010
2010
2030
6030
4020
4020
4020
4020
4060
C040
8040
8040
8040
8040
00C0
0080
0080
0080
0180
0100
0300
0600
FC00
ENDCHAR
STARTCHAR 0134
ENCODING 308
SWIDTH 517 0
DWIDTH 23 0
BBX 27 39 1 0
BITMAP
00000600
00000D00
00001980
000030C0
00006060
00000000
00000000
00000400
00000C00
00000800
00000800
00000800
00000800
00000800
00001800
00001000
00001000
00001000
00001000
00001000
00003000
00002000
00002000
00002000
00002000
00006000
00006000
00004000
00004000
00004000
80004000
80008000
80008000
80018000
C0010000
40020000
60060000
30180000
1FF00000
ENDCHAR
STARTCHAR 0135
ENCODING 309
SWIDTH 180 0
DWIDTH 8 0
BBX 19 41 -7 -9
BITMAP
000200
000500
001980
0030C0
006060
00C020
000000
000000
000000
000400
000C00
000800
000800
000800
000800
001800
001800
001000
001000
001000
001000
003000
002000
002000
002000
002000
002000
006000
004000
004000
004000
004000
004000
00C000
008000
008000
018000
010000
030000
060000
FC0000
ENDCHAR
STARTCHAR 0136
ENCODING 310
SWIDTH 607 0
DWIDTH 27 0
BBX 26 39 2 -7
BITMAP
060000C0
04000180
04000300
04000600
04000800
04003000
0C006000
0800C000
08018000
08030000
08060000
18080000
18300000
10600000
10C00000
11C00000
13200000
34300000
28100000
30080000
200C0000
20060000
20020000
60030000
40018000
40008000
4000C000
40006000
40002000
C0003000
80001800
80000800
00800000
00800000
00800000
01800000
01000000
03000000
02000000
ENDCHAR
STARTCHAR 0137
ENCODING 311
SWIDTH 450 0
DWIDTH 20 0
BBX 20 39 1 -7
BITMAP
020000
020000
020000
060000
040000
040000
040000
040000
040000
0C0000
080070
0800C0
080180
080300
080C00
181800
103000
106000
108000
130000
178000
3C8000
30C000
206000
202000
203000
601800
400800
400C00
400600
400200
400300
C00180
010000
010000
010000
020000
020000
040000
ENDCHAR
STARTCHAR 0138
ENCODING 312
SWIDTH 495 0
DWIDTH 22 0
BBX 21 23 1 0
BITMAP
080038
080060
0800C0
080180
180300
180600
100800
101000
106000
10C000
3F8000
3F8000
20C000
204000
202000
203000
601800
400C00
400600
400200
400100
400080
C000C0
ENDCHAR
STARTCHAR 0139
ENCODING 313
SWIDTH 495 0
DWIDTH 22 0
BBX 17 39 2 0
BITMAP
003000
006000
00C000
018000
010000
020000
000000
060000
040000
040000
040000
040000
040000
0C0000
080000
080000
080000
080000
180000
180000
100000
100000
100000
100000
300000
200000
200000
200000
200000
200000
600000
400000
400000
400000
400000
400000
C00000
800000
FFFF80
ENDCHAR
STARTCHAR 013A
ENCODING 314
SWIDTH 180 0
DWIDTH 8 0
BBX 12 42 2 0
BITMAP
0030
0020
0040
0080
0100
0300
0000
0000
0000
0400
0400
0400
0400
0400
0C00
0800
0800
0800
0800
1800
1800
1000
1000
1000
1000
3000
3000
2000
2000
2000
2000
6000
4000
4000
4000
4000
4000
C000
8000
8000
8000
8000
ENDCHAR
STARTCHAR 013B
ENCODING 315
SWIDTH 495 0
DWIDTH 22 0
BBX 17 41 2 -9
BITMAP
060000
040000
040000
040000
040000
040000
0C0000
080000
080000
080000
080000
180000
180000
100000
100000
100000
100000
300000
200000
200000
200000
200000
200000
600000
400000
400000
400000
400000
400000
C00000
800000
FFFF80
000000
000000
008000
008000
018000
010000
010000
020000
020000
ENDCHAR
STARTCHAR 013C
ENCODING 316
SWIDTH 180 0
DWIDTH 8 0
BBX 9 42 -1 -9
BITMAP
0080
0080
0080
0080
0080
0180
0100
0100
0100
0100
0300
0300
0200
0200
0200
0200
0600
0600
0400
0400
0400
0400
0C00
0800
0800
0800
0800
0800
1800
1000
1000
1000
1000
0000
0000
2000
2000
2000
6000
4000
C000
8000
ENDCHAR
STARTCHAR 013D
ENCODING 317
SWIDTH 495 0
DWIDTH 22 0
BBX 17 32 2 0
BITMAP
060200
040200
040200
040600
040400
040C00
0C0800
080000
080000
080000
080000
180000
180000
100000
100000
100000
100000
300000
200000
200000
200000
200000
200000
600000
400000
400000
400000
400000
400000
C00000
800000
FFFF80
ENDCHAR
STARTCHAR 013E
ENCODING 318
SWIDTH 270 0
DWIDTH 12 0
BBX 12 33 2 0
BITMAP
0410
0410
0410
0420
0420
0C40
0800
0800
0800
0800
1800
1800
1000
1000
1000
1000
3000
3000
2000
2000
2000
2000
6000
4000
4000
4000
4000
4000
C000
8000
8000
8000
8000
ENDCHAR
STARTCHAR 013F
ENCODING 319
SWIDTH 495 0
DWIDTH 22 0
BBX 17 32 2 0
BITMAP
060000
040000
040000
040000
040000
040000
0C0000
080000
080000
080000
080000
180000
180000
100000
100800
101C00
100800
300000
200000
200000
200000
200000
200000
600000
400000
400000
400000
400000
400000
C00000
800000
FFFF80
ENDCHAR
STARTCHAR 0140
ENCODING 320
SWIDTH 292 0
DWIDTH 13 0
BBX 10 33 2 0
BITMAP
0400
0400
0400
0400
0400
0C00
0800
0800
0800
0800
1800
1800
1000
1000
1000
11C0
3180
3000
2000
2000
2000
2000
6000
4000
4000
4000
4000
4000
C000
8000
8000
8000
8000
ENDCHAR
STARTCHAR 0141
ENCODING 321
SWIDTH 495 0
DWIDTH 22 0
BBX 19 32 0 0
BITMAP
010000
010000
010000
010000
030000
030000
020000
020000
020000
020000
060000
060000
040000
043C00
05E000
0F0000
7C0000
880000
080000
080000
080000
080000
180000
100000
100000
100000
100000
100000
300000
200000
200000
3FFFE0
ENDCHAR
STARTCHAR 0142
ENCODING 322
SWIDTH 225 0
DWIDTH 10 0
BBX 10 33 1 0
BITMAP
0100
0100
0100
0100
0100
0300
0200
0200
0200
0200
0600
0600
0400
0440
0780
1E00
7C00
8800
0800
0800
0800
0800
1800
1000
1000
1000
1000
1000
3000
2000
2000
2000
2000
ENDCHAR
STARTCHAR 0143
ENCODING 323
SWIDTH 675 0
DWIDTH 30 0
BBX 28 40 2 0
BITMAP
00000C00
00001800
00001000
00002000
00004000
00004000
00000000
00000000
06000030
06000020
07000020
05000020
05800020
0C800060
0CC00040
08400040
08600040
08200040
08300040
181000C0
18180080
10080080
100C0080
10040080
10060080
30020180
20030100
20010100
20018100
20008100
2000C300
60004300
40006200
40002200
40002200
40001200
40001600
C0000E00
80000C00
80000400
ENDCHAR
STARTCHAR 0144
ENCODING 324
SWIDTH 517 0
DWIDTH 23 0
BBX 20 33 1 0
BITMAP
000060
0000C0
000180
000300
000200
000400
000000
000000
000000
001F00
0870C0
098060
0B0020
0A0020
0C0030
180030
180030
100030
100020
100020
100020
300020
200060
200060
200040
200040
600040
400040
4000C0
400080
400080
400080
C00080
ENDCHAR
STARTCHAR 0145
ENCODING 325
SWIDTH 675 0
DWIDTH 30 0
BBX 28 41 2 -9
BITMAP
06000030
06000020
07000020
05000020
05800020
0C800060
0CC00040
08400040
08600040
08200040
08300040
181000C0
18180080
10080080
100C0080
10040080
10060080
30020180
20030100
20010100
20018100
20008100
2000C300
60004300
40006200
40002200
40002200
40001200
40001600
C0000E00
80000C00
80000400
00000000
00000000
00200000
00200000
00200000
00400000
00400000
00800000
00800000
ENDCHAR
STARTCHAR 0146
ENCODING 326
SWIDTH 517 0
DWIDTH 23 0
BBX 20 33 1 -9
BITMAP
001F00
0870C0
098060
0B0020
0A0020
0C0030
180030
180030
100030
100020
100020
100020
300020
200060
200060
200040
200040
600040
400040
4000C0
400080
400080
400080
C00080
000000
000000
008000
008000
008000
010000
010000
020000
020000
ENDCHAR
STARTCHAR 0147
ENCODING 327
SWIDTH 675 0
DWIDTH 30 0
BBX 28 40 2 0
BITMAP
00040200
00060400
00020800
00011000
0001E000
0000C000
00000000
00000000
06000030
06000020
07000020
05000020
05800020
0C800060
0CC00040
08400040
08600040
08200040
08300040
181000C0
18180080
10080080
100C0080
10040080
10060080
30020180
20030100
20010100
20018100
20008100
2000C300
60004300
40006200
40002200
40002200
40001200
40001600
C0000E00
80000C00
80000400
ENDCHAR
STARTCHAR 0148
ENCODING 328
SWIDTH 517 0
DWIDTH 23 0
BBX 20 33 1 0
BITMAP
006030
002060
0010C0
001980
000B00
000600
000000
000000
000000
001F00
0870C0
098060
0B0020
0A0020
0C0030
180030
180030
100030
100020
100020
100020
300020
200060
200060
200040
200040
600040
400040
4000C0
400080
400080
400080
C00080
ENDCHAR
STARTCHAR 0149
ENCODING 329
SWIDTH 517 0
DWIDTH 23 0
BBX 20 33 1 0
BITMAP
100000
100000
100000
300000
200000
400000
400000
000000
000000
001F00
0870C0
098060
0B0020
0A0020
0C0030
180030
180030
100030
100020
100020
100020
300020
200060
200060
200040
200040
600040
400040
4000C0
400080
400080
400080
C00080
ENDCHAR
STARTCHAR 014A
ENCODING 330
SWIDTH 675 0
DWIDTH 30 0
BBX 28 41 2 -9
BITMAP
06000030
06000020
07000020
05000020
05800020
04800060
0CC00040
08400040
08600040
08200040
08300040
181000C0
18180080
10080080
100C0080
10040080
10060080
30020180
20030100
20010100
20018100
20008100
2000C100
60004300
40006200
40002200
40003200
40001200
40001E00
C0000E00
80000C00
80000400
00000400
00000400
00000C00
00000800
00000800
00001800
00003000
00006000
000FC000
ENDCHAR
STARTCHAR 014B
ENCODING 331
SWIDTH 517 0
DWIDTH 23 0
BBX 19 33 1 -9
BITMAP
003F00
08E1C0
098040
0B0020
0E0020
0C0020
180020
180020
100020
100020
100020
300020
200020
200060
200060
200040
200040
600040
400040
4000C0
400080
400080
400080
C00080
000080
000180
000100
000100
000300
000200
000600
000C00
01F800
ENDCHAR
STARTCHAR 014C
ENCODING 332
SWIDTH 630 0
DWIDTH 28 0
BBX 24 39 3 0
BITMAP
003FFC
000000
000000
000000
000000
000000
000000
001FC0
007070
018018
03000C
060006
0C0002
180002
100001
300001
200001
200001
400001
400001
400001
400001
C00003
800002
800002
800002
800002
800006
800004
800004
800008
800008
800010
C00030
400020
600040
300180
180700
07FC00
ENDCHAR
STARTCHAR 014D
ENCODING 333
SWIDTH 517 0
DWIDTH 23 0
BBX 21 31 1 0
BITMAP
00FFF0
000000
000000
000000
000000
000000
000000
003E00
01C380
030040
040020
080030
180010
100010
200018
200008
600008
400008
400008
400018
C00010
C00010
C00010
400030
400020
400040
6000C0
200180
100300
1C0600
07F800
ENDCHAR
STARTCHAR 014E
ENCODING 334
SWIDTH 630 0
DWIDTH 28 0
BBX 24 40 3 0
BITMAP
00200C
002008
002018
001030
001FE0
000300
000000
000000
001FC0
007070
018018
03000C
060006
0C0002
180002
100001
300001
200001
200001
400001
400001
400001
400001
C00003
800002
800002
800002
800002
800006
800004
800004
800008
800008
800010
C00030
400020
600040
300180
180700
07FC00
ENDCHAR
STARTCHAR 014F
ENCODING 335
SWIDTH 517 0
DWIDTH 23 0
BBX 21 32 1 0
BITMAP
008030
008020
00C060
0061C0
003F00
000000
000000
000000
003E00
01C380
030040
040020
080030
180010
100010
200018
200008
600008
400008
400008
400018
C00010
C00010
C00010
400030
400020
400040
6000C0
200180
100300
1C0600
07F800
ENDCHAR
STARTCHAR 0150
ENCODING 336
SWIDTH 630 0
DWIDTH 28 0
BBX 25 41 3 0
BITMAP
00006180
0000C300
00018400
00031800
00063000
000C6000
0018C000
00000000
00000000
001FC000
00707000
01801800
03000C00
06000600
0C000200
18000200
10000100
30000100
20000100
20000100
40000100
40000100
40000100
40000100
C0000300
80000200
80000200
80000200
80000200
80000600
80000400
80000400
80000800
80000800
80001000
C0003000
40002000
60004000
30018000
18070000
07FC0000
ENDCHAR
STARTCHAR 0151
ENCODING 337
SWIDTH 517 0
DWIDTH 23 0
BBX 22 33 1 0
BITMAP
00010C
000218
000430
000860
0010C0
003180
000000
000000
000000
003E00
01C380
030040
040020
080030
180010
100010
200018
200008
600008
400008
400008
400018
C00010
C00010
C00010
400030
400020
400040
6000C0
200180
100300
1C0600
07F800
ENDCHAR
STARTCHAR 0152
ENCODING 338
SWIDTH 877 0
DWIDTH 39 0
BBX 39 32 2 0
BITMAP
001FFFFFFE
00700FFFFE
0180080000
0300080000
0600080000
0C00080000
0800180000
1800100000
1000100000
3000100000
2000100000
2000100000
6000300000
4000200000
4000200000
40003FFFC0
4000200000
4000200000
C000600000
8000400000
8000400000
8000400000
8000400000
8000C00000
8000800000
C000800000
4000800000
4000800000
2000800000
3001800000
1C01000000
07FFFFFFC0
ENDCHAR
STARTCHAR 0153
ENCODING 339
SWIDTH 900 0
DWIDTH 40 0
BBX 38 24 1 0
BITMAP
003E000FC0
01E1803870
0300606018
0600208008
0C00310004
1800130004
10001A0004
20000C0004
20000C0004
60000C0004
40000FFFFC
4000080000
4000180000
C000180000
C000100000
C000100000
4000380000
4000280000
4000480000
6000C80000
2001840000
3003060060
180E0300C0
07F801FF00
ENDCHAR
STARTCHAR 0154
ENCODING 340
SWIDTH 630 0
DWIDTH 28 0
BBX 24 40 2 0
BITMAP
000020
000040
0000C0
000180
000300
000200
000000
000000
07FF00
07FFF0
040018
040004
040002
0C0002
080003
080001
080001
080003
080002
180002
100006
100004
100008
100010
100060
3FFF80
200200
200300
200100
200180
600080
600080
400040
400040
400060
400020
C00030
800010
800018
800008
ENDCHAR
STARTCHAR 0155
ENCODING 341
SWIDTH 315 0
DWIDTH 14 0
BBX 15 33 1 0
BITMAP
0002
0004
0008
0010
0030
0000
0000
0000
0000
003E
08E0
0980
0A00
0E00
0C00
1800
1800
1000
1000
1000
1000
3000
2000
2000
2000
2000
6000
4000
4000
4000
4000
4000
C000
ENDCHAR
STARTCHAR 0156
ENCODING 342
SWIDTH 630 0
DWIDTH 28 0
BBX 24 41 2 -9
BITMAP
07FF00
07FFF0
040018
040004
040002
0C0002
080003
080001
080001
080003
080002
180002
100006
100004
100008
100010
100060
3FFF80
200200
200300
200100
200180
600080
600080
400040
400040
400060
400020
C00030
800010
800018
800008
000000
000000
008000
018000
010000
010000
030000
020000
040000
ENDCHAR
STARTCHAR 0157
ENCODING 343
SWIDTH 315 0
DWIDTH 14 0
BBX 17 32 -1 -9
BITMAP
000F80
023800
026000
028000
038000
030000
060000
060000
040000
040000
040000
040000
0C0000
080000
080000
080000
080000
180000
100000
100000
100000
100000
100000
300000
000000
000000
200000
200000
600000
400000
400000
800000
ENDCHAR
STARTCHAR 0158
ENCODING 344
SWIDTH 630 0
DWIDTH 28 0
BBX 24 40 2 0
BITMAP
002018
001030
001860
0008C0
000580
000700
000000
000000
07FF00
07FFF0
040018
040004
040002
0C0002
080003
080001
080001
080003
080002
180002
100006
100004
100008
100010
100060
3FFF80
200200
200300
200100
200180
600080
600080
400040
400040
400060
400020
C00030
800010
800018
800008
ENDCHAR
STARTCHAR 0159
ENCODING 345
SWIDTH 315 0
DWIDTH 14 0
BBX 16 33 1 0
BITMAP
0201
0302
0184
0088
0050
0060
0000
0000
0000
003E
08E0
0980
0A00
0E00
0C00
1800
1800
1000
1000
1000
1000
3000
2000
2000
2000
2000
6000
4000
4000
4000
4000
4000
C000
ENDCHAR
STARTCHAR 015A
ENCODING 346
SWIDTH 562 0
DWIDTH 25 0
BBX 24 41 1 0
BITMAP
000008
000018
000030
000060
000040
000080
000000
000000
000000
001FE0
007038
01800C
030006
060002
040001
080001
080001
080001
080000
080000
0C0000
060000
030000
00E000
003C00
000700
0000C0
000030
000018
000008
00000C
000004
800004
800004
80000C
C00008
400018
600030
300060
1C0180
07FE00
ENDCHAR
STARTCHAR 015B
ENCODING 347
SWIDTH 472 0
DWIDTH 21 0
BBX 18 33 1 0
BITMAP
000180
000100
000200
000400
000800
000000
000000
000000
000000
00FC00
03C700
060180
0800C0
100040
100040
100040
100000
100000
080000
060000
03C000
003800
000E00
000300
000100
000180
000080
800180
800100
C00300
600600
300C00
1FF000
ENDCHAR
STARTCHAR 015C
ENCODING 348
SWIDTH 562 0
DWIDTH 25 0
BBX 24 40 1 0
BITMAP
0000C0
000160
000630
000C10
001808
000000
000000
000000
001FE0
007038
01800C
030006
060002
040001
080001
080001
080001
080000
080000
0C0000
060000
030000
00E000
003C00
000700
0000C0
000030
000018
000008
00000C
000004
800004
800004
80000C
C00008
400018
600030
300060
1C0180
07FE00
ENDCHAR
STARTCHAR 015D
ENCODING 349
SWIDTH 472 0
DWIDTH 21 0
BBX 18 33 1 0
BITMAP
000C00
001C00
003200
006300
008180
010080
000000
000000
000000
00FC00
03C700
060180
0800C0
100040
100040
100040
100000
100000
080000
060000
03C000
003800
000E00
000300
000100
000180
000080
800180
800100
C00300
600600
300C00
1FF000
ENDCHAR
STARTCHAR 015E
ENCODING 350
SWIDTH 562 0
DWIDTH 25 0
BBX 24 42 1 -10
BITMAP
001FE0
007038
01800C
030006
060002
040001
080001
080001
080001
080000
080000
0C0000
060000
030000
00E000
003C00
000700
0000C0
000030
000018
000008
00000C
000004
800004
800004
80000C
C00008
400018
600030
300060
1C0180
07FE00
006000
004000
007000
001800
000800
000800
000800
001000
01E000
030000
ENDCHAR
STARTCHAR 015F
ENCODING 351
SWIDTH 472 0
DWIDTH 21 0
BBX 18 34 1 -10
BITMAP
00FC00
03C700
060180
0800C0
100040
100040
100040
100000
100000
080000
060000
03C000
003800
000E00
000300
000100
000180
000080
800180
800100
C00300
600600
300C00
1FF000
010000
010000
03C000
006000
002000
002000
006000
00C000
0F8000
080000
ENDCHAR
STARTCHAR 0160
ENCODING 352
SWIDTH 562 0
DWIDTH 25 0
BBX 24 40 1 0
BITMAP
00080C
000418
000630
000260
0001C0
000180
000000
000000
001FE0
007038
01800C
030006
060002
040001
080001
080001
080001
080000
080000
0C0000
060000
030000
00E000
003C00
000700
0000C0
000030
000018
000008
00000C
000004
800004
800004
80000C
C00008
400018
600030
300060
1C0180
07FE00
ENDCHAR
STARTCHAR 0161
ENCODING 353
SWIDTH 472 0
DWIDTH 21 0
BBX 18 33 1 0
BITMAP
008040
00C080
004100
002200
003400
001800
000000
000000
000000
00FC00
03C700
060180
0800C0
100040
100040
100040
100000
100000
080000
060000
03C000
003800
000E00
000300
000100
000180
000080
800180
800100
C00300
600600
300C00
1FF000
ENDCHAR
STARTCHAR 0162
ENCODING 354
SWIDTH 562 0
DWIDTH 25 0
BBX 24 41 4 -9
BITMAP
FFFFFF
FFFFFF
001000
001000
001000
001000
003000
002000
002000
002000
002000
002000
006000
004000
004000
004000
004000
004000
00C000
008000
008000
008000
008000
008000
018000
010000
010000
010000
010000
030000
030000
020000
020000
020000
078000
00C000
004000
004000
008000
018000
1E0000
ENDCHAR
STARTCHAR 0163
ENCODING 355
SWIDTH 292 0
DWIDTH 13 0
BBX 11 39 2 -9
BITMAP
0200
0200
0600
0600
0400
0400
0400
FFE0
0C00
0C00
0800
0800
0800
0800
1800
1000
1000
1000
1000
1000
3000
2000
2000
2000
2000
2000
2000
2000
2000
1F00
0800
1800
1E00
0200
0300
0300
0200
0600
7800
ENDCHAR
STARTCHAR 0164
ENCODING 356
SWIDTH 562 0
DWIDTH 25 0
BBX 24 40 4 0
BITMAP
008060
0040C0
006180
002300
001600
001C00
000000
000000
FFFFFF
FFFFFF
001000
001000
001000
001000
003000
002000
002000
002000
002000
002000
006000
004000
004000
004000
004000
004000
00C000
008000
008000
008000
008000
008000
018000
010000
010000
010000
010000
030000
030000
020000
ENDCHAR
STARTCHAR 0165
ENCODING 357
SWIDTH 315 0
DWIDTH 14 0
BBX 14 34 2 0
BITMAP
000C
0008
0008
0008
0218
0210
0620
0600
0400
0400
0400
FFE0
0C00
0C00
0800
0800
0800
0800
1800
1000
1000
1000
1000
1000
3000
2000
2000
2000
2000
2000
2000
2000
2000
1F00
ENDCHAR
STARTCHAR 0166
ENCODING 358
SWIDTH 562 0
DWIDTH 25 0
BBX 24 32 4 0
BITMAP
FFFFFF
FFFFFF
001000
001000
001000
001000
003000
002000
002000
002000
002000
002000
1FFF00
1FFF00
004000
004000
004000
004000
00C000
008000
008000
008000
008000
008000
018000
010000
010000
010000
010000
030000
030000
020000
ENDCHAR
STARTCHAR 0167
ENCODING 359
SWIDTH 292 0
DWIDTH 13 0
BBX 12 30 1 0
BITMAP
0100
0100
0300
0300
0200
0200
0200
7FF0
0600
0600
0400
0400
0400
0400
0C00
FFF0
0800
0800
0800
0800
1800
1000
1000
1000
1000
1000
1000
1000
1000
0F80
ENDCHAR
STARTCHAR 0168
ENCODING 360
SWIDTH 630 0
DWIDTH 28 0
BBX 25 39 3 0
BITMAP
001E0200
00310400
0060DC00
00407000
00000000
00000000
00000000
08000080
08000080
08000080
08000180
18000100
10000100
10000100
10000100
10000300
10000300
30000200
20000200
20000200
20000200
20000600
60000400
40000400
40000400
40000400
40000400
40000C00
C0000800
80000800
80000800
80001800
C0001000
40003000
40006000
6000C000
30018000
18070000
07FC0000
ENDCHAR
STARTCHAR 0169
ENCODING 361
SWIDTH 517 0
DWIDTH 23 0
BBX 19 32 3 0
BITMAP
01E020
031860
020FC0
060380
000000
000000
000000
000000
000000
200060
200060
200040
200040
600040
400040
4000C0
400080
400080
400080
C00080
800080
800180
800100
800100
800100
800100
800300
800700
800600
C01A00
603200
3FC200
ENDCHAR
STARTCHAR 016A
ENCODING 362
SWIDTH 630 0
DWIDTH 28 0
BBX 25 38 3 0
BITMAP
003FFC00
00000000
00000000
00000000
00000000
00000000
08000080
08000080
08000080
08000180
18000100
10000100
10000100
10000100
10000300
10000300
30000200
20000200
20000200
20000200
20000600
60000400
40000400
40000400
40000400
40000400
40000C00
C0000800
80000800
80000800
80001800
C0001000
40003000
40006000
6000C000
30018000
18070000
07FC0000
ENDCHAR
STARTCHAR 016B
ENCODING 363
SWIDTH 517 0
DWIDTH 23 0
BBX 19 31 3 0
BITMAP
03FFC0
000000
000000
000000
000000
000000
000000
000000
200060
200060
200040
200040
600040
400040
4000C0
400080
400080
400080
C00080
800080
800180
800100
800100
800100
800100
800300
800700
800600
C01A00
603200
3FC200
ENDCHAR
STARTCHAR 016C
ENCODING 364
SWIDTH 630 0
DWIDTH 28 0
BBX 25 39 3 0
BITMAP
00200400
00200800
00101800
00183000
0007C000
00000000
00000000
08000080
08000080
08000080
08000180
18000100
10000100
10000100
10000100
10000300
10000300
30000200
20000200
20000200
20000200
20000600
60000400
40000400
40000400
40000400
40000400
40000C00
C0000800
80000800
80000800
80001800
C0001000
40003000
40006000
6000C000
30018000
18070000
07FC0000
ENDCHAR
STARTCHAR 016D
ENCODING 365
SWIDTH 517 0
DWIDTH 23 0
BBX 19 32 3 0
BITMAP
010040
0100C0
010080
00C300
007C00
000000
000000
000000
000000
200060
200060
200040
200040
600040
400040
4000C0
400080
400080
400080
C00080
800080
800180
800100
800100
800100
800100
800300
800700
800600
C01A00
603200
3FC200
ENDCHAR
STARTCHAR 016E
ENCODING 366
SWIDTH 630 0
DWIDTH 28 0
BBX 25 41 3 0
BITMAP
00018000
0003E000
00042000
000C3000
00082000
000C2000
0006C000
00038000
00000000
08000080
08000080
08000080
08000180
18000100
10000100
10000100
10000100
10000300
10000300
30000200
20000200
20000200
20000200
20000600
60000400
40000400
40000400
40000400
40000400
40000C00
C0000800
80000800
80000800
80001800
C0001000
40003000
40006000
6000C000
30018000
18070000
07FC0000
ENDCHAR
STARTCHAR 016F
ENCODING 367
SWIDTH 517 0
DWIDTH 23 0
BBX 19 34 3 0
BITMAP
001C00
003600
004300
004100
004300
004200
007C00
001800
000000
000000
000000
200060
200060
200040
200040
600040
400040
4000C0
400080
400080
400080
C00080
800080
800180
800100
800100
800100
800100
800300
800700
800600
C01A00
603200
3FC200
ENDCHAR
STARTCHAR 0170
ENCODING 368
SWIDTH 630 0
DWIDTH 28 0
BBX 25 40 3 0
BITMAP
00006380
0000C600
00018C00
00031800
00063000
000C6000
00000000
00000000
08000080
08000080
08000080
08000180
18000100
10000100
10000100
10000100
10000300
10000300
30000200
20000200
20000200
20000200
20000600
60000400
40000400
40000400
40000400
40000400
40000C00
C0000800
80000800
80000800
80001800
C0001000
40003000
40006000
6000C000
30018000
18070000
07FC0000
ENDCHAR
STARTCHAR 0171
ENCODING 369
SWIDTH 517 0
DWIDTH 23 0
BBX 21 33 3 0
BITMAP
000618
000C30
001840
003080
006300
00C600
000000
000000
000000
000000
200060
200060
200040
200040
600040
400040
4000C0
400080
400080
400080
C00080
800080
800180
800100
800100
800100
800100
800300
800700
800600
C01A00
603200
3FC200
ENDCHAR
STARTCHAR 0172
ENCODING 370
SWIDTH 630 0
DWIDTH 28 0
BBX 25 40 3 -8
BITMAP
08000080
08000080
08000080
08000180
18000100
10000100
10000100
10000100
10000300
10000300
30000200
20000200
20000200
20000200
20000600
60000400
40000400
40000400
40000400
40000400
40000C00
C0000800
80000800
80000800
80001800
C0001000
40003000
40006000
6000C000
30018000
18070000
07FC0000
00180000
00300000
00600000
00400000
00400000
00400000
006C0000
00380000
ENDCHAR
STARTCHAR 0173
ENCODING 371
SWIDTH 517 0
DWIDTH 23 0
BBX 19 32 3 -9
BITMAP
200060
200060
200040
200040
600040
400040
4000C0
400080
400080
400080
C00080
800080
800180
800100
800100
800100
800100
800300
800700
800600
C01A00
603200
3FC200
000400
001800
003000
006000
004000
004000
004000
007C00
001000
ENDCHAR
STARTCHAR 0174
ENCODING 372
SWIDTH 877 0
DWIDTH 39 0
BBX 37 40 4 0
BITMAP
0000100000
0000380000
00004C0000
0000860000
0003030000
0002010000
0000000000
0000000000
8000200018
C000600010
C000600030
4000E00020
4000B00020
4001900060
4001100040
40011000C0
4002100080
4002100080
4004100100
6004180100
600C080300
2008080200
2018080200
2010080400
2030080400
2020080C00
20200C0800
2040041800
3040041000
30C0041000
1080042000
1180042000
1100046000
1300064000
1200064000
1200028000
1400028000
1C00038000
1C00030000
1800030000
ENDCHAR
STARTCHAR 0175
ENCODING 373
SWIDTH 720 0
DWIDTH 32 0
BBX 28 33 4 0
BITMAP
00010000
00068000
000CC000
00186000
00302000
00601000
00000000
00000000
00000000
00020000
80060010
800E0030
800A0020
801A0060
80120040
801200C0
C0220080
C0230180
40410100
40410100
40810300
40810200
41010600
41010400
42018C00
62008800
64009800
24009000
2C009000
2800A000
3800A000
3000E000
30004000
ENDCHAR
STARTCHAR 0176
ENCODING 374
SWIDTH 562 0
DWIDTH 25 0
BBX 24 40 4 0
BITMAP
000400
000E00
001200
006100
00C180
0180C0
000000
000000
800001
C00002
400006
60000C
200008
200010
300030
100060
180040
080080
080180
040300
040200
060400
020C00
021800
011000
012000
00C000
00C000
008000
008000
008000
018000
010000
010000
010000
010000
010000
030000
020000
020000
ENDCHAR
STARTCHAR 0177
ENCODING 375
SWIDTH 450 0
DWIDTH 20 0
BBX 23 42 -2 -9
BITMAP
000180
0003C0
000660
000C20
001810
003018
000000
000000
000000
040000
040002
040006
060004
02000C
020008
020010
020010
030020
010060
010040
0100C0
018080
008180
008100
008300
008200
00C600
004400
004800
005800
007000
003000
002000
006000
004000
00C000
008000
018000
030000
020000
040000
F80000
ENDCHAR
STARTCHAR 0178
ENCODING 376
SWIDTH 562 0
DWIDTH 25 0
BBX 24 39 4 0
BITMAP
008040
01C060
008040
000000
000000
000000
000000
800001
C00002
400006
60000C
200008
200010
300030
100060
180040
080080
080180
040300
040200
060400
020C00
021800
011000
012000
00C000
00C000
008000
008000
008000
018000
010000
010000
010000
010000
010000
030000
020000
020000
ENDCHAR
STARTCHAR 0179
ENCODING 377
SWIDTH 562 0
DWIDTH 25 0
BBX 26 40 0 0
BITMAP
00000C00
00001800
00003000
00006000
00004000
00008000
00000000
00000000
03FFFFC0
03FFFFC0
00000080
00000100
00000300
00000600
00000C00
00000800
00001000
00002000
00006000
0000C000
00018000
00010000
00020000
00040000
000C0000
00180000
00300000
00600000
00400000
00800000
01000000
03000000
06000000
0C000000
08000000
10000000
20000000
60000000
C0000000
FFFFFC00
ENDCHAR
STARTCHAR 017A
ENCODING 378
SWIDTH 450 0
DWIDTH 20 0
BBX 20 33 0 0
BITMAP
000040
000080
000100
000200
000600
000000
000000
000000
000000
000000
0FFFF0
000020
000040
000080
000180
000300
000600
000C00
000800
001000
002000
004000
00C000
018000
030000
060000
040000
080000
100000
200000
600000
C00000
FFFF80
ENDCHAR
STARTCHAR 017B
ENCODING 379
SWIDTH 562 0
DWIDTH 25 0
BBX 26 38 0 0
BITMAP
0000C000
0000C000
00000000
00000000
00000000
00000000
03FFFFC0
03FFFFC0
00000080
00000100
00000300
00000600
00000C00
00000800
00001000
00002000
00006000
0000C000
00018000
00010000
00020000
00040000
000C0000
00180000
00300000
00600000
00400000
00800000
01000000
03000000
06000000
0C000000
08000000
10000000
20000000
60000000
C0000000
FFFFFC00
ENDCHAR
STARTCHAR 017C
ENCODING 380
SWIDTH 450 0
DWIDTH 20 0
BBX 20 31 0 1
BITMAP
000600
000400
000000
000000
000000
000000
000000
000000
0FFFF0
000020
000040
000080
000180
000300
000600
000C00
000800
001000
002000
004000
00C000
018000
030000
060000
040000
080000
100000
200000
600000
C00000
FFFF80
ENDCHAR
STARTCHAR 017D
ENCODING 381
SWIDTH 562 0
DWIDTH 25 0
BBX 26 40 0 0
BITMAP
00080600
00040C00
00061800
00033000
00016000
0000C000
00000000
00000000
03FFFFC0
03FFFFC0
00000080
00000100
00000300
00000600
00000C00
00000800
00001000
00002000
00006000
0000C000
00018000
00010000
00020000
00040000
000C0000
00180000
00300000
00600000
00400000
00800000
01000000
03000000
06000000
0C000000
08000000
10000000
20000000
60000000
C0000000
FFFFFC00
ENDCHAR
STARTCHAR 017E
ENCODING 382
SWIDTH 450 0
DWIDTH 20 0
BBX 20 33 0 0
BITMAP
004020
002040
003080
001100
000A00
000C00
000000
000000
000000
000000
0FFFF0
000020
000040
000080
000180
000300
000600
000C00
000800
001000
002000
004000
00C000
018000
030000
060000
040000
080000
100000
200000
600000
C00000
FFFF80
ENDCHAR
STARTCHAR 017F
ENCODING 383
SWIDTH 180 0
DWIDTH 8 0
BBX 15 34 1 0
BITMAP
003C
00E6
0180
0300
0200
0600
0400
0400
0400
0400
0C00
0800
0800
0800
0800
0800
1800
1000
1000
1000
1000
1000
3000
2000
2000
2000
2000
2000
6000
4000
4000
4000
4000
C000
ENDCHAR
STARTCHAR 018F
ENCODING 399
SWIDTH 675 0
DWIDTH 30 0
BBX 26 32 3 0
BITMAP
001FE000
00F03800
03800600
06000300
00000100
00000080
00000080
000000C0
00000040
00000040
00000040
00000040
00000040
00000040
00000040
000000C0
00000080
7FFFFF80
C0000080
80000080
80000100
80000100
80000300
80000200
80000600
40000400
40000800
60001800
30003000
18006000
0E018000
03FE0000
ENDCHAR
STARTCHAR 0192
ENCODING 402
SWIDTH 292 0
DWIDTH 13 0
BBX 22 43 -5 -9
BITMAP
00007C
0000E4
000300
000200
000600
000400
000400
000C00
000800
000800
000800
00FFE0
000800
001800
001800
001000
001000
001000
001000
001000
003000
002000
002000
002000
002000
002000
006000
004000
004000
004000
004000
004000
00C000
00C000
008000
008000
008000
008000
010000
010000
020000
060000
FC0000
ENDCHAR
STARTCHAR 01A0
ENCODING 416
SWIDTH 675 0
DWIDTH 30 0
BBX 31 33 3 0
BITMAP
00000002
000FE002
00703804
00C00C04
01000608
02000230
040003E0
0C000100
08000100
10000180
10000180
20000080
20000080
20000180
60000180
40000100
40000100
40000100
40000100
40000300
C0000200
80000200
80000200
80000600
C0000400
40000C00
40000800
40001000
20003000
30006000
1800C000
0C030000
07FE0000
ENDCHAR
STARTCHAR 01A1
ENCODING 417
SWIDTH 517 0
DWIDTH 23 0
BBX 26 26 1 0
BITMAP
000000C0
00000080
003E0080
01E18100
03004300
06003E00
0C003000
18001000
10001000
20001800
20000800
40000800
40000800
40000800
40001800
C0001000
C0001000
C0003000
C0002000
40002000
40004000
4000C000
20018000
30030000
180E0000
07F80000
ENDCHAR
STARTCHAR 01AF
ENCODING 431
SWIDTH 630 0
DWIDTH 28 0
BBX 31 34 3 0
BITMAP
00000002
00000002
08000082
08000086
08000084
08000188
18000130
100001E0
10000100
10000100
10000300
10000300
30000200
20000200
20000200
20000200
20000600
60000400
40000400
40000400
40000400
40000400
40000C00
C0000800
80000800
80000800
80001800
C0001000
40003000
40006000
6000C000
30018000
18070000
07FC0000
ENDCHAR
STARTCHAR 01B0
ENCODING 432
SWIDTH 517 0
DWIDTH 23 0
BBX 24 26 3 0
BITMAP
000001
000001
000003
200062
200064
200078
200040
600040
400040
4000C0
400080
400080
400080
C00080
800080
800180
800100
800100
800100
800100
800300
800700
800600
C01A00
603200
3FC200
ENDCHAR
STARTCHAR 01F0
ENCODING 496
SWIDTH 180 0
DWIDTH 8 0
BBX 20 41 -7 -9
BITMAP
006030
002060
0010C0
001980
000F00
000600
000000
000000
000000
000400
000C00
000800
000800
000800
000800
001800
001800
001000
001000
001000
001000
003000
002000
002000
002000
002000
002000
006000
004000
004000
004000
004000
004000
00C000
008000
008000
018000
010000
030000
060000
FC0000
ENDCHAR
STARTCHAR 01FA
ENCODING 506
SWIDTH 562 0
DWIDTH 25 0
BBX 24 42 -1 0
BITMAP
000003
000004
000008
000010
000020
000000
0000F0
000110
000310
000310
0001E0
0000C0
0001C0
000140
000260
000220
000420
000420
000820
001820
001030
003010
002010
006010
004010
00C018
008008
010008
010008
020008
02000C
07FFFC
07FFFC
080004
180004
100006
300002
200002
600002
400002
C00003
800003
ENDCHAR
STARTCHAR 01FB
ENCODING 507
SWIDTH 495 0
DWIDTH 22 0
BBX 20 35 1 0
BITMAP
000030
000040
000080
000100
000200
000000
000F00
001100
001100
003100
001A00
007E00
03C380
0600C0
0C0040
180060
100020
300020
000060
000040
000040
000040
01FFC0
0F0040
3800C0
600080
400080
800080
800080
800180
800380
800700
C00D00
603100
3FC100
ENDCHAR
STARTCHAR 01FC
ENCODING 508
SWIDTH 855 0
DWIDTH 38 0
BBX 40 40 -1 0
BITMAP
0000000400
0000000800
0000001000
0000002000
0000006000
000000C000
0000000000
0000000000
000000FFFF
000001FFFF
0000038000
0000068000
0000048000
0000088000
0000198000
0000318000
0000210000
0000410000
0000C10000
0001810000
0001010000
0002010000
0006030000
000C03FFF0
0008020000
0010020000
0020020000
0060020000
00C0020000
0080020000
01FFFE0000
0300040000
0600040000
0400040000
0800040000
1800040000
3000040000
20000C0000
40000C0000
C0000FFFF0
ENDCHAR
STARTCHAR 01FD
ENCODING 509
SWIDTH 810 0
DWIDTH 36 0
BBX 34 33 1 0
BITMAP
0000018000
0000030000
0000060000
00000C0000
0000080000
0000100000
0000000000
0000000000
0000000000
007C00FC00
03C7038700
0601860180
0C008C0080
1800D800C0
1000700040
3000600040
0000600040
0000400040
0000C00040
007FFFFFC0
07FF800000
1800800000
3000800000
6001800000
C001800000
8001800000
8001800000
8001800000
8003800000
8002400000
C00C600600
6038301C00
3FE01FF000
ENDCHAR
STARTCHAR 01FE
ENCODING 510
SWIDTH 630 0
DWIDTH 28 0
BBX 28 44 1 -2
BITMAP
00000200
00000400
00000C00
00001800
00003000
00002000
00000000
00000000
00000000
00000000
0007F030
001C1C60
00600640
00C00380
01800180
03000380
06000280
04000440
0C000840
08001840
08003040
10002040
10004040
1000C040
10018040
300300C0
20020080
20040080
200C0080
20180080
20300180
20200100
20400100
20C00200
21800200
21000400
32000C00
14000800
1C001000
1C006000
1601C000
21FF0000
60000000
C0000000
ENDCHAR
STARTCHAR 01FF
ENCODING 511
SWIDTH 517 0
DWIDTH 23 0
BBX 21 36 1 -3
BITMAP
000080
000100
000200
000600
000C00
001800
000000
000010
000030
003E20
01E1C0
0300C0
0600A0
0C0130
180310
100210
200618
200408
400808
401808
401008
402018
C06010
C04010
C08030
C18020
410020
420040
4600C0
240180
3C0300
180E00
17F800
300000
200000
400000
ENDCHAR
STARTCHAR 0218
ENCODING 536
SWIDTH 562 0
DWIDTH 25 0
BBX 24 41 1 -9
BITMAP
001FE0
007038
01800C
030006
060002
040001
080001
080001
080001
080000
080000
0C0000
060000
030000
00E000
003C00
000700
0000C0
000030
000018
000008
00000C
000004
800004
800004
80000C
C00008
400018
600030
300060
1C0180
07FE00
000000
000000
004000
004000
004000
00C000
008000
018000
010000
ENDCHAR
STARTCHAR 0219
ENCODING 537
SWIDTH 472 0
DWIDTH 21 0
BBX 18 33 1 -9
BITMAP
00FC00
03C700
060180
0800C0
100040
100040
100040
100000
100000
080000
060000
03C000
003800
000E00
000300
000100
000180
000080
800180
800100
C00300
600600
300C00
1FF000
000000
000000
010000
010000
030000
020000
020000
040000
0C0000
ENDCHAR
STARTCHAR 021A
ENCODING 538
SWIDTH 562 0
DWIDTH 25 0
BBX 24 41 4 -9
BITMAP
FFFFFF
FFFFFF
001000
001000
001000
001000
003000
002000
002000
002000
002000
002000
006000
004000
004000
004000
004000
004000
00C000
008000
008000
008000
008000
008000
018000
010000
010000
010000
010000
030000
030000
020000
000000
000000
020000
060000
040000
040000
0C0000
080000
100000
ENDCHAR
STARTCHAR 021B
ENCODING 539
SWIDTH 292 0
DWIDTH 13 0
BBX 11 39 2 -9
BITMAP
0200
0200
0600
0600
0400
0400
0400
FFE0
0C00
0C00
0800
0800
0800
0800
1800
1000
1000
1000
1000
1000
3000
2000
2000
2000
2000
2000
2000
2000
2000
1F00
0000
0000
1800
1000
1000
1000
3000
2000
4000
ENDCHAR
STARTCHAR 0237
ENCODING 567
SWIDTH 180 0
DWIDTH 8 0
BBX 14 32 -7 -9
BITMAP
0004
000C
0008
0008
0008
0008
0018
0018
0010
0010
0010
0010
0030
0020
0020
0020
0020
0020
0060
0040
0040
0040
0040
0040
00C0
0080
0080
0180
0100
0300
0600
FC00
ENDCHAR
STARTCHAR 0259
ENCODING 601
SWIDTH 472 0
DWIDTH 21 0
BBX 19 24 1 0
BITMAP
00FC00
078700
0C0180
100080
000040
000040
000020
000020
000020
000020
000020
000020
000020
FFFFE0
800040
800040
8000C0
800080
800180
C00100
400200
600400
301800
1FE000
ENDCHAR
STARTCHAR 02BC
ENCODING 700
SWIDTH 135 0
DWIDTH 6 0
BBX 4 8 4 25
BITMAP
10
10
30
20
20
60
C0
80
ENDCHAR
STARTCHAR 02C6
ENCODING 710
SWIDTH 360 0
DWIDTH 16 0
BBX 10 6 6 27
BITMAP
0600
0E00
1900
2180
40C0
8040
ENDCHAR
STARTCHAR 02C7
ENCODING 711
SWIDTH 360 0
DWIDTH 16 0
BBX 11 6 6 27
BITMAP
C020
4040
2180
3300
1E00
0C00
ENDCHAR
STARTCHAR 02C9
ENCODING 713
SWIDTH 382 0
DWIDTH 17 0
BBX 12 1 5 30
BITMAP
FFF0
ENDCHAR
STARTCHAR 02D8
ENCODING 728
SWIDTH 405 0
DWIDTH 18 0
BBX 12 5 6 27
BITMAP
8030
8020
C060
60C0
3F00
ENDCHAR
STARTCHAR 02D9
ENCODING 729
SWIDTH 180 0
DWIDTH 8 0
BBX 3 3 6 29
BITMAP
40
E0
C0
ENDCHAR
STARTCHAR 02DA
ENCODING 730
SWIDTH 270 0
DWIDTH 12 0
BBX 8 8 5 26
BITMAP
1C
36
42
C3
82
C2
6C
38
ENDCHAR
STARTCHAR 02DB
ENCODING 731
SWIDTH 202 0
DWIDTH 9 0
BBX 5 9 -1 -9
BITMAP
18
30
40
C0
80
80
80
F8
20
ENDCHAR
STARTCHAR 02DC
ENCODING 732
SWIDTH 382 0
DWIDTH 17 0
BBX 14 4 4 28
BITMAP
1C04
760C
4198
C0F0
ENDCHAR
STARTCHAR 02DD
ENCODING 733
SWIDTH 360 0
DWIDTH 16 0
BBX 13 6 6 27
BITMAP
0638
0C60
18C0
3180
6300
C600
ENDCHAR
STARTCHAR 02F3
ENCODING 755
SWIDTH 292 0
DWIDTH 13 0
BBX 6 5 1 -7
BITMAP
30
F8
8C
88
F0
ENDCHAR
STARTCHAR 0300
ENCODING 768
SWIDTH 0 0
DWIDTH 0 0
BBX 4 5 -12 28
BITMAP
C0
40
60
20
30
ENDCHAR
STARTCHAR 0301
ENCODING 769
SWIDTH 0 0
DWIDTH 0 0
BBX 5 5 -9 28
BITMAP
08
10
20
60
C0
ENDCHAR
STARTCHAR 0303
ENCODING 771
SWIDTH 0 0
DWIDTH 0 0
BBX 14 4 -15 28
BITMAP
1804
760C
4118
80F0
ENDCHAR
STARTCHAR 0309
ENCODING 777
SWIDTH 0 0
DWIDTH 0 0
BBX 6 8 -10 27
BITMAP
C0
38
0C
04
0C
18
F0
80
ENDCHAR
STARTCHAR 030F
ENCODING 783
SWIDTH 0 0
DWIDTH 0 0
BBX 11 6 -17 27
BITMAP
C300
6180
3080
18C0
0C60
0620
ENDCHAR
STARTCHAR 0323
ENCODING 803
SWIDTH 0 0
DWIDTH 0 0
BBX 2 2 -16 -6
BITMAP
C0
C0
ENDCHAR
STARTCHAR 0384
ENCODING 900
SWIDTH 225 0
DWIDTH 10 0
BBX 4 6 7 28
BITMAP
10
30
20
60
40
80
ENDCHAR
STARTCHAR 0385
ENCODING 901
SWIDTH 427 0
DWIDTH 19 0
BBX 12 6 7 30
BITMAP
0100
0300
0300
0200
C230
C030
ENDCHAR
STARTCHAR 0386
ENCODING 902
SWIDTH 562 0
DWIDTH 25 0
BBX 24 34 -1 0
BITMAP
002000
006000
0040C0
00C0C0
0081C0
018140
000260
000220
000420
000420
000820
001820
001030
003010
002010
006010
004010
00C018
008008
010008
010008
020008
02000C
07FFFC
07FFFC
080004
180004
100006
300002
200002
600002
400002
C00003
800003
ENDCHAR
STARTCHAR 0387
ENCODING 903
SWIDTH 202 0
DWIDTH 9 0
BBX 3 3 4 14
BITMAP
40
E0
C0
ENDCHAR
STARTCHAR 0388
ENCODING 904
SWIDTH 585 0
DWIDTH 26 0
BBX 27 34 1 0
BITMAP
10000000
30000000
207FFFE0
60FFFFE0
40800000
80800000
00800000
00800000
00800000
01800000
01000000
01000000
01000000
01000000
03000000
03000000
02000000
03FFFE00
02000000
02000000
06000000
04000000
04000000
04000000
04000000
04000000
0C000000
08000000
08000000
08000000
08000000
08000000
18000000
1FFFFC00
ENDCHAR
STARTCHAR 0389
ENCODING 905
SWIDTH 720 0
DWIDTH 32 0
BBX 30 34 1 0
BITMAP
10000000
30000000
20400004
60C00004
40800004
C0800004
00800004
0080000C
00800008
01800008
01000008
01000008
01000008
01000018
03000010
03000010
02000010
03FFFFF0
02000010
02000030
06000020
04000020
04000020
04000020
04000060
04000040
0C000040
08000040
08000040
08000040
080000C0
08000080
18000080
10000080
ENDCHAR
STARTCHAR 038A
ENCODING 906
SWIDTH 292 0
DWIDTH 13 0
BBX 10 34 2 0
BITMAP
1000
2000
20C0
4080
4080
8080
0080
0080
0180
0100
0100
0100
0100
0300
0300
0200
0200
0200
0200
0600
0400
0400
0400
0400
0400
0C00
0800
0800
0800
0800
0800
1800
1000
1000
ENDCHAR
STARTCHAR 038C
ENCODING 908
SWIDTH 652 0
DWIDTH 29 0
BBX 24 34 3 0
BITMAP
180000
100000
301FC0
207030
41C00C
430004
060002
040002
080001
180001
100001
300001
200001
200001
600001
400001
400001
400001
400001
C00003
C00002
800002
800002
800006
800004
800004
C00008
400008
400010
600030
200060
1000C0
0C0300
07FC00
ENDCHAR
STARTCHAR 038E
ENCODING 910
SWIDTH 607 0
DWIDTH 27 0
BBX 29 34 1 0
BITMAP
10000000
30000000
26000008
42000018
42000030
83000020
01000040
018000C0
00800180
00800100
00C00200
00400400
00600C00
00200800
00201000
00102000
00106000
0018C000
00088000
00090000
00070000
00060000
00040000
00040000
00040000
00040000
000C0000
00080000
00080000
00080000
00080000
00080000
00180000
00100000
ENDCHAR
STARTCHAR 038F
ENCODING 911
SWIDTH 630 0
DWIDTH 28 0
BBX 25 34 1 0
BITMAP
02000000
06000000
0407F000
081C1C00
08600600
10C00200
01800100
01000100
02000180
06000080
04000080
0C000080
08000080
08000080
18000080
10000080
10000080
10000080
10000180
10000100
10000100
10000100
10000200
10000200
10000600
10000400
10000C00
08001800
08001000
04002000
0600C000
03018000
01860000
FF87FC00
ENDCHAR
STARTCHAR 0390
ENCODING 912
SWIDTH 247 0
DWIDTH 11 0
BBX 12 35 1 0
BITMAP
0300
0300
0300
4200
E630
C020
0000
0000
0000
0000
0000
0000
0800
0800
0800
0800
1800
1800
1000
1000
1000
1000
3000
2000
2000
2000
2000
2000
6000
4000
4000
4000
6000
2000
1E00
ENDCHAR
STARTCHAR 0391
ENCODING 913
SWIDTH 562 0
DWIDTH 25 0
BBX 24 32 -1 0
BITMAP
0000C0
0000C0
0001C0
000140
000260
000220
000420
000420
000820
001820
001030
003010
002010
006010
004010
00C018
008008
010008
010008
020008
02000C
07FFFC
07FFFC
080004
180004
100006
300002
200002
600002
400002
C00003
800003
ENDCHAR
STARTCHAR 0392
ENCODING 914
SWIDTH 585 0
DWIDTH 26 0
BBX 22 32 2 0
BITMAP
07FC00
07FFE0
040030
040008
04000C
040004
0C0004
080004
080004
080004
08000C
180008
180010
100030
1000C0
1FFF00
1003C0
300060
200030
200010
200008
200008
200008
600008
400018
400010
400010
400020
400040
C00180
800700
FFF800
ENDCHAR
STARTCHAR 0393
ENCODING 915
SWIDTH 517 0
DWIDTH 23 0
BBX 23 32 2 0
BITMAP
07FFFE
07FFFE
040000
040000
040000
0C0000
080000
080000
080000
080000
080000
180000
100000
100000
100000
100000
300000
300000
200000
200000
200000
200000
600000
400000
400000
400000
400000
400000
C00000
800000
800000
800000
ENDCHAR
STARTCHAR 0394
ENCODING 916
SWIDTH 652 0
DWIDTH 29 0
BBX 27 32 -1 0
BITMAP
00003000
00003000
00005000
00005000
00008800
00018800
00010800
00030800
00020C00
00040400
000C0400
00080400
00180600
00100200
00200200
00200200
00400300
00C00100
00800100
01800100
01000180
02000080
06000080
04000080
0C0000C0
08000040
10000040
10000040
20000040
60000060
40000020
FFFFFFE0
ENDCHAR
STARTCHAR 0395
ENCODING 917
SWIDTH 540 0
DWIDTH 24 0
BBX 24 32 2 0
BITMAP
07FFFF
07FFFF
040000
040000
040000
040000
0C0000
080000
080000
080000
080000
180000
180000
100000
100000
1FFFE0
100000
300000
200000
200000
200000
200000
200000
600000
400000
400000
400000
400000
400000
C00000
800000
FFFFE0
ENDCHAR
STARTCHAR 0396
ENCODING 918
SWIDTH 562 0
DWIDTH 25 0
BBX 26 32 0 0
BITMAP
03FFFFC0
03FFFFC0
00000080
00000100
00000300
00000600
00000C00
00000800
00001000
00002000
00006000
0000C000
00018000
00010000
00020000
00040000
000C0000
00180000
00300000
00600000
00400000
00800000
01000000
03000000
06000000
0C000000
08000000
10000000
20000000
60000000
C0000000
FFFFFC00
ENDCHAR
STARTCHAR 0397
ENCODING 919
SWIDTH 675 0
DWIDTH 30 0
BBX 27 32 2 0
BITMAP
06000020
04000020
04000020
04000020
04000060
04000040
0C000040
08000040
08000040
08000040
080000C0
18000080
18000080
10000080
10000080
1FFFFF80
10000180
30000100
20000100
20000100
20000100
20000300
20000200
60000200
40000200
40000200
40000200
40000600
40000400
C0000400
80000400
80000400
ENDCHAR
STARTCHAR 0398
ENCODING 920
SWIDTH 630 0
DWIDTH 28 0
BBX 24 32 3 0
BITMAP
001FC0
007070
018018
03000C
060006
0C0002
180002
100001
300001
200001
200001
400001
400001
400001
400001
C00003
87FFC2
800002
800002
800002
800006
800004
800004
800008
800008
800010
C00030
400020
600040
300180
180700
07FC00
ENDCHAR
STARTCHAR 0399
ENCODING 921
SWIDTH 247 0
DWIDTH 11 0
BBX 6 32 3 0
BITMAP
04
04
04
04
04
0C
08
08
08
08
18
18
10
10
10
10
30
20
20
20
20
20
60
40
40
40
40
40
C0
80
80
80
ENDCHAR
STARTCHAR 039A
ENCODING 922
SWIDTH 607 0
DWIDTH 27 0
BBX 26 32 2 0
BITMAP
060000C0
04000180
04000300
04000600
04000800
04003000
0C006000
0800C000
08018000
08030000
08060000
18080000
18300000
10600000
10C00000
11C00000
13200000
34300000
28100000
30080000
200C0000
20060000
20020000
60030000
40018000
40008000
4000C000
40006000
40002000
C0003000
80001800
80000800
ENDCHAR
STARTCHAR 039B
ENCODING 923
SWIDTH 607 0
DWIDTH 27 0
BBX 23 32 0 0
BITMAP
0000C0
0000C0
000140
000140
000240
000260
000420
000C20
000820
001820
001030
003030
002010
006010
004010
00C010
008018
018008
010008
020008
020008
04000C
04000C
080004
080004
100004
300004
200006
600002
400002
C00002
800002
ENDCHAR
STARTCHAR 039C
ENCODING 924
SWIDTH 810 0
DWIDTH 36 0
BBX 34 32 2 0
BITMAP
06000000C0
06000000C0
07000001C0
0500000380
0500000280
0500000680
0D80000480
0880000880
0880001980
0880001100
08C0003100
1840002100
1840004100
104000C100
1060008300
1020018200
1020010200
3020020200
2030060200
2010040200
20100C0600
2010080400
2018100400
6008300400
4008200400
4008600C00
400C400800
4004800800
4005800800
C005000800
8007000800
8002001800
ENDCHAR
STARTCHAR 039D
ENCODING 925
SWIDTH 675 0
DWIDTH 30 0
BBX 28 32 2 0
BITMAP
06000030
06000020
07000020
05000020
05800020
0C800060
0CC00040
08400040
08600040
08200040
08300040
181000C0
18180080
10080080
100C0080
10040080
10060080
30020180
20030100
20010100
20018100
20008100
2000C300
60004300
40006200
40002200
40002200
40001200
40001600
C0000E00
80000C00
80000400
ENDCHAR
STARTCHAR 039E
ENCODING 926
SWIDTH 517 0
DWIDTH 23 0
BBX 24 32 0 0
BITMAP
03FFFF
03FFFF
000000
000000
000000
000000
000000
000000
000000
000000
000000
000000
000000
000000
000000
000000
07FFE0
000000
000000
000000
000000
000000
000000
000000
000000
000000
000000
000000
000000
000000
000000
FFFFE0
ENDCHAR
STARTCHAR 039F
ENCODING 927
SWIDTH 630 0
DWIDTH 28 0
BBX 24 32 3 0
BITMAP
001FC0
007070
018018
03000C
060006
0C0002
180002
100001
300001
200001
200001
400001
400001
400001
400001
C00003
800002
800002
800002
800002
800006
800004
800004
800008
800008
800010
C00030
400020
600040
300180
180700
07FC00
ENDCHAR
STARTCHAR 03A0
ENCODING 928
SWIDTH 675 0
DWIDTH 30 0
BBX 27 32 2 0
BITMAP
07FFFFE0
07FFFFE0
04000020
04000020
04000060
04000040
0C000040
08000040
08000040
08000040
080000C0
18000080
18000080
10000080
10000080
10000080
10000180
30000100
20000100
20000100
20000100
20000300
20000200
60000200
40000200
40000200
40000200
40000600
40000400
C0000400
80000400
80000400
ENDCHAR
STARTCHAR 03A1
ENCODING 929
SWIDTH 562 0
DWIDTH 25 0
BBX 23 32 2 0
BITMAP
07FF00
07FFF0
040018
04000C
040006
040002
0C0002
080002
080002
080002
080002
180002
180004
100004
100008
100030
100060
3FFF80
3FF800
200000
200000
200000
200000
600000
400000
400000
400000
400000
400000
C00000
800000
800000
ENDCHAR
STARTCHAR 03A3
ENCODING 931
SWIDTH 517 0
DWIDTH 23 0
BBX 25 32 -1 0
BITMAP
07FFFF80
07FFFF80
03000000
01000000
01800000
00C00000
00400000
00600000
00300000
00100000
00180000
000C0000
00040000
00020000
00030000
00020000
00040000
000C0000
00180000
00300000
00600000
00400000
00800000
01000000
02000000
06000000
0C000000
18000000
30000000
60000000
40000000
FFFFF800
ENDCHAR
STARTCHAR 03A4
ENCODING 932
SWIDTH 562 0
DWIDTH 25 0
BBX 24 32 4 0
BITMAP
FFFFFF
FFFFFF
001000
001000
001000
001000
003000
002000
002000
002000
002000
002000
006000
004000
004000
004000
004000
004000
00C000
008000
008000
008000
008000
008000
018000
010000
010000
010000
010000
030000
030000
020000
ENDCHAR
STARTCHAR 03A5
ENCODING 933
SWIDTH 562 0
DWIDTH 25 0
BBX 24 32 4 0
BITMAP
800001
C00002
400006
60000C
200008
200010
300030
100060
180040
080080
080180
040300
040200
060400
020C00
021800
011000
012000
00C000
00C000
008000
008000
008000
018000
010000
010000
010000
010000
010000
030000
020000
020000
ENDCHAR
STARTCHAR 03A6
ENCODING 934
SWIDTH 675 0
DWIDTH 30 0
BBX 27 32 2 0
BITMAP
00008000
00008000
00008000
00018000
00010000
003FF800
00E10600
03010100
06010080
08030040
10020060
30020020
20020020
60020020
40020020
40060020
40040020
C0040020
C0040060
40040040
400C00C0
400C0180
20080300
30080600
18080C00
06087000
01FFC000
00180000
00100000
00100000
00100000
00100000
ENDCHAR
STARTCHAR 03A7
ENCODING 935
SWIDTH 562 0
DWIDTH 25 0
BBX 27 32 0 0
BITMAP
0C000020
04000040
02000080
02000180
01000300
01000600
00800C00
00C00800
00401000
00603000
00206000
0030C000
00118000
00190000
000A0000
000C0000
000C0000
001A0000
00320000
00210000
00410000
00808000
0180C000
03004000
06006000
04002000
08003000
10001000
20001800
60000800
C0000C00
80000400
ENDCHAR
STARTCHAR 03A8
ENCODING 936
SWIDTH 675 0
DWIDTH 30 0
BBX 26 32 4 0
BITMAP
30020040
20060040
200400C0
200400C0
20040080
20040080
60040080
400C0080
40080180
40080100
40080100
40080100
C0080100
C0180300
C0100200
40100600
40100400
60100C00
20101800
30303000
1820E000
07278000
01FC0000
00200000
00600000
00600000
00400000
00400000
00400000
00400000
00C00000
00800000
ENDCHAR
STARTCHAR 03A9
ENCODING 937
SWIDTH 607 0
DWIDTH 27 0
BBX 26 32 0 0
BITMAP
0003F000
001C1C00
00300600
00600300
00C00180
01800080
03000080
020000C0
06000040
04000040
04000040
0C000040
08000040
080000C0
080000C0
18000080
18000080
10000080
10000180
10000100
10000100
10000300
10000200
18000600
08000400
08000800
04001800
04003000
02006000
01818000
00C30000
FFC3FE00
ENDCHAR
STARTCHAR 03AA
ENCODING 938
SWIDTH 247 0
DWIDTH 11 0
BBX 13 39 3 0
BITMAP
6018
6038
0000
0000
0000
0000
0000
0400
0400
0400
0400
0400
0C00
0800
0800
0800
0800
1800
1800
1000
1000
1000
1000
3000
2000
2000
2000
2000
2000
6000
4000
4000
4000
4000
4000
C000
8000
8000
8000
ENDCHAR
STARTCHAR 03AB
ENCODING 939
SWIDTH 562 0
DWIDTH 25 0
BBX 24 39 4 0
BITMAP
008040
01C060
008040
000000
000000
000000
000000
800001
C00002
400006
60000C
200008
200010
300030
100060
180040
080080
080180
040300
040200
060400
020C00
021800
011000
012000
00C000
00C000
008000
008000
008000
018000
010000
010000
010000
010000
010000
030000
020000
020000
ENDCHAR
STARTCHAR 03AC
ENCODING 940
SWIDTH 540 0
DWIDTH 24 0
BBX 20 32 2 0
BITMAP
000180
000100
000200
000200
000400
000000
000000
000000
00F800
038E10
060320
0C01A0
1800A0
100060
200060
200060
600040
400040
400040
C00040
C00040
8000C0
800080
800080
800080
800180
800180
C00380
400700
600D80
303880
1FE0F0
ENDCHAR
STARTCHAR 03AD
ENCODING 941
SWIDTH 517 0
DWIDTH 23 0
BBX 20 32 1 0
BITMAP
000100
000200
000200
000400
000400
000000
000000
000000
007E00
03E3C0
060060
080030
180010
100010
100010
100000
100000
100000
0C0000
03FC00
07FC00
180000
200000
400000
400000
800020
800060
800040
C000C0
600180
300600
0FF800
ENDCHAR
STARTCHAR 03AE
ENCODING 942
SWIDTH 517 0
DWIDTH 23 0
BBX 20 41 1 -9
BITMAP
000180
000100
000200
000200
000400
000000
000000
000000
003F00
08E1C0
098060
0B0020
0E0020
0C0030
180030
180030
100030
100020
100020
100020
300020
200060
200060
200040
200040
600040
400040
4000C0
400080
400080
400080
C00080
000080
000180
000100
000100
000100
000100
000100
000300
000200
ENDCHAR
STARTCHAR 03AF
ENCODING 943
SWIDTH 247 0
DWIDTH 11 0
BBX 8 32 2 0
BITMAP
03
02
06
04
0C
08
00
00
00
10
10
10
10
30
30
20
20
20
20
60
40
40
40
40
40
C0
80
80
80
C0
40
3C
ENDCHAR
STARTCHAR 03B0
ENCODING 944
SWIDTH 495 0
DWIDTH 22 0
BBX 17 35 3 0
BITMAP
001800
001800
001000
003100
063380
060100
000000
000000
000000
000000
000000
000100
200100
200180
200180
200080
600080
400080
400080
400080
400080
400180
C00100
800100
800100
800100
800300
800200
800200
800400
800C00
801800
C03000
606000
3FC000
ENDCHAR
STARTCHAR 03B1
ENCODING 945
SWIDTH 540 0
DWIDTH 24 0
BBX 20 24 2 0
BITMAP
00F800
038E10
060320
0C01A0
1800A0
100060
200060
200060
600040
400040
400040
C00040
C00040
8000C0
800080
800080
800080
800180
800180
C00380
400700
600D80
303880
1FE0F0
ENDCHAR
STARTCHAR 03B2
ENCODING 946
SWIDTH 562 0
DWIDTH 25 0
BBX 23 41 0 -9
BITMAP
0007C0
001830
006008
00C00C
008004
010004
010006
020004
020004
020004
02000C
060008
040010
040030
0401C0
041F80
0400E0
0C0010
080008
08000C
080004
080004
180004
180004
100004
100008
100008
100018
380030
2C0060
2601C0
21FF00
200000
200000
600000
400000
400000
400000
400000
400000
C00000
ENDCHAR
STARTCHAR 03B3
ENCODING 947
SWIDTH 450 0
DWIDTH 20 0
BBX 18 33 3 -9
BITMAP
800000
800040
800080
C00080
400100
400300
400200
400600
600400
200C00
200800
201000
201000
302000
106000
104000
10C000
108000
198000
090000
0B0000
0A0000
0C0000
0C0000
0C0000
080000
080000
080000
080000
180000
180000
100000
100000
ENDCHAR
STARTCHAR 03B4
ENCODING 948
SWIDTH 517 0
DWIDTH 23 0
BBX 21 34 1 0
BITMAP
000FC0
0078F0
00C000
010000
030000
020000
020000
020000
010000
018000
006000
003E00
01E700
0300C0
040060
080020
100030
300010
200018
600018
400018
400018
400018
C00010
800010
800010
C00020
C00020
400040
4000C0
200180
300300
180E00
07F800
ENDCHAR
STARTCHAR 03B5
ENCODING 949
SWIDTH 517 0
DWIDTH 23 0
BBX 20 24 1 0
BITMAP
007E00
03E3C0
060060
080030
180010
100010
100010
100000
100000
100000
0C0000
03FC00
07FC00
180000
200000
400000
400000
800020
800060
800040
C000C0
600180
300600
0FF800
ENDCHAR
STARTCHAR 03B6
ENCODING 950
SWIDTH 450 0
DWIDTH 20 0
BBX 19 40 3 -9
BITMAP
7FFFE0
7FFFE0
0000C0
000180
000300
000600
000C00
000800
001000
002000
004000
008000
018000
030000
060000
0C0000
080000
100000
200000
600000
400000
C00000
800000
800000
800000
800000
800000
800000
400000
300000
0E0000
03C000
003000
001000
001800
001000
001000
003000
006000
00C000
ENDCHAR
STARTCHAR 03B7
ENCODING 951
SWIDTH 517 0
DWIDTH 23 0
BBX 20 33 1 -9
BITMAP
003F00
08E1C0
098060
0B0020
0E0020
0C0030
180030
180030
100030
100020
100020
100020
300020
200060
200060
200040
200040
600040
400040
4000C0
400080
400080
400080
C00080
000080
000180
000100
000100
000100
000100
000100
000300
000200
ENDCHAR
STARTCHAR 03B8
ENCODING 952
SWIDTH 540 0
DWIDTH 24 0
BBX 20 32 3 0
BITMAP
007F00
00C180
030040
060060
040020
080020
180010
100010
100010
200010
200010
200010
600010
400030
400020
400020
7FFFE0
400020
C00020
800060
800040
800040
800040
800080
800080
800180
800100
400300
400600
600C00
301800
1FE000
ENDCHAR
STARTCHAR 03B9
ENCODING 953
SWIDTH 247 0
DWIDTH 11 0
BBX 6 23 2 0
BITMAP
10
10
10
10
30
30
20
20
20
20
60
40
40
40
40
40
C0
80
80
80
C0
40
3C
ENDCHAR
STARTCHAR 03BA
ENCODING 954
SWIDTH 495 0
DWIDTH 22 0
BBX 21 23 1 0
BITMAP
080038
080060
0800C0
080180
180300
180600
100800
101000
106000
10C000
3F8000
3F8000
20C000
204000
202000
203000
601800
400C00
400600
400200
400100
400080
C000C0
ENDCHAR
STARTCHAR 03BB
ENCODING 955
SWIDTH 517 0
DWIDTH 23 0
BBX 22 33 -1 0
BITMAP
00E000
001000
000800
000800
000C00
000400
000400
000400
000400
000600
000600
000E00
000A00
001200
001200
002300
006100
004100
00C100
008100
010180
010080
020080
060080
040080
0C0080
0800C0
100040
100040
200040
600060
400020
C0003C
ENDCHAR
STARTCHAR 03BC
ENCODING 956
SWIDTH 517 0
DWIDTH 23 0
BBX 22 32 0 -9
BITMAP
040004
04000C
040008
040008
040008
080008
080018
080018
080010
080010
180010
100010
100030
100020
100020
100020
300060
300060
3000E0
3001C0
280340
2C0640
63F840
400000
400000
400000
400000
400000
C00000
800000
800000
800000
ENDCHAR
STARTCHAR 03BD
ENCODING 957
SWIDTH 450 0
DWIDTH 20 0
BBX 18 24 3 0
BITMAP
800000
800040
800080
800080
C00100
400300
400200
400600
600400
200C00
200800
201800
201000
302000
102000
104000
104000
188000
098000
090000
0B0000
0A0000
0E0000
040000
ENDCHAR
STARTCHAR 03BE
ENCODING 958
SWIDTH 472 0
DWIDTH 21 0
BBX 21 40 2 -8
BITMAP
001FE0
007038
018000
030000
020000
040000
040000
040000
040000
040000
040000
030000
01E000
007F00
038000
0E0000
180000
300000
200000
400000
400000
C00000
800000
800000
800000
800000
400000
600000
300000
180000
060000
01E000
003800
000C00
000400
000400
000400
000800
001800
002000
ENDCHAR
STARTCHAR 03BF
ENCODING 959
SWIDTH 517 0
DWIDTH 23 0
BBX 21 24 1 0
BITMAP
003E00
01C380
030040
040020
080030
180010
100010
200018
200008
600008
400008
400008
400018
C00010
C00010
C00010
400030
400020
400040
6000C0
200180
100300
1C0600
07F800
ENDCHAR
STARTCHAR 03C0
ENCODING 960
SWIDTH 562 0
DWIDTH 25 0
BBX 22 23 3 0
BITMAP
FFFFFC
080040
0800C0
180080
180080
100080
100080
100080
100180
300100
200100
200100
200100
200300
200200
600200
400200
400200
400200
400200
400200
C00300
8001F0
ENDCHAR
STARTCHAR 03C1
ENCODING 961
SWIDTH 517 0
DWIDTH 23 0
BBX 21 33 0 -9
BITMAP
001F80
0070C0
00C020
018010
030010
060008
040008
0C0008
080008
080008
080008
180008
180008
100018
100010
100010
100030
300020
300020
300040
3000C0
280180
260300
63FC00
400000
400000
400000
400000
400000
C00000
800000
800000
800000
ENDCHAR
STARTCHAR 03C2
ENCODING 962
SWIDTH 495 0
DWIDTH 22 0
BBX 19 32 2 -8
BITMAP
007E00
01C300
060080
0C0040
180060
100020
300020
200020
600000
400000
400000
C00000
C00000
800000
800000
800000
800000
C00000
400000
600000
300000
180000
0E0000
03C000
007000
001800
000800
000800
001000
001000
002000
00C000
ENDCHAR
STARTCHAR 03C3
ENCODING 963
SWIDTH 517 0
DWIDTH 23 0
BBX 24 23 1 0
BITMAP
00FFFF
0380C0
060060
0C0030
180010
100010
200018
200008
600008
400008
400008
400018
C00010
C00010
C00030
C00020
400020
400040
4000C0
200180
300300
180E00
07F800
ENDCHAR
STARTCHAR 03C4
ENCODING 964
SWIDTH 472 0
DWIDTH 21 0
BBX 19 23 3 0
BITMAP
FFFFE0
008000
008000
008000
008000
018000
018000
010000
010000
010000
010000
030000
020000
020000
020000
020000
020000
060000
060000
060000
020000
020000
01F000
ENDCHAR
STARTCHAR 03C5
ENCODING 965
SWIDTH 495 0
DWIDTH 22 0
BBX 17 24 3 0
BITMAP
000100
200100
200180
200180
200080
600080
400080
400080
400080
400080
400180
C00100
800100
800100
800100
800300
800200
800200
800400
800C00
801800
C03000
606000
3FC000
ENDCHAR
STARTCHAR 03C6
ENCODING 966
SWIDTH 630 0
DWIDTH 28 0
BBX 24 33 2 -9
BITMAP
0181F8
02020C
040406
080402
180402
100C03
200C01
200801
600801
400801
400801
401801
401003
C01002
C01002
401004
40100C
403008
602010
202030
1020C0
0C2180
07FE00
006000
004000
004000
004000
004000
004000
00C000
008000
008000
008000
ENDCHAR
STARTCHAR 03C7
ENCODING 967
SWIDTH 495 0
DWIDTH 22 0
BBX 23 33 -1 -9
BITMAP
0C0000
0F0006
010004
008008
008018
00C010
004020
004060
0040C0
006080
002100
002300
002200
003400
001C00
001800
001000
003800
006800
004800
008800
018400
010400
020400
060600
0C0200
080200
100200
300300
200100
400100
C00180
8000F0
ENDCHAR
STARTCHAR 03C8
ENCODING 968
SWIDTH 630 0
DWIDTH 28 0
BBX 23 33 3 -9
BITMAP
00000C
200C04
200804
600806
400802
400802
401802
401802
401002
C01002
801002
801002
803006
802004
802004
802004
802008
802018
C06010
404030
604060
3040C0
184300
0FFC00
00C000
008000
008000
008000
008000
008000
018000
010000
010000
ENDCHAR
STARTCHAR 03C9
ENCODING 969
SWIDTH 787 0
DWIDTH 35 0
BBX 29 24 3 0
BITMAP
00000010
0C000018
08000018
18000008
10000008
30000008
20000008
60010008
40010008
40030008
C0030008
80020008
80020008
80020008
80020008
80060018
80060010
80060010
800E0020
800A0060
80120040
403300C0
60618380
3F80FE00
ENDCHAR
STARTCHAR 03CA
ENCODING 970
SWIDTH 247 0
DWIDTH 11 0
BBX 12 32 1 0
BITMAP
4000
E030
C030
0000
0000
0000
0000
0000
0000
0800
0800
0800
0800
1800
1800
1000
1000
1000
1000
3000
2000
2000
2000
2000
2000
6000
4000
4000
4000
6000
2000
1E00
ENDCHAR
STARTCHAR 03CB
ENCODING 971
SWIDTH 495 0
DWIDTH 22 0
BBX 17 31 3 1
BITMAP
060380
060100
000000
000000
000000
000000
000000
000100
200100
200180
200180
200080
600080
400080
400080
400080
400080
400180
C00100
800100
800100
800100
800300
800200
800200
800400
800C00
801800
C03000
606000
3FC000
ENDCHAR
STARTCHAR 03CC
ENCODING 972
SWIDTH 517 0
DWIDTH 23 0
BBX 21 32 1 0
BITMAP
000100
000300
000200
000400
000400
000000
000000
000000
003E00
01C380
030040
040020
080030
180010
100010
200018
200008
600008
400008
400008
400018
C00010
C00010
C00010
400030
400020
400040
6000C0
200180
100300
1C0600
07F800
ENDCHAR
STARTCHAR 03CD
ENCODING 973
SWIDTH 495 0
DWIDTH 22 0
BBX 17 32 3 0
BITMAP
000800
001800
001000
003000
002000
006000
000000
000000
000100
200100
200180
200180
200080
600080
400080
400080
400080
400080
400180
C00100
800100
800100
800100
800300
800200
800200
800400
800C00
801800
C03000
606000
3FC000
ENDCHAR
STARTCHAR 03CE
ENCODING 974
SWIDTH 787 0
DWIDTH 35 0
BBX 29 32 3 0
BITMAP
00001800
00001000
00003000
00002000
00006000
00004000
00000000
00000000
00000010
0C000018
08000018
18000008
10000008
30000008
20000008
60010008
40010008
40030008
C0030008
80020008
80020008
80020008
80020008
80060018
80060010
80060010
800E0020
800A0060
80120040
403300C0
60618380
3F80FE00
ENDCHAR
STARTCHAR 03D1
ENCODING 977
SWIDTH 540 0
DWIDTH 24 0
BBX 22 32 2 0
BITMAP
000FC0
003060
002020
004010
004010
008010
008010
008010
008010
008030
008020
008020
004020
006020
003020
001C64
6003FC
600040
400040
400040
400040
4000C0
C00080
800080
800080
800180
800100
400300
400200
600400
301800
1FF000
ENDCHAR
STARTCHAR 03D2
ENCODING 978
SWIDTH 517 0
DWIDTH 23 0
BBX 25 32 2 0
BITMAP
70000380
88000C00
04001800
04003000
02002000
02004000
02004000
02008000
01018000
01010000
01020000
01820000
00840000
008C0000
00880000
00500000
00500000
00600000
00600000
00400000
00400000
00400000
00400000
00C00000
00C00000
00800000
00800000
00800000
00800000
01800000
01000000
01000000
ENDCHAR
STARTCHAR 03D6
ENCODING 982
SWIDTH 742 0
DWIDTH 33 0
BBX 33 24 2 0
BITMAP
7FFFFFFF80
FFFFFFFF80
0800000800
1800000800
1000000800
3000000800
2000000C00
6001000C00
4001000C00
4001000C00
4003000C00
8002000800
8002000800
8002000800
8002000800
8006001800
8006001000
8006001000
800E003000
800A002000
C01A004000
403100C000
6061818000
1FC0FE0000
ENDCHAR
STARTCHAR 0400
ENCODING 1024
SWIDTH 540 0
DWIDTH 24 0
BBX 24 40 2 0
BITMAP
000800
000C00
000400
000600
000200
000300
000000
000000
07FFFF
07FFFF
040000
040000
040000
040000
0C0000
080000
080000
080000
080000
180000
180000
100000
100000
1FFFE0
100000
300000
200000
200000
200000
200000
200000
600000
400000
400000
400000
400000
400000
C00000
800000
FFFFE0
ENDCHAR
STARTCHAR 0401
ENCODING 1025
SWIDTH 540 0
DWIDTH 24 0
BBX 24 39 2 0
BITMAP
003018
007018
000000
000000
000000
000000
000000
07FFFF
07FFFF
040000
040000
040000
040000
0C0000
080000
080000
080000
080000
180000
180000
100000
100000
1FFFE0
100000
300000
200000
200000
200000
200000
200000
600000
400000
400000
400000
400000
400000
C00000
800000
FFFFE0
ENDCHAR
STARTCHAR 0402
ENCODING 1026
SWIDTH 697 0
DWIDTH 31 0
BBX 25 32 4 0
BITMAP
7FFFFF00
FFFFFF00
00200000
00200000
00600000
00400000
00400000
00400000
00400000
00C00000
00800000
00800000
00800000
008FF800
00B80C00
01C00300
01000100
01000180
01000080
01000080
01000080
03000080
02000080
02000080
02000080
02000180
02000100
06000200
04000600
04000800
04007000
0403C000
ENDCHAR
STARTCHAR 0403
ENCODING 1027
SWIDTH 517 0
DWIDTH 23 0
BBX 23 40 2 0
BITMAP
000030
000060
0000C0
000180
000100
000200
000000
000000
07FFFE
07FFFE
040000
040000
040000
0C0000
080000
080000
080000
080000
080000
180000
100000
100000
100000
100000
300000
300000
200000
200000
200000
200000
600000
400000
400000
400000
400000
400000
C00000
800000
800000
800000
ENDCHAR
STARTCHAR 0404
ENCODING 1028
SWIDTH 607 0
DWIDTH 27 0
BBX 24 32 3 0
BITMAP
001FC0
007070
018018
030004
060006
0C0002
080002
100003
100003
200003
200000
600000
400000
400000
400000
7FFE00
FFFE00
800000
800000
800000
800000
800000
800008
800008
800018
C00010
400030
400020
200040
300180
180700
07FC00
ENDCHAR
STARTCHAR 0405
ENCODING 1029
SWIDTH 562 0
DWIDTH 25 0
BBX 24 32 1 0
BITMAP
001FE0
007038
01800C
030006
060002
040001
080001
080001
080001
080000
080000
0C0000
060000
030000
00E000
003C00
000700
0000C0
000030
000018
000008
00000C
000004
800004
800004
80000C
C00008
400018
600030
300060
1C0180
07FE00
ENDCHAR
STARTCHAR 0406
ENCODING 1030
SWIDTH 247 0
DWIDTH 11 0
BBX 6 32 3 0
BITMAP
04
04
04
04
04
0C
08
08
08
08
18
18
10
10
10
10
30
20
20
20
20
20
60
40
40
40
40
40
C0
80
80
80
ENDCHAR
STARTCHAR 0407
ENCODING 1031
SWIDTH 247 0
DWIDTH 11 0
BBX 13 39 3 0
BITMAP
6018
6038
0000
0000
0000
0000
0000
0400
0400
0400
0400
0400
0C00
0800
0800
0800
0800
1800
1800
1000
1000
1000
1000
3000
2000
2000
2000
2000
2000
6000
4000
4000
4000
4000
4000
C000
8000
8000
8000
ENDCHAR
STARTCHAR 0408
ENCODING 1032
SWIDTH 517 0
DWIDTH 23 0
BBX 22 32 1 0
BITMAP
000004
00000C
000008
000008
000008
000008
000008
000018
000010
000010
000010
000010
000010
000030
000020
000020
000020
000020
000060
000060
000040
000040
000040
800040
800080
800080
800180
C00100
400200
600600
301800
1FF000
ENDCHAR
STARTCHAR 0409
ENCODING 1033
SWIDTH 990 0
DWIDTH 44 0
BBX 42 32 -1 0
BITMAP
0007FFF00000
0007FFF00000
000400100000
000400100000
000C00100000
000800300000
000800200000
000800200000
000800200000
001800200000
001000200000
001000600000
001000400000
003000400000
0020007FE000
0020007FFC00
002000400300
006000C00180
0040008000C0
004000800040
004000800040
004000800040
008001800040
008001800040
008001000040
0100010000C0
010001000080
020001000180
060003000300
0C0002000E00
180002003800
E00003FFC000
ENDCHAR
STARTCHAR 040A
ENCODING 1034
SWIDTH 1035 0
DWIDTH 46 0
BBX 41 32 2 0
BITMAP
040000200000
040000200000
040000200000
040000600000
040000400000
0C0000400000
080000400000
080000400000
080000400000
080000C00000
080000800000
180000800000
100000800000
100000800000
100000FF8000
100001FFF800
1FFFFF000E00
300001000300
200001000100
200001000080
200001000080
200003000080
600002000080
400002000080
400002000180
400002000100
400006000300
400006000200
C00004000400
800004001800
80000400F000
800007FF8000
ENDCHAR
STARTCHAR 040B
ENCODING 1035
SWIDTH 765 0
DWIDTH 34 0
BBX 26 32 4 0
BITMAP
FFFFFF00
FFFFFE00
00200000
00200000
00600000
00400000
00400000
00400000
00400000
00C00000
00800000
00800000
00800000
00800000
0083F000
01FF3E00
01C00300
01000180
01000080
010000C0
01000040
03000040
02000040
02000040
02000040
020000C0
02000080
06000080
04000080
04000080
04000080
04000180
ENDCHAR
STARTCHAR 040C
ENCODING 1036
SWIDTH 607 0
DWIDTH 27 0
BBX 26 38 2 0
BITMAP
00006000
0000C000
00008000
00010000
00020000
00000000
060000C0
04000180
04000300
04000600
04000800
04003000
0C006000
0800C000
08018000
08030000
08060000
18080000
18300000
10600000
10C00000
11C00000
13200000
34300000
28100000
30080000
200C0000
20060000
20020000
60030000
40018000
40008000
4000C000
40006000
40002000
C0003000
80001800
80000800
ENDCHAR
STARTCHAR 040D
ENCODING 1037
SWIDTH 675 0
DWIDTH 30 0
BBX 27 40 2 0
BITMAP
00020000
00010000
00018000
00008000
0000C000
00004000
00000000
00000000
06000020
04000060
04000060
040000A0
04000120
04000360
0C000640
08000C40
08001840
08001040
08002040
180040C0
1000C080
10018080
10030080
10020080
10040080
30080180
20180100
20300100
20600100
20400100
20800100
61000300
43000200
46000200
4C000200
58000200
50000200
A0000600
C0000400
C0000400
ENDCHAR
STARTCHAR 040E
ENCODING 1038
SWIDTH 607 0
DWIDTH 27 0
BBX 27 39 2 0
BITMAP
00200400
00200800
00101800
00183000
000FC000
00000000
00000000
20000020
30000040
100000C0
10000080
18000100
08000300
0C000200
04000600
04000C00
06000800
02001800
02003000
01002000
01006000
0180C000
00808000
00818000
00C10000
00420000
00460000
00240000
00280000
00380000
00100000
00200000
00600000
00400000
00800000
01800000
03000000
06000000
F8000000
ENDCHAR
STARTCHAR 040F
ENCODING 1039
SWIDTH 675 0
DWIDTH 30 0
BBX 27 40 2 -8
BITMAP
04000020
04000020
04000020
04000060
04000040
0C000040
08000040
08000040
08000040
080000C0
08000080
18000080
10000080
10000080
10000080
10000180
10000100
30000100
20000100
20000100
20000100
20000300
60000200
40000200
40000200
40000200
40000600
40000600
C0000400
80000400
80000400
FFFFFC00
00200000
00200000
00200000
00200000
00600000
00600000
00400000
00400000
ENDCHAR
STARTCHAR 0410
ENCODING 1040
SWIDTH 562 0
DWIDTH 25 0
BBX 24 32 -1 0
BITMAP
0000C0
0000C0
0001C0
000140
000260
000220
000420
000420
000820
001820
001030
003010
002010
006010
004010
00C018
008008
010008
010008
020008
02000C
07FFFC
07FFFC
080004
180004
100006
300002
200002
600002
400002
C00003
800003
ENDCHAR
STARTCHAR 0411
ENCODING 1041
SWIDTH 607 0
DWIDTH 27 0
BBX 23 32 2 0
BITMAP
07FFFE
07FFFE
040000
040000
040000
0C0000
080000
080000
080000
080000
180000
180000
100000
100000
100000
1FFE00
300380
300060
200020
200010
200010
200010
600010
400010
400010
400030
400020
400060
C000C0
800380
800E00
FFF800
ENDCHAR
STARTCHAR 0412
ENCODING 1042
SWIDTH 585 0
DWIDTH 26 0
BBX 22 32 2 0
BITMAP
07FC00
07FFE0
040030
040008
04000C
040004
0C0004
080004
080004
080004
08000C
180008
180010
100030
1000C0
1FFF00
1003C0
300060
200030
200010
200008
200008
200008
600008
400018
400010
400010
400020
400040
C00180
800700
FFF800
ENDCHAR
STARTCHAR 0413
ENCODING 1043
SWIDTH 517 0
DWIDTH 23 0
BBX 23 32 2 0
BITMAP
07FFFE
07FFFE
040000
040000
040000
0C0000
080000
080000
080000
080000
080000
180000
100000
100000
100000
100000
300000
300000
200000
200000
200000
200000
600000
400000
400000
400000
400000
400000
C00000
800000
800000
800000
ENDCHAR
STARTCHAR 0414
ENCODING 1044
SWIDTH 652 0
DWIDTH 29 0
BBX 31 40 -2 -8
BITMAP
0000FFFE
0001FFFE
00010002
00010006
00010004
00030004
00020004
00020004
00020004
0002000C
00060008
00040008
00040008
00040008
000C0008
00080018
00080010
00180010
00100010
00100010
00300010
00200030
00600020
00600020
00C00020
00C00020
01800060
03000060
03000040
06000040
0C000040
3FFFFFF0
20000010
60000010
40000010
40000030
40000020
40000020
40000020
C0000020
ENDCHAR
STARTCHAR 0415
ENCODING 1045
SWIDTH 540 0
DWIDTH 24 0
BBX 24 32 2 0
BITMAP
07FFFF
07FFFF
040000
040000
040000
040000
0C0000
080000
080000
080000
080000
180000
180000
100000
100000
1FFFE0
100000
300000
200000
200000
200000
200000
200000
600000
400000
400000
400000
400000
400000
C00000
800000
FFFFE0
ENDCHAR
STARTCHAR 0416
ENCODING 1046
SWIDTH 810 0
DWIDTH 36 0
BBX 40 32 -1 0
BITMAP
0600020003
0200020006
010002000C
0180060018
0080040030
00C0040060
00400400C0
0060040180
00300C0100
00100C0200
0018080400
0008080800
000C081000
0004083000
0002186000
0003FFC000
0002108000
0006104000
000C106000
0018102000
0030303000
0060201000
00C0200800
0180200C00
0300200400
0600200600
0C00600300
1800400100
3000400180
6000400080
4000400040
8000400060
ENDCHAR
STARTCHAR 0417
ENCODING 1047
SWIDTH 562 0
DWIDTH 25 0
BBX 24 32 1 0
BITMAP
001FE0
007038
01800C
030002
060003
0C0001
080001
080001
180001
000003
000002
000006
000004
000018
000070
00FFC0
000FC0
000030
000018
000008
00000C
000004
000004
800004
80000C
800008
C00008
400010
600020
300040
1C0380
07FE00
ENDCHAR
STARTCHAR 0418
ENCODING 1048
SWIDTH 675 0
DWIDTH 30 0
BBX 27 32 2 0
BITMAP
06000020
04000060
04000060
040000A0
04000120
04000360
0C000640
08000C40
08001840
08001040
08002040
180040C0
1000C080
10018080
10030080
10020080
10040080
30080180
20180100
20300100
20600100
20400100
20800100
61000300
43000200
46000200
4C000200
58000200
50000200
A0000600
C0000400
C0000400
ENDCHAR
STARTCHAR 0419
ENCODING 1049
SWIDTH 675 0
DWIDTH 30 0
BBX 27 39 2 0
BITMAP
00080300
00080200
000C0600
00061C00
0003F000
00000000
00000000
06000020
04000060
04000060
040000A0
04000120
04000360
0C000640
08000C40
08001840
08001040
08002040
180040C0
1000C080
10018080
10030080
10020080
10040080
30080180
20180100
20300100
20600100
20400100
20800100
61000300
43000200
46000200
4C000200
58000200
50000200
A0000600
C0000400
C0000400
ENDCHAR
STARTCHAR 041A
ENCODING 1050
SWIDTH 607 0
DWIDTH 27 0
BBX 26 32 2 0
BITMAP
060000C0
04000180
04000300
04000600
04000C00
04001800
0C003000
08006000
0800C000
08018000
08030000
18060000
180C0000
10180000
10300000
1FE00000
1FC00000
30600000
20300000
20100000
20180000
200C0000
20040000
60020000
40030000
40018000
40008000
40004000
40002000
C0003000
80001000
80000800
ENDCHAR
STARTCHAR 041B
ENCODING 1051
SWIDTH 675 0
DWIDTH 30 0
BBX 30 32 -1 0
BITMAP
0007FFFC
0007FFFC
00040004
0008000C
00080008
00080008
00080008
00180008
00100008
00100018
00100010
00300010
00200010
00200010
00200010
00600030
00400020
00400020
00400020
00400020
00C00020
00800060
00800040
00800040
01000040
01000040
03000040
020000C0
04000080
0C000080
38000080
E0000080
ENDCHAR
STARTCHAR 041C
ENCODING 1052
SWIDTH 810 0
DWIDTH 36 0
BBX 34 32 2 0
BITMAP
06000000C0
06000000C0
07000001C0
0500000380
0500000280
0500000680
0D80000480
0880000880
0880001980
0880001100
08C0003100
1840002100
1840004100
104000C100
1060008300
1020018200
1020010200
3020020200
2030060200
2010040200
20100C0600
2010080400
2018100400
6008300400
4008200400
4008600C00
400C400800
4004800800
4005800800
C005000800
8007000800
8002001800
ENDCHAR
STARTCHAR 041D
ENCODING 1053
SWIDTH 675 0
DWIDTH 30 0
BBX 27 32 2 0
BITMAP
06000020
04000020
04000020
04000020
04000060
04000040
0C000040
08000040
08000040
08000040
080000C0
18000080
18000080
10000080
10000080
1FFFFF80
10000180
30000100
20000100
20000100
20000100
20000300
20000200
60000200
40000200
40000200
40000200
40000600
40000400
C0000400
80000400
80000400
ENDCHAR
STARTCHAR 041E
ENCODING 1054
SWIDTH 630 0
DWIDTH 28 0
BBX 24 32 3 0
BITMAP
001FC0
007070
018018
03000C
060006
0C0002
180002
100001
300001
200001
200001
400001
400001
400001
400001
C00003
800002
800002
800002
800002
800006
800004
800004
800008
800008
800010
C00030
400020
600040
300180
180700
07FC00
ENDCHAR
STARTCHAR 041F
ENCODING 1055
SWIDTH 675 0
DWIDTH 30 0
BBX 27 32 2 0
BITMAP
07FFFFE0
07FFFFE0
04000020
04000020
04000060
04000040
0C000040
08000040
08000040
08000040
080000C0
18000080
18000080
10000080
10000080
10000080
10000180
30000100
20000100
20000100
20000100
20000300
20000200
60000200
40000200
40000200
40000200
40000600
40000400
C0000400
80000400
80000400
ENDCHAR
STARTCHAR 0420
ENCODING 1056
SWIDTH 562 0
DWIDTH 25 0
BBX 23 32 2 0
BITMAP
07FF00
07FFF0
040018
04000C
040006
040002
0C0002
080002
080002
080002
080002
180002
180004
100004
100008
100030
100060
3FFF80
3FF800
200000
200000
200000
200000
600000
400000
400000
400000
400000
400000
C00000
800000
800000
ENDCHAR
STARTCHAR 0421
ENCODING 1057
SWIDTH 607 0
DWIDTH 27 0
BBX 24 32 3 0
BITMAP
001FC0
007070
018018
030004
060006
0C0002
080002
100003
100003
200003
200000
600000
400000
400000
400000
400000
C00000
800000
800000
800000
800000
800000
800008
800008
800018
C00010
400030
400020
200040
300180
180700
07FC00
ENDCHAR
STARTCHAR 0422
ENCODING 1058
SWIDTH 562 0
DWIDTH 25 0
BBX 24 32 4 0
BITMAP
FFFFFF
FFFFFF
001000
001000
001000
001000
003000
002000
002000
002000
002000
002000
006000
004000
004000
004000
004000
004000
00C000
008000
008000
008000
008000
008000
018000
010000
010000
010000
010000
030000
030000
020000
ENDCHAR
STARTCHAR 0423
ENCODING 1059
SWIDTH 607 0
DWIDTH 27 0
BBX 27 32 2 0
BITMAP
20000020
30000040
100000C0
10000080
18000100
08000300
0C000200
04000600
04000C00
06000800
02001800
02003000
01002000
01006000
0180C000
00808000
00818000
00C10000
00420000
00460000
00240000
00280000
00380000
00100000
00200000
00600000
00400000
00800000
01800000
03000000
06000000
F8000000
ENDCHAR
STARTCHAR 0424
ENCODING 1060
SWIDTH 675 0
DWIDTH 30 0
BBX 28 34 2 -1
BITMAP
00008000
00008000
00008000
00008000
00018000
003FFC00
00E10700
03010180
060100C0
08010060
10030020
30020020
60020010
40020010
40020010
C0020010
80060010
80040010
80040030
80040020
80040060
800C0040
C00C00C0
40080180
60080300
30080600
18080C00
0E187000
03FFC000
00100000
00100000
00100000
00100000
00300000
ENDCHAR
STARTCHAR 0425
ENCODING 1061
SWIDTH 562 0
DWIDTH 25 0
BBX 27 32 0 0
BITMAP
0C000020
04000040
02000080
02000180
01000300
01000600
00800C00
00C00800
00401000
00603000
00206000
0030C000
00118000
00190000
000A0000
000C0000
000C0000
001A0000
00320000
00210000
00410000
00808000
0180C000
03004000
06006000
04002000
08003000
10001000
20001800
60000800
C0000C00
80000400
ENDCHAR
STARTCHAR 0426
ENCODING 1062
SWIDTH 675 0
DWIDTH 30 0
BBX 27 40 2 -8
BITMAP
04000020
04000020
04000060
04000040
0C000040
08000040
08000040
08000040
080000C0
18000080
10000080
10000080
10000080
10000180
10000180
30000100
20000100
20000100
20000100
20000300
20000200
60000200
40000200
40000200
40000200
40000600
40000400
C0000400
80000400
80000400
80000400
FFFFFF00
00000100
00000100
00000100
00000100
00000300
00000200
00000200
00000200
ENDCHAR
STARTCHAR 0427
ENCODING 1063
SWIDTH 607 0
DWIDTH 27 0
BBX 21 32 6 0
BITMAP
400008
400008
400018
400010
400010
C00010
800010
800010
800030
800020
800020
800020
800020
C00020
600060
3000C0
1F3FC0
03F040
000040
000040
0000C0
000080
000080
000080
000080
000080
000180
000100
000100
000100
000100
000300
ENDCHAR
STARTCHAR 0428
ENCODING 1064
SWIDTH 877 0
DWIDTH 39 0
BBX 37 32 2 0
BITMAP
0400080018
0400080010
0400080010
0400080010
0C00080010
0800180030
0800100020
0800100020
0800100020
0800100020
1800100020
1000300060
1000200040
1000200040
1000200040
1000200040
3000600040
20006000C0
2000400080
2000400080
2000400080
6000400080
6000C00080
4000800180
4000800100
4000800100
4000800100
C000800100
8001800100
8001000300
8001000200
FFFFFFFE00
ENDCHAR
STARTCHAR 0429
ENCODING 1065
SWIDTH 877 0
DWIDTH 39 0
BBX 37 40 2 -8
BITMAP
0400080018
0400080010
0400080010
0400080010
0C00080010
0800180030
0800100020
0800100020
0800100020
0800100020
1800100020
1000300060
1000200040
1000200040
1000200040
1000200040
3000600040
20006000C0
2000400080
2000400080
2000400080
6000400080
6000C00080
4000800180
4000800100
4000800100
4000800100
C000800100
8001800100
8001000300
8001000200
FFFFFFFFC0
0000000040
00000000C0
0000000080
0000000080
0000000080
0000000080
0000000180
0000000180
ENDCHAR
STARTCHAR 042A
ENCODING 1066
SWIDTH 765 0
DWIDTH 34 0
BBX 27 32 2 0
BITMAP
FFFC0000
FFF80000
00080000
00080000
00080000
00180000
00100000
00100000
00100000
00100000
00100000
00300000
00200000
00200000
00200000
003FFC00
00200700
006000C0
00400040
00400020
00400020
00400020
00400020
00C00020
00800020
00800060
00800040
008000C0
01800180
01800700
01001C00
01FFF000
ENDCHAR
STARTCHAR 042B
ENCODING 1067
SWIDTH 765 0
DWIDTH 34 0
BBX 32 32 2 0
BITMAP
04000003
04000002
04000002
04000002
04000002
0C000002
08000006
08000004
08000004
08000004
18000004
18000004
1000000C
10000008
10000008
1FFE0008
30038008
20006008
20002018
20001010
20001010
20001010
60001010
40001010
40001030
40003020
40002020
40006020
C000C020
80038060
800E0060
FFF80040
ENDCHAR
STARTCHAR 042C
ENCODING 1068
SWIDTH 562 0
DWIDTH 25 0
BBX 20 32 2 0
BITMAP
040000
040000
040000
040000
040000
0C0000
080000
080000
080000
080000
180000
180000
100000
100000
100000
1FFE00
300380
200060
200020
200010
200010
200010
600010
400010
400010
400030
400020
400060
C000C0
800380
800E00
FFF800
ENDCHAR
STARTCHAR 042D
ENCODING 1069
SWIDTH 607 0
DWIDTH 27 0
BBX 24 32 2 0
BITMAP
001FC0
007070
018018
030004
060006
0C0002
080002
180003
100001
100001
000001
000001
000001
000001
000003
007FFF
007FFE
000002
000002
000002
000006
000004
800004
800008
800008
C00010
400030
400020
200040
300180
1C0700
07FC00
ENDCHAR
STARTCHAR 042E
ENCODING 1070
SWIDTH 900 0
DWIDTH 40 0
BBX 34 32 3 0
BITMAP
040007F000
04001C1C00
0400600200
0400C00100
0C01800180
0803000080
08020000C0
0804000040
0804000040
0808000040
1808000040
1018000040
1010000040
1010000040
1010000040
1FF0000040
30300000C0
2020000080
2020000080
2020000080
2020000080
2020000100
6020000100
4020000300
4020000200
4030000600
4010000400
C010000800
C008001000
800C006000
800701C000
8001FF0000
ENDCHAR
STARTCHAR 042F
ENCODING 1071
SWIDTH 562 0
DWIDTH 25 0
BBX 25 32 0 0
BITMAP
0001FF80
001FFF80
00700080
00C00080
01800180
03000100
02000100
06000100
04000100
04000100
04000300
04000200
04000200
04000200
04000200
02000600
01800600
00FFFC00
007FFC00
00400400
00800400
01000C00
03000800
02000800
04000800
0C000800
08000800
10001800
30001000
60001000
40001000
80001000
ENDCHAR
STARTCHAR 0430
ENCODING 1072
SWIDTH 495 0
DWIDTH 22 0
BBX 19 24 1 0
BITMAP
007E00
03C380
0600C0
0C0040
180060
100020
300020
000060
000040
000040
000040
01FFC0
0F0040
3800C0
600080
400080
800080
800080
800180
800380
800700
C00D00
603100
3FC100
ENDCHAR
STARTCHAR 0431
ENCODING 1073
SWIDTH 517 0
DWIDTH 23 0
BBX 22 34 1 0
BITMAP
000004
00000C
000018
000030
0003E0
003E00
006000
018000
030000
020000
040000
0C0000
083C00
19F780
1700C0
3C0020
380030
300010
300018
600008
600008
400008
400008
400018
400010
C00010
400010
400020
400060
600040
200080
300180
1C0600
07F800
ENDCHAR
STARTCHAR 0432
ENCODING 1074
SWIDTH 517 0
DWIDTH 23 0
BBX 19 23 2 0
BITMAP
1FFF00
1000C0
100060
100020
100020
100020
300020
200040
2000C0
200180
203E00
3FFE00
600180
400080
400040
400040
400040
400040
C000C0
800180
800300
800E00
FFF000
ENDCHAR
STARTCHAR 0433
ENCODING 1075
SWIDTH 405 0
DWIDTH 18 0
BBX 18 23 1 0
BITMAP
0FFFC0
080000
080000
080000
080000
180000
100000
100000
100000
100000
100000
300000
200000
200000
200000
200000
600000
400000
400000
400000
400000
400000
C00000
ENDCHAR
STARTCHAR 0434
ENCODING 1076
SWIDTH 517 0
DWIDTH 23 0
BBX 24 30 -2 -7
BITMAP
001FFF
001002
001002
003002
002002
002006
002004
002004
006004
004004
004004
00C00C
008008
008008
018008
010008
030008
020018
060010
0C0010
080010
100010
7FFFFC
400008
400008
400008
800008
800018
800010
800010
ENDCHAR
STARTCHAR 0435
ENCODING 1077
SWIDTH 472 0
DWIDTH 21 0
BBX 19 24 1 0
BITMAP
007E00
01C700
030080
040040
080060
100020
100020
200020
200020
400020
7FFFE0
400000
400000
C00000
C00000
C00000
400000
400000
400000
600000
200080
100300
1C0600
07F800
ENDCHAR
STARTCHAR 0436
ENCODING 1078
SWIDTH 742 0
DWIDTH 33 0
BBX 33 24 -1 0
BITMAP
0400000000
0600300180
0200200300
0100200600
0180200C00
0080201800
0040203000
0060606000
002040C000
0010418000
0018430000
000FFE0000
000FFE0000
0010C20000
0060830000
00C0818000
018080C000
0300804000
0601806000
0C01803000
1801001000
3001000800
6001000C00
8001000600
ENDCHAR
STARTCHAR 0437
ENCODING 1079
SWIDTH 472 0
DWIDTH 21 0
BBX 19 24 1 0
BITMAP
007E00
03C380
0600C0
0C0040
180020
100020
300020
000060
000040
000080
000300
01FE00
03FC00
000300
000180
000080
000080
800080
800080
800180
C00100
600200
300C00
1FF000
ENDCHAR
STARTCHAR 0438
ENCODING 1080
SWIDTH 517 0
DWIDTH 23 0
BBX 21 23 1 0
BITMAP
080018
080030
080070
0800D0
080190
180110
100230
100420
100C20
101820
103020
202020
204060
20C040
218040
230040
660040
440040
4800C0
580080
700080
600080
C00080
ENDCHAR
STARTCHAR 0439
ENCODING 1081
SWIDTH 517 0
DWIDTH 23 0
BBX 21 32 1 0
BITMAP
008030
008020
008060
0040C0
003F80
000400
000000
000000
000000
080018
080030
080070
0800D0
080190
180110
100230
100420
100C20
101820
103020
202020
204060
20C040
218040
230040
660040
440040
4800C0
580080
700080
600080
C00080
ENDCHAR
STARTCHAR 043A
ENCODING 1082
SWIDTH 472 0
DWIDTH 21 0
BBX 20 23 1 0
BITMAP
080030
080060
0800C0
080180
180300
180600
100C00
101800
103000
106000
3FC000
3F8000
20C000
206000
203000
201000
601800
400C00
400400
400200
400300
400180
C00080
ENDCHAR
STARTCHAR 043B
ENCODING 1083
SWIDTH 517 0
DWIDTH 23 0
BBX 23 23 -1 0
BITMAP
007FFE
004004
004004
004004
004004
00C004
00800C
008008
008008
018008
010008
010008
010018
010010
030010
020010
020010
060010
040030
0C0020
080020
300020
E00020
ENDCHAR
STARTCHAR 043C
ENCODING 1084
SWIDTH 697 0
DWIDTH 31 0
BBX 27 24 2 0
BITMAP
08000000
18000060
14000060
140000A0
140001E0
16000140
12000240
32000640
23000440
21000840
210018C0
21001080
20802080
60806080
40804080
40C0C180
40418180
40410100
C0630100
C0260100
80240100
803C0300
80180300
80100200
ENDCHAR
STARTCHAR 043D
ENCODING 1085
SWIDTH 517 0
DWIDTH 23 0
BBX 21 23 1 0
BITMAP
080018
080010
080010
080010
080010
180010
100030
100020
100020
100020
1FFFE0
3FFFE0
200060
200040
200040
200040
600040
400040
4000C0
400080
400080
400080
C00080
ENDCHAR
STARTCHAR 043E
ENCODING 1086
SWIDTH 517 0
DWIDTH 23 0
BBX 21 24 1 0
BITMAP
003E00
01C380
030040
040020
080030
180010
100010
200018
200008
600008
400008
400008
400018
C00010
C00010
C00010
400030
400020
400040
6000C0
200180
100300
1C0600
07F800
ENDCHAR
STARTCHAR 043F
ENCODING 1087
SWIDTH 517 0
DWIDTH 23 0
BBX 21 23 1 0
BITMAP
0FFFF8
080010
080010
080010
080010
180010
100030
100020
100020
100020
100020
300020
200060
200040
200040
200040
600040
400040
4000C0
400080
400080
400080
C00080
ENDCHAR
STARTCHAR 0440
ENCODING 1088
SWIDTH 517 0
DWIDTH 23 0
BBX 21 33 0 -9
BITMAP
000F80
0470E0
04C020
050010
060010
0C0008
0C0008
080008
080008
080008
080008
180008
100008
100018
100010
100010
100030
300020
200060
300040
3000C0
280180
260300
63FC00
400000
400000
400000
400000
400000
C00000
800000
800000
800000
ENDCHAR
STARTCHAR 0441
ENCODING 1089
SWIDTH 472 0
DWIDTH 21 0
BBX 18 24 2 0
BITMAP
00FC00
038600
040180
080080
1000C0
300040
200040
400040
400000
C00000
800000
800000
800000
800000
800000
800000
800000
800180
800100
800100
400200
600400
301800
1FF000
ENDCHAR
STARTCHAR 0442
ENCODING 1090
SWIDTH 450 0
DWIDTH 20 0
BBX 19 23 2 0
BITMAP
FFFFE0
004000
004000
00C000
008000
008000
008000
008000
008000
018000
010000
010000
010000
010000
010000
030000
020000
020000
020000
020000
060000
060000
040000
ENDCHAR
STARTCHAR 0443
ENCODING 1091
SWIDTH 450 0
DWIDTH 20 0
BBX 23 33 -2 -9
BITMAP
040000
040002
040006
060004
02000C
020008
020010
020010
030020
010060
010040
0100C0
018080
008180
008100
008300
008200
00C600
004400
004800
005800
007000
003000
002000
006000
004000
00C000
008000
018000
030000
020000
040000
F80000
ENDCHAR
STARTCHAR 0444
ENCODING 1092
SWIDTH 697 0
DWIDTH 31 0
BBX 27 42 2 -9
BITMAP
0000C000
00008000
00008000
00008000
00008000
00008000
00018000
00010000
00010000
00F93E00
038FC300
06030080
080300C0
18020040
10020040
20020060
20020020
60060020
40040020
40040060
C0040060
C0040040
80040040
800C0040
800800C0
80080080
80080080
80080180
C0080100
40180200
60100600
30380C00
1FD7F000
00100000
00100000
00300000
00200000
00200000
00200000
00200000
00200000
00600000
ENDCHAR
STARTCHAR 0445
ENCODING 1093
SWIDTH 450 0
DWIDTH 20 0
BBX 20 24 0 0
BITMAP
180000
080030
0C0060
040040
060080
020100
030300
010600
008C00
009800
005000
006000
006000
00F000
019000
031800
060800
040C00
080400
100200
300200
600100
C00180
800080
ENDCHAR
STARTCHAR 0446
ENCODING 1094
SWIDTH 517 0
DWIDTH 23 0
BBX 21 30 1 -7
BITMAP
080018
080010
080010
080010
080010
180010
100030
100020
100020
100020
100020
300020
200060
200040
200040
200040
600040
400040
4000C0
400080
400080
400080
FFFFE0
000060
000040
000040
000040
000040
000040
0000C0
ENDCHAR
STARTCHAR 0447
ENCODING 1095
SWIDTH 495 0
DWIDTH 22 0
BBX 17 23 3 0
BITMAP
400080
400080
400080
400080
C00080
800180
800100
800100
800100
C00100
400100
300F00
1FFA00
000200
000200
000200
000200
000600
000400
000400
000400
000400
000400
ENDCHAR
STARTCHAR 0448
ENCODING 1096
SWIDTH 742 0
DWIDTH 33 0
BBX 31 23 1 0
BITMAP
08004002
08004002
08004002
08004002
08004002
1800C006
10008004
10008004
10008004
10008004
3000800C
30018008
20010008
20010008
20010008
20010008
60010018
40030010
40020010
40020010
40020010
40020010
FFFFFFF0
ENDCHAR
STARTCHAR 0449
ENCODING 1097
SWIDTH 742 0
DWIDTH 33 0
BBX 31 30 1 -7
BITMAP
08004002
08004002
08004002
08004002
08004002
1800C006
10008004
10008004
10008004
10008004
3000800C
30018008
20010008
20010008
20010008
20010008
60010018
40030010
40020010
40020010
40020010
40020010
FFFFFFFC
0000000C
0000000C
00000008
00000008
00000008
00000008
00000018
ENDCHAR
STARTCHAR 044A
ENCODING 1098
SWIDTH 607 0
DWIDTH 27 0
BBX 22 23 2 0
BITMAP
FF8000
008000
008000
008000
008000
018000
010000
010000
01FE00
01FFE0
030018
030008
020004
020004
020004
020004
060004
04000C
040008
040018
040030
0401C0
0FFF00
ENDCHAR
STARTCHAR 044B
ENCODING 1099
SWIDTH 697 0
DWIDTH 31 0
BBX 27 23 2 0
BITMAP
18000020
10000020
10000020
10000020
10000060
10000040
30000040
20000040
3FE00040
3FFE0040
200300C0
20018080
60008080
40008080
40008080
40008080
40008180
C0008100
80010100
80030100
80060100
803C0100
FFE00300
ENDCHAR
STARTCHAR 044C
ENCODING 1100
SWIDTH 495 0
DWIDTH 22 0
BBX 17 23 2 0
BITMAP
180000
100000
100000
100000
100000
100000
300000
200000
3FE000
3FFE00
200300
200180
600080
400080
400080
400080
400080
C00080
800100
800300
800600
803C00
FFE000
ENDCHAR
STARTCHAR 044D
ENCODING 1101
SWIDTH 495 0
DWIDTH 22 0
BBX 18 24 2 0
BITMAP
00F800
078600
0C0100
180080
300080
200040
600040
400040
000040
000040
000040
000040
07FFC0
000040
0000C0
000080
800080
800180
800100
800200
800600
400C00
603800
1FE000
ENDCHAR
STARTCHAR 044E
ENCODING 1102
SWIDTH 765 0
DWIDTH 34 0
BBX 30 24 2 0
BITMAP
00001F80
180070E0
1000C030
10030018
10020008
1004000C
100C0004
30080004
20180004
20100004
20100004
20300004
3FE00004
60200004
4020000C
40200008
40200008
40200018
C0300010
C0100020
80180060
800C00C0
80060300
8003FE00
ENDCHAR
STARTCHAR 044F
ENCODING 1103
SWIDTH 517 0
DWIDTH 23 0
BBX 20 23 1 0
BITMAP
01FFF0
030010
040010
080030
180020
100020
100020
100020
100020
100060
080040
0C0040
03FFC0
010040
0300C0
0600C0
040080
080080
180080
300080
200180
400180
800100
ENDCHAR
STARTCHAR 0450
ENCODING 1104
SWIDTH 472 0
DWIDTH 21 0
BBX 19 33 1 0
BITMAP
002000
001000
001800
000800
000C00
000400
000000
000000
000000
007E00
01C700
030080
040040
080060
100020
100020
200020
200020
400020
7FFFE0
400000
400000
C00000
C00000
C00000
400000
400000
400000
600000
200080
100300
1C0600
07F800
ENDCHAR
STARTCHAR 0451
ENCODING 1105
SWIDTH 472 0
DWIDTH 21 0
BBX 20 32 1 0
BITMAP
00C020
00C070
000000
000000
000000
000000
000000
000000
007E00
01C700
030080
040040
080060
100020
100020
200020
200020
400020
7FFFE0
400000
400000
C00000
C00000
C00000
400000
400000
400000
600000
200080
100300
1C0600
07F800
ENDCHAR
STARTCHAR 0452
ENCODING 1106
SWIDTH 517 0
DWIDTH 23 0
BBX 20 42 1 -9
BITMAP
020000
020000
020000
060000
7FF800
7FF800
040000
040000
040000
0C1F00
0870C0
098060
0B0020
0A0020
0C0030
180030
180030
100030
100020
100020
100020
300020
200060
200060
200040
200040
600040
400040
4000C0
400080
400080
400080
C00080
000080
000180
000100
000100
000300
000200
000600
000C00
01F800
ENDCHAR
STARTCHAR 0453
ENCODING 1107
SWIDTH 405 0
DWIDTH 18 0
BBX 18 33 1 0
BITMAP
000300
000600
000C00
000800
001000
002000
000000
000000
000000
000000
0FFFC0
080000
080000
080000
080000
180000
100000
100000
100000
100000
100000
300000
200000
200000
200000
200000
600000
400000
400000
400000
400000
400000
C00000
ENDCHAR
STARTCHAR 0454
ENCODING 1108
SWIDTH 495 0
DWIDTH 22 0
BBX 19 24 2 0
BITMAP
007C00
038700
060180
0C00C0
180040
100040
200060
600060
400000
400000
C00000
800000
FFF800
800000
800000
800000
800000
800080
800180
C00100
400200
600600
301800
0FF000
ENDCHAR
STARTCHAR 0455
ENCODING 1109
SWIDTH 472 0
DWIDTH 21 0
BBX 18 24 1 0
BITMAP
00FC00
03C700
060180
0800C0
100040
100040
100040
100000
100000
080000
060000
03C000
003800
000E00
000300
000100
000180
000080
800180
800100
C00300
600600
300C00
1FF000
ENDCHAR
STARTCHAR 0456
ENCODING 1110
SWIDTH 180 0
DWIDTH 8 0
BBX 7 32 2 0
BITMAP
06
0E
00
00
00
00
00
00
00
18
18
10
10
10
10
30
30
20
20
20
20
60
40
40
40
40
40
C0
80
80
80
80
ENDCHAR
STARTCHAR 0457
ENCODING 1111
SWIDTH 180 0
DWIDTH 8 0
BBX 11 31 2 1
BITMAP
C060
8060
0000
0000
0000
0000
0000
0000
1800
1000
1000
1000
1000
1000
3000
2000
2000
2000
2000
2000
6000
4000
4000
4000
4000
C000
C000
8000
8000
8000
8000
ENDCHAR
STARTCHAR 0458
ENCODING 1112
SWIDTH 202 0
DWIDTH 9 0
BBX 16 41 -7 -9
BITMAP
0003
0007
0000
0000
0000
0000
0000
0000
0000
0004
000C
0008
0008
0008
0008
0018
0018
0010
0010
0010
0010
0030
0020
0020
0020
0020
0020
0060
0040
0040
0040
0040
0040
00C0
0080
0080
0080
0100
0300
0600
FC00
ENDCHAR
STARTCHAR 0459
ENCODING 1113
SWIDTH 832 0
DWIDTH 37 0
BBX 35 23 -1 0
BITMAP
007FFE0000
0040040000
0040040000
0040040000
00C0040000
0080040000
00800C0000
0080080000
0080080000
01000FFC00
01000FFF80
01000800C0
0100180060
0300100020
0200100020
0200100020
0200100020
0400100020
0400300060
0C002000C0
1800200180
3000200F00
C0003FF800
ENDCHAR
STARTCHAR 045A
ENCODING 1114
SWIDTH 832 0
DWIDTH 37 0
BBX 33 23 1 0
BITMAP
0800180000
0800100000
0800100000
0800100000
0800100000
1800100000
1000300000
1000200000
1000200000
1FFFFFF000
10003FFE00
3000200300
2000600180
2000400080
2000400080
2000400080
6000400080
4000400080
4000C00180
4000800300
4000800600
4000803C00
C000FFE000
ENDCHAR
STARTCHAR 045B
ENCODING 1115
SWIDTH 517 0
DWIDTH 23 0
BBX 20 33 1 0
BITMAP
020000
020000
020000
060000
7FF800
040000
040000
040000
040000
0C1F00
0870C0
098060
0B0020
0A0020
0C0030
180030
180030
100030
100020
100020
100020
300020
200060
200060
200040
200040
600040
400040
4000C0
400080
400080
400080
C00080
ENDCHAR
STARTCHAR 045C
ENCODING 1116
SWIDTH 472 0
DWIDTH 21 0
BBX 20 33 1 0
BITMAP
000040
000080
000100
000200
000600
000C00
000000
000000
000000
000000
080030
080060
0800C0
080180
180300
180600
100C00
101800
103000
106000
3FC000
3F8000
20C000
206000
203000
201000
601800
400C00
400400
400200
400300
400180
C00080
ENDCHAR
STARTCHAR 045D
ENCODING 1117
SWIDTH 517 0
DWIDTH 23 0
BBX 21 33 1 0
BITMAP
002000
003000
001000
001800
000800
000400
000000
000000
000000
000000
080018
080030
080070
0800D0
080190
180110
100230
100420
100C20
101820
103020
202020
204060
20C040
218040
230040
660040
440040
4800C0
580080
700080
600080
C00080
ENDCHAR
STARTCHAR 045E
ENCODING 1118
SWIDTH 450 0
DWIDTH 20 0
BBX 23 41 -2 -9
BITMAP
002004
003008
001018
001C70
0007C0
000000
000000
000000
040000
040002
040006
060004
02000C
020008
020010
020010
030020
010060
010040
0100C0
018080
008180
008100
008300
008200
00C600
004400
004800
005800
007000
003000
002000
006000
004000
00C000
008000
018000
030000
020000
040000
F80000
ENDCHAR
STARTCHAR 045F
ENCODING 1119
SWIDTH 517 0
DWIDTH 23 0
BBX 21 31 1 -8
BITMAP
080018
080010
080010
080010
080010
180010
100030
100020
100020
100020
300020
300020
200060
200040
200040
200040
600040
400040
4000C0
400080
400080
400080
FFFF80
008000
008000
008000
018000
010000
010000
010000
010000
ENDCHAR
STARTCHAR 0460
ENCODING 1120
SWIDTH 855 0
DWIDTH 38 0
BBX 35 32 3 0
BITMAP
0800100020
0800100060
0800300040
0800200040
1800200040
1000200040
1000200040
10002000C0
1000600080
1000400080
3000400080
2000400080
2000400180
2000400180
2000C00100
6000800100
4000800100
4000800100
4000800300
4000800200
4001800200
C001000200
8001000200
8001000200
8003000400
8003000400
8003000C00
C007000800
400D801800
6018803000
3030406000
1FE03F8000
ENDCHAR
STARTCHAR 0461
ENCODING 1121
SWIDTH 832 0
DWIDTH 37 0
BBX 32 23 3 0
BITMAP
1000C003
30008002
20008002
20008002
20008002
20008006
60018004
40010004
40010004
40010004
40010004
4001000C
C0030008
80020008
80020008
80020008
80060018
80060010
800E0030
C00B0020
40110040
20718180
1FC07F00
ENDCHAR
STARTCHAR 0462
ENCODING 1122
SWIDTH 562 0
DWIDTH 25 0
BBX 20 32 2 0
BITMAP
040000
040000
040000
040000
040000
0C0000
7FF800
080000
080000
080000
180000
180000
100000
100000
100000
1FFE00
300380
200060
200020
200010
200010
200010
600010
400010
400010
400030
400020
400060
C000C0
800380
800E00
FFF800
ENDCHAR
STARTCHAR 0463
ENCODING 1123
SWIDTH 495 0
DWIDTH 22 0
BBX 18 33 1 0
BITMAP
020000
020000
020000
020000
060000
040000
040000
040000
FFF800
FFF800
0C0000
080000
080000
080000
080000
080000
180000
100000
1FF000
1FFF00
100180
1000C0
300040
200040
200040
200040
200040
600040
400080
400180
400300
401E00
7FF000
ENDCHAR
STARTCHAR 0464
ENCODING 1124
SWIDTH 855 0
DWIDTH 38 0
BBX 33 32 3 0
BITMAP
040007F000
0400381C00
0400600600
0400C00300
0C01000100
0803000080
0806000080
0804000080
080C000080
0808000080
1808000000
1018000000
1010000000
1010000000
1010000000
1FFFFE0000
3020000000
2020000000
2020000000
2020000000
2020000000
2020000000
6020000200
4020000200
4020000600
4020000400
4030000C00
4010001800
C018003000
800C006000
800601C000
8003FF0000
ENDCHAR
STARTCHAR 0465
ENCODING 1125
SWIDTH 697 0
DWIDTH 31 0
BBX 28 24 2 0
BITMAP
00003E00
1801C380
100300C0
10060060
100C0020
10080020
10100030
30300030
20200000
20200000
20600000
3FFFF800
60400000
60400000
40400000
40400000
40400000
40400040
C04000C0
80600080
80200100
80300300
80180C00
8007F800
ENDCHAR
STARTCHAR 0466
ENCODING 1126
SWIDTH 562 0
DWIDTH 25 0
BBX 24 32 -1 0
BITMAP
0000C0
0000C0
0001C0
000140
000360
000220
000420
000420
000820
001820
001030
003010
002010
006010
004010
00C018
008008
018008
010008
020008
03FFFC
040404
040404
080C04
180804
100806
300802
200802
601802
401802
C01003
801003
ENDCHAR
STARTCHAR 0467
ENCODING 1127
SWIDTH 495 0
DWIDTH 22 0
BBX 20 24 -1 0
BITMAP
000400
000600
000A00
001A00
001200
003300
002300
006100
004100
008180
018180
010080
030080
020080
07FFC0
0C1040
081040
183040
102060
302020
202020
402020
C06030
806010
ENDCHAR
STARTCHAR 0468
ENCODING 1128
SWIDTH 832 0
DWIDTH 37 0
BBX 31 32 3 0
BITMAP
02000180
06000180
04000380
04000280
040006C0
04000440
0C000C40
0C000840
08001840
08001060
08002020
08002020
18004020
1000C020
10008030
10018010
10010010
10030010
30020010
20060018
3FFFFFF8
200C0808
20080808
20101808
6010180C
4020100C
40201004
40401004
40C01004
40803004
C1802006
81002002
ENDCHAR
STARTCHAR 0469
ENCODING 1129
SWIDTH 720 0
DWIDTH 32 0
BBX 26 24 2 0
BITMAP
00000800
08001800
08003800
08002800
08006C00
18004400
1000C400
10008400
10010600
10030200
10020200
30060200
20040300
20080100
3FFFFF00
20104100
20304180
60204080
40604080
4040C080
408080C0
41808040
41008040
C3008040
ENDCHAR
STARTCHAR 046A
ENCODING 1130
SWIDTH 742 0
DWIDTH 33 0
BBX 30 32 1 0
BITMAP
00FFFFFC
00FFFFF8
00400018
00600030
00200060
00200040
00100080
00100100
00080300
00080600
00040400
00040800
00021000
00022000
00036000
00014000
01FFFF80
070180E0
0C010020
18010010
10010010
20010010
20010010
20030010
20020010
60020010
40020010
40020030
40060020
40060020
C0040020
C0040020
ENDCHAR
STARTCHAR 046B
ENCODING 1131
SWIDTH 652 0
DWIDTH 29 0
BBX 24 24 1 0
BITMAP
020000
01FFFF
018002
008004
00C008
004010
006030
002060
0010C0
001180
000B00
007FC0
03FFF8
0C040C
180C06
300802
200802
600802
400802
400802
401802
401002
C01002
C01006
ENDCHAR
STARTCHAR 046C
ENCODING 1132
SWIDTH 990 0
DWIDTH 44 0
BBX 39 32 3 0
BITMAP
04007FFFFE
04007FFFFC
040020000C
0400300018
0C00100030
0800100020
0800080040
0800080080
0800040180
0800040300
1800020200
1000020400
1000010800
1000011800
100000B000
100000A000
3FFFFFFFC0
200380C070
2006008010
200C008008
2008008008
2018008008
6010008008
4010018008
4010010008
4030010008
4020010008
C020010018
C020010010
8020030010
8020020010
8060020010
ENDCHAR
STARTCHAR 046D
ENCODING 1133
SWIDTH 832 0
DWIDTH 37 0
BBX 32 24 2 0
BITMAP
00020000
1803FFFF
10010006
1001800C
10008018
1000C030
10004020
30006040
20002080
20001100
20001A00
3FFFFFC0
3FFFFFF0
600C080C
40100804
40200802
40600802
40401802
C0401002
C0401002
80C01006
80801004
80801004
80803004
ENDCHAR
STARTCHAR 046E
ENCODING 1134
SWIDTH 495 0
DWIDTH 22 0
BBX 23 49 0 -8
BITMAP
000404
000608
000210
000120
0001C0
000080
000000
000000
000000
01FE00
01FFE0
000038
00000C
000004
000006
000002
000002
000006
000004
000004
00000C
000018
000030
0000C0
00FF00
001F80
0000C0
000020
000010
000010
000018
000018
000018
000010
000010
000020
000060
0000C0
000380
001E00
1FF000
300000
400000
C00000
C00000
C00000
400000
200000
180000
ENDCHAR
STARTCHAR 046F
ENCODING 1135
SWIDTH 450 0
DWIDTH 20 0
BBX 20 42 -1 -8
BITMAP
004060
0020C0
003180
001B00
000E00
000000
000000
000000
000000
000000
000000
03FF80
0000C0
000020
000030
000030
000030
000020
000060
0000C0
000180
01FE00
01FE00
000180
0000C0
000040
000040
000040
000040
000080
000180
000300
003C00
1FE000
300000
400000
400000
C00000
400000
400000
300000
180000
ENDCHAR
STARTCHAR 0470
ENCODING 1136
SWIDTH 675 0
DWIDTH 30 0
BBX 26 32 4 0
BITMAP
30020040
20060040
200400C0
200400C0
20040080
20040080
60040080
400C0080
40080180
40080100
40080100
40080100
C0080100
C0180300
C0100200
40100600
40100400
60100C00
20101800
30303000
1820E000
07278000
01FC0000
00200000
00600000
00600000
00400000
00400000
00400000
00400000
00C00000
00800000
ENDCHAR
STARTCHAR 0471
ENCODING 1137
SWIDTH 630 0
DWIDTH 28 0
BBX 23 33 3 -9
BITMAP
00000C
200C04
200804
600806
400802
400802
401802
401802
401002
C01002
801002
801002
803006
802004
802004
802004
802008
802018
C06010
404030
604060
3040C0
184300
0FFC00
00C000
008000
008000
008000
008000
008000
018000
010000
010000
ENDCHAR
STARTCHAR 0472
ENCODING 1138
SWIDTH 630 0
DWIDTH 28 0
BBX 24 32 3 0
BITMAP
001FC0
007070
018018
03000C
060006
0C0002
180002
100003
300001
200001
200001
400001
400001
400001
400001
C00003
FFFFFE
800002
800002
800002
800006
800004
800004
800008
800008
800010
C00030
400020
600040
300180
180700
07FC00
ENDCHAR
STARTCHAR 0473
ENCODING 1139
SWIDTH 540 0
DWIDTH 24 0
BBX 21 24 1 0
BITMAP
003E00
01E380
030040
060020
0C0030
180010
100010
200018
200008
600008
400008
400008
7FFFF8
C00010
C00010
C00030
C00020
400060
400040
4000C0
200180
300300
180E00
07F800
ENDCHAR
STARTCHAR 0474
ENCODING 1140
SWIDTH 562 0
DWIDTH 25 0
BBX 25 32 4 0
BITMAP
80000380
80000C00
80001800
C0001000
40002000
40002000
40004000
40004000
40008000
40008000
60010000
20010000
20020000
20020000
20040000
20040000
20080000
20080000
10100000
10100000
10200000
10200000
10400000
10400000
10C00000
08800000
09800000
09000000
0B000000
0A000000
0E000000
0C000000
ENDCHAR
STARTCHAR 0475
ENCODING 1141
SWIDTH 450 0
DWIDTH 20 0
BBX 20 24 3 0
BITMAP
800070
800180
800300
800200
C00600
400400
400C00
400800
401800
401000
603000
202000
206000
204000
20C000
208000
218000
110000
130000
120000
160000
140000
1C0000
080000
ENDCHAR
STARTCHAR 0476
ENCODING 1142
SWIDTH 562 0
DWIDTH 25 0
BBX 25 38 4 0
BITMAP
1C600000
04300000
02100000
03080000
018C0000
00000000
80000380
80000C00
80001800
C0001000
40002000
40002000
40004000
40004000
40008000
40008000
60010000
20010000
20020000
20020000
20040000
20040000
20080000
20080000
10100000
10100000
10200000
10200000
10400000
10400000
10C00000
08800000
09800000
09000000
0B000000
0A000000
0E000000
0C000000
ENDCHAR
STARTCHAR 0477
ENCODING 1143
SWIDTH 450 0
DWIDTH 20 0
BBX 20 32 3 0
BITMAP
618000
308000
18C000
0C6000
042000
021000
000000
000000
800070
800180
800300
800200
C00600
400400
400C00
400800
401800
401000
603000
202000
206000
204000
20C000
208000
218000
110000
130000
120000
160000
140000
1C0000
080000
ENDCHAR
STARTCHAR 0478
ENCODING 1144
SWIDTH 1102 0
DWIDTH 49 0
BBX 47 41 3 -9
BITMAP
001FC0000000
007070000000
018018000000
03000C000000
060006000000
0C0002000000
180002000000
100001000000
3000010C0000
200001040002
200001040004
40000104000C
400001060008
400001060018
400001020010
C00003020030
800002020020
800002030060
800002010040
800002010080
800006010080
800004010100
800004018300
800008008200
800008008600
800010008400
C0003000CC00
400020004800
600040005800
300180005000
180700007000
07FC00006000
000000004000
000000004000
000000008000
000000018000
000000010000
000000030000
000000060000
0000000C0000
000000F80000
ENDCHAR
STARTCHAR 0479
ENCODING 1145
SWIDTH 990 0
DWIDTH 44 0
BBX 44 33 1 -9
BITMAP
003E00600000
01C380200010
030040200020
040020200060
080030300040
1800101000C0
100010100080
200018100180
200008100100
600008180300
400008080200
400008080600
400018080400
C00010080800
C000100C1800
C00010041000
400030043000
400020042000
400040066000
6000C0024000
20018002C000
100300028000
1C0600038000
07F800030000
000000020000
000000020000
000000040000
0000000C0000
000000080000
000000180000
000000300000
000000600000
000007C00000
ENDCHAR
STARTCHAR 047A
ENCODING 1146
SWIDTH 630 0
DWIDTH 28 0
BBX 24 38 3 -3
BITMAP
000300
000300
000200
001FC0
007270
018218
03060C
060006
0C0002
180002
100001
300001
200001
200001
400001
400001
400001
400001
C00003
800002
800002
800002
800002
800006
800004
800004
800008
800008
800010
C00030
400020
604040
304180
184700
07FC00
00C000
008000
008000
ENDCHAR
STARTCHAR 047B
ENCODING 1147
SWIDTH 517 0
DWIDTH 23 0
BBX 21 29 1 -3
BITMAP
000C00
000800
003E00
01E980
030840
060820
0C0030
180010
100010
200018
200008
400008
400008
400008
400018
C00010
C00010
C00030
C00020
400020
400040
4000C0
204180
30C300
188E00
07F800
008000
008000
008000
ENDCHAR
STARTCHAR 047C
ENCODING 1148
SWIDTH 855 0
DWIDTH 38 0
BBX 33 39 3 0
BITMAP
00003F0000
0000618000
0000804000
0001803000
00010C0C00
0000080000
0000080000
0010181000
00F0101C00
0380200300
0600000100
0400000180
0800000080
0800000080
1000000080
1000000080
1000000080
3000000080
2000000080
2000400180
2000400180
2000C00100
6000800100
6000800100
4000800100
4000800300
4000800300
4001800200
C001000200
8001000200
8001000200
8003000600
8003000400
8003000C00
C007000800
400D801800
6018803000
3030406000
1FE03F8000
ENDCHAR
STARTCHAR 047D
ENCODING 1149
SWIDTH 787 0
DWIDTH 35 0
BBX 31 33 2 0
BITMAP
00007800
0001CC00
00030300
00020180
00060070
00042000
00002000
00002000
00004000
0060C0E0
03C00070
06000008
0C00000C
18000004
10000006
30000006
20000006
20000006
20000006
60010004
40010004
40010004
40010004
4001000C
C0030008
C0030008
C0020008
C0070018
40050010
400D0030
60198060
3030C0C0
1FC07F00
ENDCHAR
STARTCHAR 047E
ENCODING 1150
SWIDTH 855 0
DWIDTH 38 0
BBX 35 38 3 0
BITMAP
0007FFF000
0000080000
0000180000
0000000000
0000000000
0000000000
0800100020
0800100060
0800300040
0800200040
1800200040
1000200040
1000200040
10002000C0
1000600080
1000400080
3000400080
2000400080
2000400180
2000400180
2000C00100
6000800100
4000800100
4000800100
4000800300
4000800200
4001800200
C001000200
8001000200
8001000200
8003000400
8003000400
8003000C00
C007000800
400D801800
6018803000
3030406000
1FE03F8000
ENDCHAR
STARTCHAR 047F
ENCODING 1151
SWIDTH 832 0
DWIDTH 37 0
BBX 32 32 3 0
BITMAP
001FFFC0
001FFFC0
00002000
00006000
00004000
00000000
00000000
00000000
00000000
1000C003
30008002
20008002
20008002
20008002
20008006
60018004
40010004
40010004
40010004
40010004
4001000C
C0030008
80020008
80020008
80020008
80060018
80060010
800E0030
C00B0020
40110040
20718180
1FC07F00
ENDCHAR
STARTCHAR 0480
ENCODING 1152
SWIDTH 585 0
DWIDTH 26 0
BBX 23 40 3 -8
BITMAP
001FC0
007070
01C018
030004
060006
040002
080002
180002
100002
300002
200000
200000
600000
400000
400000
400000
C00000
C00000
800000
800000
800000
800000
800000
800000
C00000
400000
400000
600000
200000
300000
1C0000
07C000
004000
00C000
008000
008000
008000
008000
008000
018000
ENDCHAR
STARTCHAR 0481
ENCODING 1153
SWIDTH 495 0
DWIDTH 22 0
BBX 19 32 2 -8
BITMAP
007E00
01C300
060080
0C0040
180060
100020
300020
200020
600000
400000
400000
C00000
C00000
800000
800000
800000
800000
800000
C00000
400000
600000
200000
180000
0F8000
008000
018000
010000
010000
010000
010000
010000
030000
ENDCHAR
STARTCHAR 0482
ENCODING 1154
SWIDTH 562 0
DWIDTH 25 0
BBX 22 29 3 0
BITMAP
00000C
000018
000038
000030
000060
00C0C0
0070C0
003980
001F00
000700
000780
000CE0
001870
001818
003000
406000
E0E000
78C000
1D8000
0F0000
078000
07C000
0C7000
183800
180800
300000
600000
E00000
C00000
ENDCHAR
STARTCHAR 0483
ENCODING 1155
SWIDTH 0 0
DWIDTH 0 0
BBX 12 6 -14 27
BITMAP
0010
0030
FFE0
8000
8000
8000
ENDCHAR
STARTCHAR 0484
ENCODING 1156
SWIDTH 0 0
DWIDTH 0 0
BBX 15 6 -16 28
BITMAP
0070
019C
0606
0802
F002
0002
ENDCHAR
STARTCHAR 0485
ENCODING 1157
SWIDTH 0 0
DWIDTH 0 0
BBX 3 6 -10 29
BITMAP
E0
C0
C0
C0
40
60
ENDCHAR
STARTCHAR 0486
ENCODING 1158
SWIDTH 0 0
DWIDTH 0 0
BBX 4 6 -9 29
BITMAP
30
70
60
60
C0
80
ENDCHAR
STARTCHAR 0488
ENCODING 1160
SWIDTH 0 0
DWIDTH 0 0
BBX 41 39 -32 -7
BITMAP
000001000000
000007E00000
00000EE00000
00001C700000
000018700000
000000000000
003000003000
01FC0000FC00
03DC0001CE00
038E00038600
030E00038600
000000000000
000000000000
000000000000
000000000000
000000000000
000000000000
0C0000000C00
3F0000003F00
738000007380
E3800000E180
000000000000
000000000000
000000000000
000000000000
000000000000
000000000000
000000000000
000000000000
0F80000FC000
1FC0001FE000
38C00038E000
30C000386000
000000000000
000000000000
0001F0000000
0003F8000000
00071C000000
00061C000000
ENDCHAR
STARTCHAR 0489
ENCODING 1161
SWIDTH 0 0
DWIDTH 0 0
BBX 39 41 -32 -9
BITMAP
0000018000
0000018000
0000038000
0000030000
0000070000
0060070000
00600E0000
00600E0038
00700000F8
00700003E0
00380007C0
0038000300
0030000000
0000000000
0000000000
0000000000
0000000000
0000000000
E0000000C0
FE000000F0
7E000000FE
0E0000007E
0200000006
0000000000
0000000000
0000000000
0000000000
0000000000
0000000000
0000001800
01C0003800
07E0003C00
0F80001C00
3E00701C00
1800E00C00
0000E00E00
0001C00400
0001C00000
0001800000
0003800000
0003000000
ENDCHAR
STARTCHAR 048A
ENCODING 1162
SWIDTH 652 0
DWIDTH 29 0
BBX 27 45 2 -6
BITMAP
00080200
00080200
000C0400
00061C00
0003F000
00000000
00000000
06000020
04000060
04000060
040000A0
04000120
04000360
0C000640
08000C40
08001840
08001040
08002040
180040C0
1000C080
10018080
10030080
10020080
10040080
30080180
20180100
20300100
20600100
20400100
20800100
61000300
43000200
46000200
4C000200
58000200
50000200
A0000700
C0000600
C0000600
00000200
00000200
00000400
00000400
00000800
00001800
ENDCHAR
STARTCHAR 048B
ENCODING 1163
SWIDTH 495 0
DWIDTH 22 0
BBX 21 38 1 -6
BITMAP
008020
008020
008060
00C0C0
007F80
000000
000000
000000
000000
080018
080030
080070
0800D0
080190
180110
100230
100420
100C20
101820
103020
202020
204060
20C040
218040
230040
660040
440040
4800C0
580080
7000C0
6000C0
C000C0
000040
0000C0
000080
000180
000100
000200
ENDCHAR
STARTCHAR 048C
ENCODING 1164
SWIDTH 562 0
DWIDTH 25 0
BBX 20 32 2 0
BITMAP
040000
040000
040000
040000
040000
0C0000
7FF800
080000
080000
080000
180000
180000
100000
100000
100000
1FFE00
300380
200060
200020
200010
200010
200010
600010
400010
400010
400030
400020
400060
C000C0
800380
800E00
FFF800
ENDCHAR
STARTCHAR 048D
ENCODING 1165
SWIDTH 495 0
DWIDTH 22 0
BBX 17 35 2 0
BITMAP
060000
040000
040000
7FF800
7FF800
040000
0C0000
080000
080000
080000
080000
080000
180000
100000
100000
100000
100000
100000
300000
200000
3FE000
3FFE00
200300
200180
600080
400080
400080
400080
400080
C00080
800100
800300
800600
803C00
FFE000
ENDCHAR
STARTCHAR 048E
ENCODING 1166
SWIDTH 585 0
DWIDTH 26 0
BBX 23 32 2 0
BITMAP
07FF00
07FFF0
040018
04000C
040006
0C0002
080002
080002
080002
080002
080002
180006
100004
10010C
100188
1000B0
300060
3FFFE0
3FF820
200010
200010
200000
600000
400000
400000
400000
400000
400000
C00000
800000
800000
800000
ENDCHAR
STARTCHAR 048F
ENCODING 1167
SWIDTH 540 0
DWIDTH 24 0
BBX 21 33 0 -9
BITMAP
000F80
0470E0
04C020
050010
060010
0C0008
0C0008
080008
080008
080008
080008
180008
100008
100018
100010
100010
100030
300020
200460
300640
3002C0
280380
260300
63FD80
400080
4000C0
400000
400000
400000
C00000
800000
800000
800000
ENDCHAR
STARTCHAR 0490
ENCODING 1168
SWIDTH 517 0
DWIDTH 23 0
BBX 25 40 2 0
BITMAP
00000080
00000180
00000100
00000100
00000100
00000100
00000100
00000300
07FFFE00
07FFFE00
04000000
04000000
04000000
0C000000
08000000
08000000
08000000
08000000
08000000
18000000
10000000
10000000
10000000
10000000
30000000
30000000
20000000
20000000
20000000
20000000
60000000
40000000
40000000
40000000
40000000
40000000
C0000000
80000000
80000000
80000000
ENDCHAR
STARTCHAR 0491
ENCODING 1169
SWIDTH 405 0
DWIDTH 18 0
BBX 20 32 1 0
BITMAP
000030
000020
000020
000020
000020
000020
000060
000040
000040
0FFFC0
080000
080000
080000
080000
180000
100000
100000
100000
100000
100000
300000
200000
200000
200000
200000
600000
400000
400000
400000
400000
400000
C00000
ENDCHAR
STARTCHAR 0492
ENCODING 1170
SWIDTH 517 0
DWIDTH 23 0
BBX 23 32 2 0
BITMAP
07FFFE
07FFFE
040000
040000
040000
0C0000
080000
080000
080000
080000
080000
180000
100000
100000
100000
FFF800
300000
300000
200000
200000
200000
200000
600000
400000
400000
400000
400000
400000
C00000
800000
800000
800000
ENDCHAR
STARTCHAR 0493
ENCODING 1171
SWIDTH 405 0
DWIDTH 18 0
BBX 19 23 0 0
BITMAP
07FFE0
040000
040000
040000
040000
0C0000
080000
080000
080000
080000
FFF000
FFF000
100000
100000
100000
100000
300000
200000
200000
200000
200000
200000
600000
ENDCHAR
STARTCHAR 0494
ENCODING 1172
SWIDTH 517 0
DWIDTH 23 0
BBX 23 38 2 -6
BITMAP
07FFFE
07FFFE
040000
040000
040000
0C0000
080000
080000
080000
080000
080000
180000
100000
100000
1FF000
101E00
300300
300180
2000C0
200040
200060
200020
600020
400020
400020
400020
400020
400060
C00040
800040
8000C0
800080
000100
000300
000600
000C00
003000
00C000
ENDCHAR
STARTCHAR 0495
ENCODING 1173
SWIDTH 472 0
DWIDTH 21 0
BBX 18 29 1 -6
BITMAP
0FFFC0
080000
080000
080000
080000
180000
100000
100000
100000
100000
1FF000
301C00
200600
200300
200100
200180
600080
400080
400080
400080
400100
400100
C00300
000200
000400
000800
003000
00E000
010000
ENDCHAR
STARTCHAR 0496
ENCODING 1174
SWIDTH 832 0
DWIDTH 37 0
BBX 40 40 -1 -8
BITMAP
0600020003
0200020006
010002000C
0180060018
0080040030
00C0040060
00400400C0
0060040180
00300C0100
00100C0200
0018080400
0008080800
000C081000
0004083000
0002186000
0003FFC000
0002108000
0006104000
000C106000
0018102000
0030303000
0060201000
00C0200800
0180200C00
0300200400
0600200600
0C00600300
1800400100
3000400180
6000400080
4000400060
8000400060
0000000020
0000000020
0000000020
0000000060
0000000040
0000000040
0000000040
0000000040
ENDCHAR
STARTCHAR 0497
ENCODING 1175
SWIDTH 720 0
DWIDTH 32 0
BBX 33 32 -1 -8
BITMAP
0400000000
0600300180
0200200300
0100200600
0180200C00
0080201800
0040203000
0060606000
002040C000
0010418000
0018430000
000FFE0000
000FFE0000
0010C20000
0060830000
00C0818000
018080C000
0300804000
0601806000
0C01803000
1801001000
3001000800
6001000E00
8001000600
0000000200
0000000200
0000000600
0000000400
0000000400
0000000400
0000000400
0000000400
ENDCHAR
STARTCHAR 0498
ENCODING 1176
SWIDTH 562 0
DWIDTH 25 0
BBX 24 41 1 -9
BITMAP
001FE0
007038
01800C
030002
060003
0C0001
080001
080001
180001
000003
000002
000006
000004
000018
000070
00FFC0
000FC0
000030
000018
000008
00000C
000004
000004
800004
80000C
800008
C00008
400010
600020
300040
1C0380
07FE00
004000
004000
004000
004000
004000
00C000
008000
008000
008000
ENDCHAR
STARTCHAR 0499
ENCODING 1177
SWIDTH 472 0
DWIDTH 21 0
BBX 19 33 1 -9
BITMAP
007E00
03C380
0600C0
0C0040
180020
100020
300020
000060
000040
000080
000300
01FE00
03FC00
000300
000180
000080
000080
800080
800080
800180
C00100
600200
300C00
0FF000
010000
030000
030000
020000
020000
020000
020000
060000
060000
ENDCHAR
STARTCHAR 049A
ENCODING 1178
SWIDTH 607 0
DWIDTH 27 0
BBX 26 40 2 -8
BITMAP
060000C0
04000180
04000300
04000600
04000C00
04001800
0C003000
08006000
0800C000
08018000
08030000
18060000
180C0000
10180000
10300000
1FE00000
1FC00000
30600000
20300000
20100000
20180000
200C0000
20040000
60020000
40030000
40018000
40008000
40004000
40002000
C0003000
80001000
80000C00
00000C00
00000800
00000800
00000800
00000800
00000800
00001800
00001000
ENDCHAR
STARTCHAR 049B
ENCODING 1179
SWIDTH 517 0
DWIDTH 23 0
BBX 20 31 1 -8
BITMAP
080030
080060
0800C0
080180
180300
180600
100C00
101800
103000
106000
3FC000
3F8000
20C000
206000
203000
201000
601800
400C00
400400
400200
400300
4001C0
C000C0
000040
0000C0
000080
000080
000080
000080
000080
000180
ENDCHAR
STARTCHAR 049C
ENCODING 1180
SWIDTH 562 0
DWIDTH 25 0
BBX 25 32 2 0
BITMAP
04000180
04000300
04000600
04000400
04000C00
0C001800
08003000
08002000
08004000
08408000
08418000
18C30000
10820000
10840000
10880000
1FF80000
10900000
31880000
210C0000
21040000
21060000
21020000
61030000
60010000
40018000
40008000
4000C000
40004000
C0002000
80003000
80001000
80001800
ENDCHAR
STARTCHAR 049D
ENCODING 1181
SWIDTH 495 0
DWIDTH 22 0
BBX 21 23 1 0
BITMAP
080018
080020
080060
0800C0
180180
188100
108200
108600
108C00
119800
3FF000
3FF000
211000
211800
210C00
230400
620600
420200
400300
400100
400180
400080
C000C0
ENDCHAR
STARTCHAR 049E
ENCODING 1182
SWIDTH 607 0
DWIDTH 27 0
BBX 26 32 2 0
BITMAP
02000040
02000080
06000100
04000200
04000400
04000800
04001000
FFF02000
0C004000
08018000
08030000
08060000
080C0000
08180000
18300000
1FE00000
1FC00000
10200000
10300000
10180000
30080000
20040000
20060000
20030000
20010000
20008000
6000C000
40006000
40002000
40001000
40001800
C0000C00
ENDCHAR
STARTCHAR 049F
ENCODING 1183
SWIDTH 450 0
DWIDTH 20 0
BBX 19 33 2 0
BITMAP
060000
040000
040000
040000
3FFC00
3FFC00
0C0000
080000
080000
080000
080060
180080
180300
100600
100C00
101800
103000
304000
218000
230000
3E0000
210000
218000
608000
404000
406000
403000
401000
400800
C00C00
800400
800200
800300
ENDCHAR
STARTCHAR 04A0
ENCODING 1184
SWIDTH 765 0
DWIDTH 34 0
BBX 31 32 5 0
BITMAP
FFF00002
FFF00004
00300008
00200010
00200020
00200040
00200180
00600300
00400600
00400C00
00401800
00403000
00406000
00C0C000
00818000
00FF0000
00FE0000
00830000
00818000
0180C000
01004000
01002000
01003000
01001800
01000800
03000400
02000600
02000300
02000100
02000080
020000C0
06000060
ENDCHAR
STARTCHAR 04A1
ENCODING 1185
SWIDTH 607 0
DWIDTH 27 0
BBX 25 23 2 0
BITMAP
FFC00380
00C00600
00C00C00
00801800
00803000
00806000
0080C000
01818000
01030000
01060000
01FC0000
01FC0000
01040000
03020000
02030000
02018000
02008000
02004000
02006000
06003000
04001000
04000800
04000C00
ENDCHAR
STARTCHAR 04A2
ENCODING 1186
SWIDTH 630 0
DWIDTH 28 0
BBX 27 40 2 -8
BITMAP
06000020
04000020
04000020
04000020
04000060
04000040
0C000040
08000040
08000040
08000040
080000C0
18000080
18000080
10000080
10000080
1FFFFF80
10000180
30000100
20000100
20000100
20000100
20000300
20000200
60000200
40000200
40000200
40000200
40000600
40000400
C0000400
80000600
80000600
00000200
00000200
00000600
00000400
00000400
00000400
00000400
00000400
ENDCHAR
STARTCHAR 04A3
ENCODING 1187
SWIDTH 495 0
DWIDTH 22 0
BBX 21 31 1 -8
BITMAP
080018
080010
080010
080010
080010
180010
100030
100020
100020
100020
1FFFE0
3FFFE0
200060
200040
200040
200040
600040
400040
4000C0
400080
400080
4000C0
C000C0
000040
0000C0
000080
000080
000080
000080
000080
000180
ENDCHAR
STARTCHAR 04A4
ENCODING 1188
SWIDTH 990 0
DWIDTH 44 0
BBX 44 32 2 0
BITMAP
0400003FFFF0
0400003FFFF0
040000200000
040000600000
040000400000
0C0000400000
080000400000
080000400000
080000400000
080000C00000
080000800000
180000800000
100000800000
100000800000
100000800000
1FFFFF800000
100001000000
300001000000
200001000000
200001000000
200001000000
200003000000
600002000000
400002000000
400002000000
400002000000
400002000000
400006000000
C00004000000
800004000000
800004000000
800004000000
ENDCHAR
STARTCHAR 04A5
ENCODING 1189
SWIDTH 697 0
DWIDTH 31 0
BBX 31 23 1 0
BITMAP
08001FFE
08001000
08001000
08001000
08001000
18001000
10003000
10002000
10002000
10002000
1FFFE000
3FFFE000
20006000
20004000
20004000
20004000
60004000
40004000
4000C000
40008000
40008000
40008000
C0008000
ENDCHAR
STARTCHAR 04A6
ENCODING 1190
SWIDTH 967 0
DWIDTH 43 0
BBX 39 38 2 -6
BITMAP
07FFFFE000
07FFFFE000
0400004000
0C00004000
0800004000
0800004000
0800004000
080000C000
0800008000
1800008000
1000008000
1000008000
1000008000
1000018000
100001FF80
30000100E0
2000010030
2000010008
200001000C
2000030004
6000020006
6000020002
4000020002
4000020002
4000020002
4000060002
C000040006
8000040004
8000040004
800004000C
80000C0008
8000080018
0000000010
0000000020
0000000060
0000000180
0000000F00
0000001800
ENDCHAR
STARTCHAR 04A7
ENCODING 1191
SWIDTH 787 0
DWIDTH 35 0
BBX 32 28 1 -6
BITMAP
0FFFF800
08001000
08001000
08001000
08001000
18001000
10003000
10002000
10002000
10002000
10003FE0
30002038
2000600C
20004006
20004002
20004003
60004001
40004001
4000C001
40008001
40008003
40008002
C0008006
00000004
0000000C
00000018
00000060
000001C0
ENDCHAR
STARTCHAR 04A8
ENCODING 1192
SWIDTH 720 0
DWIDTH 32 0
BBX 28 32 3 0
BITMAP
00380F00
01C07B80
0300C040
06018020
0C030020
18020010
10060010
30040010
20040010
20080010
60080010
40080010
40080010
40180030
40100030
C0100020
80100020
80100020
80100020
80100060
80300040
80100040
80100080
80100080
C0180100
40080300
400C0600
60060C00
30031800
1801B000
0C01F000
03FF1F80
ENDCHAR
STARTCHAR 04A9
ENCODING 1193
SWIDTH 562 0
DWIDTH 25 0
BBX 21 24 2 0
BITMAP
01C1E0
070630
0C0C10
081808
101008
303008
202008
602008
406008
404008
404008
404008
C04008
80C018
80C010
804010
804030
C04020
406040
4020C0
201180
300F00
180F00
0FF9F0
ENDCHAR
STARTCHAR 04AA
ENCODING 1194
SWIDTH 607 0
DWIDTH 27 0
BBX 24 41 3 -9
BITMAP
001FC0
007070
018018
030004
060006
0C0002
080002
100003
100003
200003
200000
600000
400000
400000
400000
400000
C00000
800000
800000
800000
800000
800000
800008
800008
800018
C00010
400030
400020
200040
300180
180700
07FC00
00C000
008000
008000
008000
008000
018000
018000
010000
010000
ENDCHAR
STARTCHAR 04AB
ENCODING 1195
SWIDTH 472 0
DWIDTH 21 0
BBX 18 33 2 -9
BITMAP
00FC00
038600
040180
080080
1000C0
300040
200040
400040
400000
C00000
800000
800000
800000
800000
800000
800000
800000
800180
800100
800100
400200
600400
301800
1FF000
010000
010000
030000
020000
020000
020000
020000
020000
060000
ENDCHAR
STARTCHAR 04AC
ENCODING 1196
SWIDTH 562 0
DWIDTH 25 0
BBX 24 40 4 -8
BITMAP
FFFFFF
FFFFFF
001000
001000
001000
001000
003000
002000
002000
002000
002000
002000
006000
004000
004000
004000
004000
004000
00C000
008000
008000
008000
008000
008000
018000
010000
010000
010000
010000
030000
038000
030000
010000
010000
010000
010000
030000
020000
020000
020000
ENDCHAR
STARTCHAR 04AD
ENCODING 1197
SWIDTH 450 0
DWIDTH 20 0
BBX 19 31 2 -8
BITMAP
FFFFE0
004000
004000
00C000
008000
008000
008000
008000
008000
018000
010000
010000
010000
010000
010000
030000
020000
020000
020000
020000
060000
070000
060000
020000
020000
020000
020000
060000
040000
040000
040000
ENDCHAR
STARTCHAR 04AE
ENCODING 1198
SWIDTH 562 0
DWIDTH 25 0
BBX 24 32 4 0
BITMAP
800001
C00002
400006
60000C
200008
200010
300030
100060
180040
080080
080180
040300
040200
060400
020C00
021800
011000
012000
00C000
00C000
008000
008000
008000
018000
010000
010000
010000
010000
010000
030000
020000
020000
ENDCHAR
STARTCHAR 04AF
ENCODING 1199
SWIDTH 450 0
DWIDTH 20 0
BBX 18 33 3 -9
BITMAP
800000
800040
800080
C00080
400100
400300
400200
400600
600400
200C00
200800
201000
201000
302000
106000
104000
10C000
108000
198000
090000
0B0000
0A0000
0C0000
0C0000
0C0000
080000
080000
080000
080000
180000
180000
100000
100000
ENDCHAR
STARTCHAR 04B0
ENCODING 1200
SWIDTH 562 0
DWIDTH 25 0
BBX 24 32 4 0
BITMAP
800001
C00002
400006
60000C
200008
200010
300030
100060
180040
080080
080180
040300
040200
060400
020C00
021800
011000
012000
00C000
3FFE00
008000
008000
008000
018000
010000
010000
010000
010000
010000
030000
020000
020000
ENDCHAR
STARTCHAR 04B1
ENCODING 1201
SWIDTH 450 0
DWIDTH 20 0
BBX 19 33 2 -9
BITMAP
400000
400020
400040
600040
200080
200180
200100
200300
300200
100600
100400
100800
100800
181000
083000
082000
086000
084000
0CC000
048000
058000
050000
060000
FFF000
060000
040000
040000
040000
040000
0C0000
0C0000
080000
080000
ENDCHAR
STARTCHAR 04B2
ENCODING 1202
SWIDTH 585 0
DWIDTH 26 0
BBX 27 40 0 -8
BITMAP
0C000020
04000040
02000080
02000180
01000300
01000600
00800C00
00C00800
00401000
00603000
00206000
0030C000
00118000
00190000
000A0000
000C0000
000C0000
001A0000
00320000
00210000
00410000
00808000
0180C000
03004000
06006000
04002000
08003000
10001000
20001800
60000800
C0000E00
80000600
00000400
00000400
00000400
00000400
00000400
00000C00
00000800
00000800
ENDCHAR
STARTCHAR 04B3
ENCODING 1203
SWIDTH 450 0
DWIDTH 20 0
BBX 20 32 0 -8
BITMAP
180000
080030
0C0060
040040
060080
020100
030300
010600
008C00
009800
005000
006000
006000
00F000
019000
031800
060800
040C00
080400
100200
300200
600100
C001C0
8000C0
0000C0
000080
000080
000080
000080
000080
000180
000100
ENDCHAR
STARTCHAR 04B4
ENCODING 1204
SWIDTH 810 0
DWIDTH 36 0
BBX 31 40 3 -8
BITMAP
7FFFF002
FFFFF002
00400002
00400002
00400006
00400004
00C00004
00800004
00800004
00800004
0080000C
00800008
01800008
01000008
01000008
01000008
01000018
03000010
03000010
02000010
02000010
02000010
02000030
06000020
04000020
04000020
04000020
04000060
04000040
0C000040
08000040
0FFFFFF8
00000018
00000010
00000010
00000010
00000010
00000010
00000030
00000020
ENDCHAR
STARTCHAR 04B5
ENCODING 1205
SWIDTH 607 0
DWIDTH 27 0
BBX 23 30 2 -7
BITMAP
FFFE02
010002
010002
010002
030002
020006
020004
020004
020004
060004
060004
04000C
040008
040008
040008
0C0008
080018
080018
080010
080010
080010
180010
1FFFFC
000008
000008
000008
000008
000008
000018
000010
ENDCHAR
STARTCHAR 04B6
ENCODING 1206
SWIDTH 585 0
DWIDTH 26 0
BBX 21 40 6 -8
BITMAP
400008
400008
400018
400010
400010
C00010
800010
800010
800030
800020
800020
800020
800020
C00020
600060
3000C0
1F3FC0
03F040
000040
000040
0000C0
000080
000080
000080
000080
000080
000180
000100
000100
000100
000180
000380
000180
000100
000100
000100
000100
000100
000300
000200
ENDCHAR
STARTCHAR 04B7
ENCODING 1207
SWIDTH 472 0
DWIDTH 21 0
BBX 17 31 3 -8
BITMAP
400080
400080
400080
400080
C00080
800180
800100
800100
800100
C00100
400100
300F00
1FFA00
000200
000200
000200
000200
000600
000400
000400
000400
000600
000600
000600
000400
000400
000400
000400
000400
000C00
000800
ENDCHAR
STARTCHAR 04B8
ENCODING 1208
SWIDTH 607 0
DWIDTH 27 0
BBX 21 32 6 0
BITMAP
400008
400008
400018
400010
400010
C00010
800010
800010
802030
806020
804020
804020
804020
C04020
604060
30C0C0
1FBFC0
03F040
008040
008040
0080C0
018080
010080
000080
000080
000080
000180
000100
000100
000100
000100
000300
ENDCHAR
STARTCHAR 04B9
ENCODING 1209
SWIDTH 517 0
DWIDTH 23 0
BBX 18 23 4 0
BITMAP
4000C0
400080
400080
400080
400080
C00080
C04180
C04100
C04100
40C100
608100
308F00
1FFB00
008200
008200
018200
010200
010200
000600
000400
000400
000400
000400
ENDCHAR
STARTCHAR 04BA
ENCODING 1210
SWIDTH 607 0
DWIDTH 27 0
BBX 21 32 2 0
BITMAP
040000
040000
040000
040000
040000
0C0000
080000
080000
080000
080000
080000
180000
100000
100000
100000
13FF80
1E00E0
300030
200010
200018
200008
200008
600008
400008
400008
400008
400018
400010
C00010
800010
800010
800030
ENDCHAR
STARTCHAR 04BB
ENCODING 1211
SWIDTH 517 0
DWIDTH 23 0
BBX 20 33 1 0
BITMAP
020000
020000
020000
060000
040000
040000
040000
040000
040000
0C1F00
0870C0
098060
0B0020
0A0020
0C0030
180030
180030
100030
100020
100020
100020
300020
200060
200060
200040
200040
600040
400040
4000C0
400080
400080
400080
C00080
ENDCHAR
STARTCHAR 04BC
ENCODING 1212
SWIDTH 697 0
DWIDTH 31 0
BBX 28 32 2 0
BITMAP
0001FC00
00070700
000C0080
00300040
00200060
00400020
00800030
01800010
01000010
81000010
82000010
82000010
C2000010
66000010
3FFFFFF0
04000000
04000000
04000000
04000000
0C000000
08000000
08000000
08000000
08000000
08000000
04000000
04000000
06000000
02000180
01000300
00C01C00
003FF000
ENDCHAR
STARTCHAR 04BD
ENCODING 1213
SWIDTH 562 0
DWIDTH 25 0
BBX 22 24 1 0
BITMAP
000FC0
003860
006010
008008
01000C
030004
820004
840004
C40004
680004
3FFFFC
080000
180000
180000
100000
100000
180000
080000
080000
080000
040020
060060
0301C0
00FF00
ENDCHAR
STARTCHAR 04BE
ENCODING 1214
SWIDTH 697 0
DWIDTH 31 0
BBX 28 42 2 -10
BITMAP
0001FC00
00070700
000C0080
00300040
00200060
00400020
00800030
01800010
01000010
81000010
82000010
82000010
C2000010
66000010
3FFFFFF0
04000000
04000000
04000000
04000000
0C000000
08000000
08000000
08000000
08000000
08000000
04000000
04000000
06000000
02000180
01000300
00C01C00
003FF000
00020000
00020000
00060000
00040000
00040000
00040000
00040000
00040000
000C0000
00080000
ENDCHAR
STARTCHAR 04BF
ENCODING 1215
SWIDTH 562 0
DWIDTH 25 0
BBX 22 33 1 -9
BITMAP
000FC0
003860
006010
008008
01000C
030004
820004
840004
C40004
680004
3FFFFC
080000
180000
180000
100000
100000
180000
080000
080000
080000
040020
060060
0301C0
00FF00
001000
003000
002000
002000
002000
002000
002000
006000
004000
ENDCHAR
STARTCHAR 04C0
ENCODING 1216
SWIDTH 247 0
DWIDTH 11 0
BBX 6 32 3 0
BITMAP
04
04
04
04
04
0C
08
08
08
08
18
18
10
10
10
10
30
20
20
20
20
20
60
40
40
40
40
40
C0
80
80
80
ENDCHAR
STARTCHAR 04C1
ENCODING 1217
SWIDTH 810 0
DWIDTH 36 0
BBX 40 39 -1 0
BITMAP
0000200800
0000200800
0000301000
0000187000
00000FC000
0000000000
0000000000
0600020003
0200020006
010002000C
0180060018
0080040030
00C0040060
00400400C0
0060040180
00300C0100
00100C0200
0018080400
0008080800
000C081000
0004083000
0002186000
0003FFC000
0002108000
0006104000
000C106000
0018102000
0030303000
0060201000
00C0200800
0180200C00
0300200400
0600200600
0C00600300
1800400100
3000400180
6000400080
4000400040
8000400060
ENDCHAR
STARTCHAR 04C2
ENCODING 1218
SWIDTH 742 0
DWIDTH 33 0
BBX 33 32 -1 0
BITMAP
0001004000
0001004000
0001008000
0001818000
0000FE0000
0000100000
0000000000
0000000000
0400000000
0600300180
0200200300
0100200600
0180200C00
0080201800
0040203000
0060606000
002040C000
0010418000
0018430000
000FFE0000
000FFE0000
0010C20000
0060830000
00C0818000
018080C000
0300804000
0601806000
0C01803000
1801001000
3001000800
6001000C00
8001000600
ENDCHAR
STARTCHAR 04C3
ENCODING 1219
SWIDTH 562 0
DWIDTH 25 0
BBX 25 39 2 -7
BITMAP
04000180
04000300
04000600
04000C00
04001800
0C003000
08006000
0800C000
08018000
08030000
08060000
180C0000
10180000
10300000
10600000
1FFC0000
10078000
3000C000
20002000
20001000
20001800
20000800
60000800
60000800
40000800
40000800
40000800
40000800
C0000800
80001800
80001000
80001000
00002000
00006000
00004000
00008000
00030000
000E0000
00380000
ENDCHAR
STARTCHAR 04C4
ENCODING 1220
SWIDTH 495 0
DWIDTH 22 0
BBX 20 29 1 -6
BITMAP
080030
080060
0800C0
080180
180200
180400
101800
103000
106000
10C000
3FC000
3FFC00
200600
200300
200180
200080
600080
4000C0
4000C0
400080
400080
400080
C00180
000100
000300
000600
000C00
003000
00C000
ENDCHAR
STARTCHAR 04C5
ENCODING 1221
SWIDTH 630 0
DWIDTH 28 0
BBX 30 38 -1 -6
BITMAP
0007FFFC
0007FFFC
00040004
0008000C
00080008
00080008
00080008
00180008
00100008
00100018
00100010
00300010
00200010
00200010
00200010
00600030
00400020
00400020
00400020
00400020
00C00020
00800060
00800040
00800040
01000040
01000040
03000040
020000C0
04000080
0C0000C0
380000C0
E00000C0
00000040
00000080
00000080
00000180
00000100
00000200
ENDCHAR
STARTCHAR 04C6
ENCODING 1222
SWIDTH 495 0
DWIDTH 22 0
BBX 23 29 -1 -6
BITMAP
007FFE
004004
004004
004004
004004
00C004
00800C
008008
008008
018008
010008
010008
010018
010010
030010
020010
020010
060010
040030
0C0020
080030
300030
E00030
000010
000030
000020
000060
000040
000080
ENDCHAR
STARTCHAR 04C7
ENCODING 1223
SWIDTH 675 0
DWIDTH 30 0
BBX 27 41 2 -9
BITMAP
04000020
04000020
04000020
04000060
04000040
0C000040
08000040
08000040
08000040
080000C0
08000080
18000080
10000080
10000080
10000080
10000180
1FFFFF00
30000100
20000100
20000100
20000100
20000300
60000200
60000200
40000200
40000200
40000600
40000600
C0000400
80000400
80000400
80000400
00000C00
00000800
00000800
00000800
00001800
00001000
00003000
00006000
000FC000
ENDCHAR
STARTCHAR 04C8
ENCODING 1224
SWIDTH 517 0
DWIDTH 23 0
BBX 21 32 1 -9
BITMAP
080018
080010
080010
080010
080010
180010
100030
100020
100020
100020
1FFFE0
3FFFE0
200060
200040
200040
200040
600040
400040
4000C0
400080
400080
400080
C00080
000180
000180
000100
000100
000300
000200
000600
000C00
01F800
ENDCHAR
STARTCHAR 04C9
ENCODING 1225
SWIDTH 630 0
DWIDTH 28 0
BBX 27 38 2 -6
BITMAP
06000020
04000020
04000020
04000020
04000060
04000040
0C000040
08000040
08000040
08000040
080000C0
18000080
18000080
10000080
10000080
1FFFFF80
10000180
30000100
20000100
20000100
20000100
20000300
20000200
60000200
40000200
40000200
40000200
40000600
40000400
C0000600
80000600
80000600
00000200
00000600
00000400
00000C00
00000800
00001000
ENDCHAR
STARTCHAR 04CA
ENCODING 1226
SWIDTH 495 0
DWIDTH 22 0
BBX 21 29 1 -6
BITMAP
080018
080010
080010
080010
080010
180010
100030
100020
100020
100020
1FFFE0
3FFFE0
200060
200040
200040
200040
600040
400040
4000C0
400080
4000C0
4000C0
C000C0
000040
000080
000080
000180
000100
000200
ENDCHAR
STARTCHAR 04CB
ENCODING 1227
SWIDTH 607 0
DWIDTH 27 0
BBX 21 40 6 -8
BITMAP
400008
400008
400018
400010
400010
C00010
800010
800010
800030
800020
800020
800020
800020
C00020
600060
3000C0
1F3FC0
03F040
000040
000040
0000C0
000080
000080
000080
000080
000080
000180
000100
000100
000100
000700
000700
000400
000400
000400
000400
000C00
000800
000800
000800
ENDCHAR
STARTCHAR 04CC
ENCODING 1228
SWIDTH 495 0
DWIDTH 22 0
BBX 17 31 3 -8
BITMAP
400080
400080
400080
400080
C00080
800180
800100
800100
800100
C00100
400100
300F00
1FFA00
000200
000200
000200
000200
000600
000400
000400
000400
000C00
001C00
001000
001000
001000
001000
001000
003000
002000
002000
ENDCHAR
STARTCHAR 04CD
ENCODING 1229
SWIDTH 787 0
DWIDTH 35 0
BBX 34 38 2 -6
BITMAP
06000000C0
06000000C0
07000001C0
0500000380
0500000280
0500000680
0D80000480
0880000880
0880001980
0880001100
08C0003100
1840002100
1840004100
104000C100
1060008300
1020018200
1020010200
3020020200
2030060200
2010040200
20100C0600
2010080400
2018100400
6008300400
4008200400
4008600C00
400C400800
4004800800
4005800800
C005000C00
8007000C00
8002001C00
0000000C00
0000000800
0000000800
0000001000
0000003000
0000002000
ENDCHAR
STARTCHAR 04CE
ENCODING 1230
SWIDTH 675 0
DWIDTH 30 0
BBX 27 30 2 -6
BITMAP
08000000
18000060
14000060
140000A0
140001E0
16000140
12000240
32000640
23000440
21000840
210018C0
21001080
20802080
60806080
40804080
40C0C180
40418180
40410100
C0630100
C0260100
80240100
803C0380
80180380
80100300
00000100
00000100
00000300
00000200
00000400
00000400
ENDCHAR
STARTCHAR 04CF
ENCODING 1231
SWIDTH 247 0
DWIDTH 11 0
BBX 6 32 3 0
BITMAP
04
04
04
04
04
0C
08
08
08
08
18
18
10
10
10
10
30
20
20
20
20
20
60
40
40
40
40
40
C0
80
80
80
ENDCHAR
ENDFONT
